<?xml version="1.0" standalone="no"?>
<!DOCTYPE svg PUBLIC "-//W3C//DTD SVG 1.1//EN" "http://www.w3.org/Graphics/SVG/1.1/DTD/svg11.dtd">
<svg width="100%" height="100%" viewBox="0 0 3302 1651" version="1.1" xmlns="http://www.w3.org/2000/svg" xmlns:xlink="http://www.w3.org/1999/xlink" xml:space="preserve" style="fill-rule:evenodd;clip-rule:evenodd;stroke-linejoin:round;stroke-miterlimit:1.41421;">
    <g transform="matrix(1,0,0,1,-1243.88,705.629)">
        <path d="M1698.51,685.034L1698.51,573.471L1658.09,654.584L1634.99,654.584L1594.56,573.471L1594.56,685.034L1551.51,685.034L1551.51,498.659L1598.24,498.659L1646.54,596.046L1695.1,498.659L1741.56,498.659L1741.56,685.034L1698.51,685.034Z" style="fill:white;fill-rule:nonzero;"/>
    </g>
    <g transform="matrix(1,0,0,1,-1243.88,705.629)">
        <path d="M1827.93,498.659L1866.78,498.659L1934.76,685.034L1890.66,685.034L1876.23,643.296L1818.21,643.296L1804.04,685.034L1759.94,685.034L1827.93,498.659ZM1869.14,613.634L1847.35,547.746L1825.04,613.634L1869.14,613.634Z" style="fill:white;fill-rule:nonzero;"/>
    </g>
    <g transform="matrix(1,0,0,1,-1243.88,705.629)">
        <path d="M1953.14,685.034L1953.14,498.659L2037.14,498.659C2045.89,498.659 2053.98,500.496 2061.42,504.171C2068.86,507.846 2075.29,512.659 2080.71,518.609C2086.14,524.559 2090.38,531.296 2093.45,538.821C2096.51,546.346 2098.04,553.959 2098.04,561.659C2098.04,567.434 2097.34,572.99 2095.94,578.327C2094.54,583.665 2092.53,588.696 2089.9,593.421C2087.28,598.146 2084.08,602.39 2080.32,606.152C2076.56,609.915 2072.31,613.109 2067.59,615.734L2108.54,685.034L2059.98,685.034L2024.28,624.921L1996.19,624.921L1996.19,685.034L1953.14,685.034ZM1996.19,587.384L2035.56,587.384C2040.64,587.384 2045.01,584.977 2048.69,580.165C2052.36,575.352 2054.2,569.184 2054.2,561.659C2054.2,553.959 2052.1,547.834 2047.9,543.284C2043.7,538.734 2039.15,536.459 2034.25,536.459L1996.19,536.459L1996.19,587.384Z" style="fill:white;fill-rule:nonzero;"/>
    </g>
    <g transform="matrix(1,0,0,1,-1243.88,705.629)">
        <path d="M2118.25,590.271C2118.25,579.071 2120.35,567.915 2124.55,556.802C2128.75,545.69 2134.88,535.759 2142.93,527.009C2150.98,518.259 2160.78,511.171 2172.33,505.746C2183.88,500.321 2197,497.609 2211.7,497.609C2229.2,497.609 2244.38,501.371 2257.24,508.896C2270.11,516.421 2279.69,526.221 2285.99,538.296L2252.91,561.396C2250.81,556.496 2248.14,552.427 2244.91,549.19C2241.67,545.952 2238.13,543.327 2234.28,541.315C2230.43,539.302 2226.49,537.902 2222.46,537.115C2218.44,536.327 2214.5,535.934 2210.65,535.934C2202.43,535.934 2195.25,537.596 2189.13,540.921C2183,544.246 2177.93,548.534 2173.9,553.784C2169.88,559.034 2166.9,564.984 2164.98,571.634C2163.05,578.284 2162.09,585.021 2162.09,591.846C2162.09,599.196 2163.23,606.284 2165.5,613.109C2167.78,619.934 2171.06,625.971 2175.35,631.221C2179.63,636.471 2184.8,640.627 2190.83,643.69C2196.87,646.752 2203.65,648.284 2211.18,648.284C2215.03,648.284 2219.01,647.802 2223.12,646.84C2227.23,645.877 2231.17,644.39 2234.93,642.377C2238.7,640.365 2242.15,637.74 2245.3,634.502C2248.45,631.265 2250.99,627.284 2252.91,622.559L2288.09,643.296C2285.29,650.121 2281.13,656.246 2275.62,661.671C2270.11,667.096 2263.76,671.646 2256.59,675.321C2249.41,678.996 2241.8,681.796 2233.75,683.721C2225.7,685.646 2217.83,686.609 2210.13,686.609C2196.65,686.609 2184.27,683.852 2172.98,678.34C2161.7,672.827 2151.98,665.521 2143.85,656.421C2135.71,647.321 2129.41,636.996 2124.95,625.446C2120.48,613.896 2118.25,602.171 2118.25,590.271Z" style="fill:white;fill-rule:nonzero;"/>
    </g>
    <g transform="matrix(1,0,0,1,-1243.88,705.629)">
        <path d="M2470,498.659L2470,685.034L2426.95,685.034L2426.95,608.646L2352.66,608.646L2352.66,685.034L2309.61,685.034L2309.61,498.659L2352.66,498.659L2352.66,570.846L2426.95,570.846L2426.95,498.659L2470,498.659Z" style="fill:white;fill-rule:nonzero;"/>
    </g>
    <g transform="matrix(1,0,0,1,-1243.88,705.629)">
        <path d="M2566.86,685.034L2566.86,498.659L2693.39,498.659L2693.39,536.459L2609.91,536.459L2609.91,576.621L2678.69,576.621L2678.69,611.534L2609.91,611.534L2609.91,685.034L2566.86,685.034Z" style="fill:white;fill-rule:nonzero;"/>
    </g>
    <g transform="matrix(1,0,0,1,-1243.88,705.629)">
        <path d="M2793.66,686.609C2779.84,686.609 2767.24,683.896 2755.86,678.471C2744.49,673.046 2734.78,665.915 2726.73,657.077C2718.68,648.24 2712.42,638.134 2707.96,626.759C2703.49,615.384 2701.26,603.659 2701.26,591.584C2701.26,579.334 2703.58,567.521 2708.22,556.146C2712.86,544.771 2719.33,534.752 2727.64,526.09C2735.96,517.427 2745.8,510.515 2757.18,505.352C2768.55,500.19 2780.98,497.609 2794.45,497.609C2808.28,497.609 2820.88,500.321 2832.25,505.746C2843.63,511.171 2853.34,518.346 2861.39,527.271C2869.44,536.196 2875.65,546.346 2880.03,557.721C2884.4,569.096 2886.59,580.646 2886.59,592.371C2886.59,604.621 2884.27,616.434 2879.63,627.809C2874.99,639.184 2868.56,649.202 2860.34,657.865C2852.11,666.527 2842.31,673.484 2830.94,678.734C2819.56,683.984 2807.14,686.609 2793.66,686.609ZM2745.1,592.109C2745.1,599.284 2746.15,606.24 2748.25,612.977C2750.35,619.715 2753.46,625.709 2757.57,630.959C2761.68,636.209 2766.8,640.409 2772.93,643.559C2779.05,646.709 2786.05,648.284 2793.93,648.284C2802.15,648.284 2809.33,646.621 2815.45,643.296C2821.58,639.971 2826.65,635.64 2830.68,630.302C2834.7,624.965 2837.72,618.927 2839.73,612.19C2841.74,605.452 2842.75,598.584 2842.75,591.584C2842.75,584.409 2841.7,577.452 2839.6,570.715C2837.5,563.977 2834.35,558.027 2830.15,552.865C2825.95,547.702 2820.83,543.59 2814.8,540.527C2808.76,537.465 2801.8,535.934 2793.93,535.934C2785.7,535.934 2778.57,537.552 2772.53,540.79C2766.49,544.027 2761.42,548.271 2757.31,553.521C2753.2,558.771 2750.13,564.765 2748.12,571.502C2746.11,578.24 2745.1,585.109 2745.1,592.109Z" style="fill:white;fill-rule:nonzero;"/>
    </g>
    <g transform="matrix(1,0,0,1,-1243.88,705.629)">
        <path d="M2911.53,685.034L2911.53,498.659L2995.53,498.659C3004.28,498.659 3012.37,500.496 3019.81,504.171C3027.24,507.846 3033.68,512.659 3039.1,518.609C3044.53,524.559 3048.77,531.296 3051.83,538.821C3054.89,546.346 3056.43,553.959 3056.43,561.659C3056.43,567.434 3055.73,572.99 3054.33,578.327C3052.93,583.665 3050.91,588.696 3048.29,593.421C3045.66,598.146 3042.47,602.39 3038.71,606.152C3034.95,609.915 3030.7,613.109 3025.98,615.734L3066.93,685.034L3018.36,685.034L2982.66,624.921L2954.58,624.921L2954.58,685.034L2911.53,685.034ZM2954.58,587.384L2993.95,587.384C2999.03,587.384 3003.4,584.977 3007.08,580.165C3010.75,575.352 3012.59,569.184 3012.59,561.659C3012.59,553.959 3010.49,547.834 3006.29,543.284C3002.09,538.734 2997.54,536.459 2992.64,536.459L2954.58,536.459L2954.58,587.384Z" style="fill:white;fill-rule:nonzero;"/>
    </g>
    <g transform="matrix(1,0,0,1,-1243.88,705.629)">
        <path d="M3260.39,553.259C3259.86,552.559 3258.03,551.246 3254.88,549.321C3251.73,547.396 3247.79,545.384 3243.06,543.284C3238.34,541.184 3233.18,539.346 3227.58,537.771C3221.98,536.196 3216.38,535.409 3210.78,535.409C3195.38,535.409 3187.68,540.571 3187.68,550.896C3187.68,554.046 3188.51,556.671 3190.17,558.771C3191.83,560.871 3194.28,562.752 3197.52,564.415C3200.76,566.077 3204.83,567.609 3209.73,569.009C3214.63,570.409 3220.31,571.984 3226.79,573.734C3235.71,576.184 3243.76,578.852 3250.94,581.74C3258.11,584.627 3264.2,588.215 3269.18,592.502C3274.17,596.79 3278.02,601.996 3280.73,608.121C3283.45,614.246 3284.8,621.596 3284.8,630.171C3284.8,640.671 3282.83,649.552 3278.89,656.815C3274.96,664.077 3269.75,669.94 3263.28,674.402C3256.8,678.865 3249.36,682.102 3240.96,684.115C3232.56,686.127 3223.9,687.134 3214.98,687.134C3208.15,687.134 3201.15,686.609 3193.98,685.559C3186.8,684.509 3179.8,682.977 3172.98,680.965C3166.15,678.952 3159.55,676.546 3153.16,673.746C3146.77,670.946 3140.86,667.709 3135.44,664.034L3154.34,626.496C3155.04,627.371 3157.31,629.034 3161.16,631.484C3165.01,633.934 3169.78,636.384 3175.47,638.834C3181.16,641.284 3187.5,643.471 3194.5,645.396C3201.5,647.321 3208.59,648.284 3215.76,648.284C3230.99,648.284 3238.6,643.646 3238.6,634.371C3238.6,630.871 3237.46,627.984 3235.19,625.709C3232.91,623.434 3229.76,621.377 3225.74,619.54C3221.71,617.702 3216.95,615.996 3211.43,614.421C3205.92,612.846 3199.93,611.096 3193.45,609.171C3184.88,606.546 3177.44,603.702 3171.14,600.64C3164.84,597.577 3159.63,594.034 3155.52,590.009C3151.41,585.984 3148.35,581.346 3146.33,576.096C3144.32,570.846 3143.31,564.721 3143.31,557.721C3143.31,547.921 3145.15,539.259 3148.83,531.734C3152.5,524.209 3157.49,517.865 3163.79,512.702C3170.09,507.54 3177.39,503.646 3185.71,501.021C3194.02,498.396 3202.81,497.084 3212.09,497.084C3218.56,497.084 3224.95,497.696 3231.25,498.921C3237.55,500.146 3243.59,501.721 3249.36,503.646C3255.14,505.571 3260.52,507.759 3265.51,510.209C3270.49,512.659 3275.09,515.109 3279.29,517.559L3260.39,553.259Z" style="fill:white;fill-rule:nonzero;"/>
    </g>
    <g transform="matrix(1,0,0,1,-1243.88,705.629)">
        <path d="M3299.24,590.271C3299.24,579.071 3301.34,567.915 3305.54,556.802C3309.74,545.69 3315.86,535.759 3323.91,527.009C3331.96,518.259 3341.76,511.171 3353.31,505.746C3364.86,500.321 3377.99,497.609 3392.69,497.609C3410.19,497.609 3425.37,501.371 3438.23,508.896C3451.1,516.421 3460.68,526.221 3466.98,538.296L3433.9,561.396C3431.8,556.496 3429.13,552.427 3425.89,549.19C3422.66,545.952 3419.11,543.327 3415.26,541.315C3411.41,539.302 3407.48,537.902 3403.45,537.115C3399.43,536.327 3395.49,535.934 3391.64,535.934C3383.41,535.934 3376.24,537.596 3370.11,540.921C3363.99,544.246 3358.91,548.534 3354.89,553.784C3350.86,559.034 3347.89,564.984 3345.96,571.634C3344.04,578.284 3343.08,585.021 3343.08,591.846C3343.08,599.196 3344.21,606.284 3346.49,613.109C3348.76,619.934 3352.05,625.971 3356.33,631.221C3360.62,636.471 3365.78,640.627 3371.82,643.69C3377.86,646.752 3384.64,648.284 3392.16,648.284C3396.01,648.284 3399.99,647.802 3404.11,646.84C3408.22,645.877 3412.16,644.39 3415.92,642.377C3419.68,640.365 3423.14,637.74 3426.29,634.502C3429.44,631.265 3431.98,627.284 3433.9,622.559L3469.08,643.296C3466.28,650.121 3462.12,656.246 3456.61,661.671C3451.1,667.096 3444.75,671.646 3437.58,675.321C3430.4,678.996 3422.79,681.796 3414.74,683.721C3406.69,685.646 3398.81,686.609 3391.11,686.609C3377.64,686.609 3365.26,683.852 3353.97,678.34C3342.68,672.827 3332.97,665.521 3324.83,656.421C3316.7,647.321 3310.39,636.996 3305.93,625.446C3301.47,613.896 3299.24,602.171 3299.24,590.271Z" style="fill:white;fill-rule:nonzero;"/>
    </g>
    <g transform="matrix(1,0,0,1,-1243.88,705.629)">
        <rect x="3490.6" y="498.659" width="43.05" height="186.375" style="fill:white;"/>
    </g>
    <g transform="matrix(1,0,0,1,-1243.88,705.629)">
        <path d="M3700.34,647.234L3700.34,685.034L3569.35,685.034L3569.35,498.659L3697.98,498.659L3697.98,536.459L3612.4,536.459L3612.4,572.684L3685.9,572.684L3685.9,607.596L3612.4,607.596L3612.4,647.234L3700.34,647.234Z" style="fill:white;fill-rule:nonzero;"/>
    </g>
    <g transform="matrix(1,0,0,1,-1243.88,705.629)">
        <path d="M3769.64,578.459L3769.64,685.034L3726.59,685.034L3726.59,498.659L3760.19,498.659L3847.08,608.121L3847.08,498.659L3890.13,498.659L3890.13,685.034L3855.48,685.034L3769.64,578.459Z" style="fill:white;fill-rule:nonzero;"/>
    </g>
    <g transform="matrix(1,0,0,1,-1243.88,705.629)">
        <path d="M3915.06,590.271C3915.06,579.071 3917.16,567.915 3921.36,556.802C3925.56,545.69 3931.69,535.759 3939.74,527.009C3947.79,518.259 3957.59,511.171 3969.14,505.746C3980.69,500.321 3993.81,497.609 4008.51,497.609C4026.01,497.609 4041.2,501.371 4054.06,508.896C4066.92,516.421 4076.5,526.221 4082.8,538.296L4049.73,561.396C4047.63,556.496 4044.96,552.427 4041.72,549.19C4038.48,545.952 4034.94,543.327 4031.09,541.315C4027.24,539.302 4023.3,537.902 4019.28,537.115C4015.25,536.327 4011.31,535.934 4007.46,535.934C3999.24,535.934 3992.06,537.596 3985.94,540.921C3979.81,544.246 3974.74,548.534 3970.71,553.784C3966.69,559.034 3963.71,564.984 3961.79,571.634C3959.86,578.284 3958.9,585.021 3958.9,591.846C3958.9,599.196 3960.04,606.284 3962.31,613.109C3964.59,619.934 3967.87,625.971 3972.16,631.221C3976.45,636.471 3981.61,640.627 3987.64,643.69C3993.68,646.752 4000.46,648.284 4007.99,648.284C4011.84,648.284 4015.82,647.802 4019.93,646.84C4024.05,645.877 4027.98,644.39 4031.74,642.377C4035.51,640.365 4038.96,637.74 4042.11,634.502C4045.26,631.265 4047.8,627.284 4049.73,622.559L4084.9,643.296C4082.1,650.121 4077.95,656.246 4072.43,661.671C4066.92,667.096 4060.58,671.646 4053.4,675.321C4046.23,678.996 4038.61,681.796 4030.56,683.721C4022.51,685.646 4014.64,686.609 4006.94,686.609C3993.46,686.609 3981.08,683.852 3969.8,678.34C3958.51,672.827 3948.8,665.521 3940.66,656.421C3932.52,647.321 3926.22,636.996 3921.76,625.446C3917.3,613.896 3915.06,602.171 3915.06,590.271Z" style="fill:white;fill-rule:nonzero;"/>
    </g>
    <g transform="matrix(1,0,0,1,-1243.88,705.629)">
        <path d="M4237.41,647.234L4237.41,685.034L4106.43,685.034L4106.43,498.659L4235.05,498.659L4235.05,536.459L4149.48,536.459L4149.48,572.684L4222.98,572.684L4222.98,607.596L4149.48,607.596L4149.48,647.234L4237.41,647.234Z" style="fill:white;fill-rule:nonzero;"/>
    </g>
    <g transform="matrix(13.5383,0,0,13.5383,-14554.6,-6592.01)">
        <path d="M1160.64,605.342L1159.69,605.342L1159.69,599.237C1159.69,598.729 1159.71,598.249 1159.74,597.795C1159.66,597.877 1159.57,597.963 1159.47,598.053C1159.36,598.143 1158.9,598.524 1158.07,599.196L1157.56,598.528L1159.82,596.776L1160.64,596.776L1160.64,605.342Z" style="fill:rgb(255,252,252);fill-rule:nonzero;"/>
        <path d="M1170.54,603.374L1169.27,603.374L1169.27,605.342L1168.33,605.342L1168.33,603.374L1164.17,603.374L1164.17,602.524L1168.23,596.729L1169.27,596.729L1169.27,602.489L1170.54,602.489L1170.54,603.374ZM1168.33,602.489L1168.33,599.641C1168.33,599.083 1168.35,598.452 1168.39,597.749L1168.35,597.749C1168.16,598.124 1167.98,598.434 1167.82,598.68L1165.14,602.489L1168.33,602.489Z" style="fill:rgb(255,252,252);fill-rule:nonzero;"/>
        <path d="M1181.66,605.342L1180.59,602.618L1177.16,602.618L1176.1,605.342L1175.09,605.342L1178.48,596.741L1179.32,596.741L1182.69,605.342L1181.66,605.342ZM1180.28,601.721L1179.28,599.067C1179.15,598.731 1179.02,598.319 1178.88,597.831C1178.8,598.206 1178.68,598.618 1178.52,599.067L1177.51,601.721L1180.28,601.721Z" style="fill:rgb(255,252,252);fill-rule:nonzero;"/>
        <path d="M1187.31,605.46C1186.89,605.46 1186.51,605.382 1186.16,605.228C1185.82,605.074 1185.53,604.836 1185.29,604.516L1185.22,604.516C1185.27,604.891 1185.29,605.247 1185.29,605.583L1185.29,608.225L1184.32,608.225L1184.32,598.92L1185.11,598.92L1185.25,599.799L1185.29,599.799C1185.54,599.448 1185.83,599.194 1186.16,599.038C1186.5,598.881 1186.88,598.803 1187.31,598.803C1188.16,598.803 1188.82,599.094 1189.28,599.676C1189.74,600.258 1189.97,601.075 1189.97,602.126C1189.97,603.18 1189.74,604 1189.27,604.584C1188.8,605.168 1188.14,605.46 1187.31,605.46ZM1187.17,599.629C1186.51,599.629 1186.04,599.811 1185.74,600.174C1185.45,600.538 1185.3,601.116 1185.29,601.909L1185.29,602.126C1185.29,603.028 1185.44,603.673 1185.74,604.062C1186.04,604.451 1186.53,604.645 1187.19,604.645C1187.75,604.645 1188.18,604.42 1188.49,603.971C1188.81,603.522 1188.96,602.903 1188.96,602.114C1188.96,601.313 1188.81,600.699 1188.49,600.271C1188.18,599.843 1187.74,599.629 1187.17,599.629Z" style="fill:rgb(255,252,252);fill-rule:nonzero;"/>
        <path d="M1195.2,598.803C1195.49,598.803 1195.74,598.827 1195.97,598.874L1195.84,599.776C1195.57,599.717 1195.34,599.688 1195.13,599.688C1194.61,599.688 1194.17,599.899 1193.8,600.321C1193.43,600.743 1193.25,601.268 1193.25,601.897L1193.25,605.342L1192.27,605.342L1192.27,598.92L1193.08,598.92L1193.19,600.11L1193.23,600.11C1193.47,599.692 1193.76,599.37 1194.1,599.143C1194.43,598.917 1194.8,598.803 1195.2,598.803Z" style="fill:rgb(255,252,252);fill-rule:nonzero;"/>
        <path d="M1198.74,605.342L1197.77,605.342L1197.77,598.92L1198.74,598.92L1198.74,605.342ZM1197.69,597.18C1197.69,596.958 1197.74,596.794 1197.85,596.691C1197.96,596.587 1198.1,596.536 1198.26,596.536C1198.42,596.536 1198.55,596.588 1198.67,596.694C1198.78,596.799 1198.84,596.961 1198.84,597.18C1198.84,597.399 1198.78,597.562 1198.67,597.669C1198.55,597.777 1198.42,597.831 1198.26,597.831C1198.1,597.831 1197.96,597.777 1197.85,597.669C1197.74,597.562 1197.69,597.399 1197.69,597.18Z" style="fill:rgb(255,252,252);fill-rule:nonzero;"/>
        <rect x="1201.41" y="596.225" width="0.973" height="9.117" style="fill:rgb(255,252,252);fill-rule:nonzero;"/>
        <path d="M1213.94,605.342L1208.31,605.342L1208.31,604.504L1210.57,602.237C1211.26,601.542 1211.71,601.045 1211.93,600.749C1212.15,600.452 1212.31,600.163 1212.42,599.881C1212.53,599.6 1212.59,599.297 1212.59,598.973C1212.59,598.516 1212.45,598.154 1212.17,597.886C1211.89,597.619 1211.51,597.485 1211.01,597.485C1210.66,597.485 1210.32,597.544 1210,597.661C1209.68,597.778 1209.33,597.991 1208.94,598.299L1208.42,597.637C1209.21,596.981 1210.07,596.653 1211,596.653C1211.81,596.653 1212.44,596.859 1212.89,597.271C1213.35,597.683 1213.58,598.237 1213.58,598.932C1213.58,599.475 1213.43,600.012 1213.12,600.544C1212.82,601.075 1212.25,601.747 1211.41,602.559L1209.54,604.393L1209.54,604.44L1213.94,604.44L1213.94,605.342Z" style="fill:rgb(255,252,252);fill-rule:nonzero;"/>
        <path d="M1221.45,601.047C1221.45,602.528 1221.22,603.633 1220.75,604.364C1220.29,605.094 1219.57,605.46 1218.61,605.46C1217.69,605.46 1216.99,605.085 1216.51,604.337C1216.03,603.589 1215.79,602.493 1215.79,601.047C1215.79,599.555 1216.02,598.448 1216.48,597.725C1216.95,597.002 1217.66,596.641 1218.61,596.641C1219.54,596.641 1220.25,597.018 1220.73,597.772C1221.21,598.526 1221.45,599.618 1221.45,601.047ZM1216.77,601.047C1216.77,602.294 1216.92,603.201 1217.21,603.769C1217.5,604.337 1217.97,604.622 1218.61,604.622C1219.26,604.622 1219.73,604.334 1220.02,603.757C1220.31,603.181 1220.46,602.278 1220.46,601.047C1220.46,599.817 1220.31,598.916 1220.02,598.343C1219.73,597.771 1219.26,597.485 1218.61,597.485C1217.97,597.485 1217.5,597.767 1217.21,598.332C1216.92,598.896 1216.77,599.801 1216.77,601.047Z" style="fill:rgb(255,252,252);fill-rule:nonzero;"/>
        <path d="M1226.84,605.342L1225.89,605.342L1225.89,599.237C1225.89,598.729 1225.91,598.249 1225.94,597.795C1225.86,597.877 1225.76,597.963 1225.66,598.053C1225.56,598.143 1225.1,598.524 1224.27,599.196L1223.75,598.528L1226.02,596.776L1226.84,596.776L1226.84,605.342Z" style="fill:rgb(255,252,252);fill-rule:nonzero;"/>
        <path d="M1233.53,596.653C1234.31,596.653 1234.93,596.835 1235.39,597.198C1235.85,597.561 1236.08,598.063 1236.08,598.704C1236.08,599.126 1235.94,599.51 1235.68,599.858C1235.42,600.206 1235,600.522 1234.43,600.807C1235.12,601.139 1235.62,601.488 1235.91,601.853C1236.2,602.218 1236.35,602.641 1236.35,603.122C1236.35,603.833 1236.1,604.4 1235.61,604.824C1235.11,605.248 1234.43,605.46 1233.57,605.46C1232.65,605.46 1231.95,605.259 1231.46,604.859C1230.97,604.459 1230.72,603.891 1230.72,603.157C1230.72,602.176 1231.32,601.413 1232.51,600.866C1231.97,600.561 1231.59,600.232 1231.35,599.878C1231.12,599.525 1231,599.129 1231,598.692C1231,598.071 1231.23,597.576 1231.69,597.207C1232.15,596.837 1232.76,596.653 1233.53,596.653ZM1231.68,603.18C1231.68,603.649 1231.85,604.014 1232.17,604.276C1232.5,604.538 1232.95,604.669 1233.55,604.669C1234.13,604.669 1234.58,604.532 1234.9,604.258C1235.23,603.985 1235.39,603.61 1235.39,603.133C1235.39,602.754 1235.24,602.418 1234.93,602.123C1234.63,601.828 1234.1,601.542 1233.34,601.264C1232.76,601.514 1232.34,601.791 1232.07,602.093C1231.81,602.396 1231.68,602.758 1231.68,603.18ZM1233.52,597.444C1233.03,597.444 1232.65,597.561 1232.37,597.795C1232.1,598.03 1231.96,598.342 1231.96,598.733C1231.96,599.092 1232.07,599.401 1232.3,599.659C1232.53,599.917 1232.96,600.174 1233.58,600.432C1234.14,600.198 1234.53,599.946 1234.77,599.676C1235,599.407 1235.12,599.092 1235.12,598.733C1235.12,598.338 1234.97,598.025 1234.69,597.793C1234.41,597.56 1234.02,597.444 1233.52,597.444Z" style="fill:rgb(255,252,252);fill-rule:nonzero;"/>
    </g>
    <g transform="matrix(1.39905,0,0,0.446868,-581.602,849.817)">
        <rect x="415.712" y="1574.77" width="759.537" height="35.917" style="fill:white;"/>
    </g>
    <g transform="matrix(1.39905,0,0,0.446868,1656.93,849.817)">
        <rect x="415.712" y="1574.77" width="759.537" height="35.917" style="fill:white;"/>
    </g>
    <g transform="matrix(4.16333,0,0,4.16333,1071.72,-14.3219)">
        <path d="M133.744,256.014L133.744,270.753C100.604,270.753 73.744,212.543 73.744,140.753L85.034,140.753C85.034,204.402 106.844,256.014 133.744,256.014Z" style="fill:rgb(242,95,70);fill-rule:nonzero;"/>
    </g>
    <g transform="matrix(4.16333,0,0,4.16333,1071.72,-14.3219)">
        <path d="M163.766,88.831C225.938,124.726 262.928,177.098 246.358,205.798L233.594,198.428C247.043,175.131 213.243,130.434 158.119,98.608L163.766,88.831Z" style="fill:rgb(50,189,188);fill-rule:nonzero;"/>
    </g>
    <g transform="matrix(4.16333,0,0,4.16333,1071.72,-14.3219)">
        <path d="M220.789,72.725C197.902,63.606 153.465,73.036 109.393,98.48L103.748,88.703C150.852,61.508 198.973,51.661 226.705,60.914C223.51,64.179 221.474,68.333 220.789,72.725" style="fill:white;fill-rule:nonzero;"/>
    </g>
    <g transform="matrix(4.16333,0,0,4.16333,1071.72,-14.3219)">
        <path d="M33.948,198.335L21.183,205.705C4.613,177.005 41.715,124.518 103.886,88.623L109.531,98.399C54.409,130.226 20.498,175.039 33.948,198.335" style="fill:white;fill-rule:nonzero;"/>
    </g>
    <g transform="matrix(4.16333,0,0,4.16333,1071.72,-14.3219)">
        <path d="M163.903,88.911L158.215,98.663C103.084,66.833 47.395,59.867 33.947,83.163L21.19,75.799C37.761,47.098 101.722,53.012 163.903,88.911Z" style="fill:rgb(50,189,188);fill-rule:nonzero;"/>
    </g>
    <g transform="matrix(4.16333,0,0,4.16333,1071.72,-14.3219)">
        <path d="M193.744,140.744C193.744,212.532 166.786,270.754 133.645,270.754L133.645,256.014C160.546,256.014 182.454,204.393 182.454,140.744L193.744,140.744Z" style="fill:rgb(242,95,70);fill-rule:nonzero;"/>
    </g>
    <g transform="matrix(4.16333,0,0,4.16333,1071.72,-14.3219)">
        <path d="M118.423,31.407C99.083,46.667 85.033,90.073 85.033,140.963L73.743,140.963C73.743,86.573 89.273,39.767 111.153,20.377C112.383,24.777 114.963,28.617 118.423,31.407" style="fill:rgb(242,95,70);fill-rule:nonzero;"/>
    </g>
    <g transform="matrix(4.16333,0,0,4.16333,1071.72,-14.3219)">
        <path d="M141.797,3.44C150.081,3.44 156.797,10.156 156.797,18.44C156.797,26.724 150.081,33.44 141.797,33.44C133.513,33.44 126.797,26.724 126.797,18.44C126.797,10.156 133.513,3.44 141.797,3.44" style="fill:rgb(242,95,70);fill-rule:nonzero;"/>
    </g>
    <g transform="matrix(4.16333,0,0,4.16333,1071.72,-14.3219)">
        <path d="M19.43,65.316C23.572,58.143 32.744,55.685 39.917,59.827C47.091,63.968 49.548,73.14 45.407,80.314C41.265,87.487 32.093,89.945 24.92,85.803C17.746,81.662 15.289,72.489 19.43,65.316" style="fill:rgb(50,189,188);fill-rule:nonzero;"/>
    </g>
    <g transform="matrix(4.16333,0,0,4.16333,1071.72,-14.3219)">
        <path d="M256.559,78.48C260.702,85.653 258.244,94.825 251.071,98.966C243.897,103.108 234.723,100.65 230.584,93.477C226.442,86.304 228.899,77.131 236.073,72.99C243.245,68.849 252.417,71.306 256.559,78.48" style="fill:white;fill-rule:nonzero;"/>
    </g>
    <g transform="matrix(4.16333,0,0,4.16333,1071.72,-14.3219)">
        <path d="M163.773,192.661C225.955,156.762 262.919,104.405 246.349,75.704L233.591,83.07C247.04,106.366 213.259,151.053 158.126,182.883L163.773,192.661Z" style="fill:white;fill-rule:nonzero;"/>
    </g>
    <g transform="matrix(4.16333,0,0,4.16333,1071.72,-14.3219)">
        <path d="M193.744,140.982L182.454,140.982C182.454,77.323 160.642,25.482 133.744,25.482L133.744,10.754C166.884,10.754 193.744,69.184 193.744,140.982Z" style="fill:rgb(242,95,70);fill-rule:nonzero;"/>
    </g>
    <g transform="matrix(4.16333,0,0,4.16333,1071.72,-14.3219)">
        <path d="M31.415,99.393C34.96,123.772 65.394,157.439 109.466,182.884L103.821,192.662C56.718,165.466 24.08,128.818 18.228,100.173C22.653,101.308 27.269,100.995 31.415,99.393" style="fill:rgb(50,189,188);fill-rule:nonzero;"/>
    </g>
    <g transform="matrix(4.16333,0,0,4.16333,1071.72,-14.3219)">
        <path d="M233.609,198.344L246.375,205.713C229.805,234.412 165.809,228.447 103.635,192.553L109.28,182.776C164.404,214.602 220.16,221.639 233.609,198.344Z" style="fill:rgb(50,189,188);fill-rule:nonzero;"/>
    </g>
    <g transform="matrix(4.16333,0,0,4.16333,1071.72,-14.3219)">
        <path d="M33.932,198.301L21.166,205.67C37.737,234.37 102.42,228.33 163.939,192.566L158.293,182.788C103.825,214.479 47.382,221.598 33.932,198.301Z" style="fill:white;fill-rule:nonzero;"/>
    </g>
    <g transform="matrix(4.77132,0,0,4.77132,964.123,-119.55)">
        <circle cx="139.649" cy="144.042" r="25.445" style="fill:rgb(65,65,66);"/>
    </g>
    <g transform="matrix(4.16333,0,0,4.16333,1071.72,-14.3219)">
        <path d="M134.07,110.43C117.77,110.43 104.57,123.63 104.57,139.93C104.57,156.231 117.77,169.43 134.07,169.43C150.37,169.43 163.57,156.231 163.57,139.93C163.57,123.63 150.37,110.43 134.07,110.43ZM145.529,158.971C145.4,158.891 144.88,158.77 144.79,158.5C144.59,157.91 144.62,157.26 144.55,156.63C145.51,156.62 146.471,156.6 147.442,156.63C147.471,156.63 147.561,157.061 147.542,157.279C147.471,158.189 146.67,158.93 145.529,158.971ZM155.49,144.471C155.269,144.981 154.969,145.442 154.8,145.971C154.471,147.032 154.04,147.971 153.08,148.52C152.859,148.641 152.76,148.971 152.6,149.21C152.371,149.58 152.13,149.93 151.92,150.32C151.441,151.218 151,152.16 150.49,153.04C150.33,153.311 150.05,153.561 149.779,153.63C148.99,153.85 148.21,153.901 147.48,154.49C147,154.9 146.008,155.04 145.62,154.38C144.75,154.46 144.09,154.58 143.42,154.58C143.05,154.58 142.67,154.309 142.311,154.309C141.321,154.299 140.811,153.93 140.71,152.749C140.68,152.339 140.08,151.939 139.6,151.369C139.6,151.348 139.63,151.058 139.67,150.609C139.26,150.909 138.95,151.129 138.63,151.369C138.58,151.329 138.52,151.289 138.471,151.249C138.66,150.6 138.85,149.959 139.02,149.369C138.401,149.879 137.662,150.478 136.92,151.089C136.51,150.401 136.14,149.889 135.87,149.329C135.12,147.789 133.59,147.767 132.5,147.629C131.49,147.51 130.21,147.129 129.15,147.988C128.64,148.388 127.68,148.109 126.99,148.359C126.26,148.609 125.45,148.959 124.95,149.539C124.29,150.318 123.48,150.379 122.76,150.089C121.73,149.68 120.97,149.949 120.22,150.499C119.1,151.329 117.87,151.109 116.63,150.669C116.13,150.481 115.81,150.169 115.95,149.419C116.13,148.449 116.01,147.44 115.1,146.738C115.05,146.689 114.99,146.659 114.96,146.597C114.15,145.058 113.33,143.529 112.55,141.968C112.47,141.797 112.67,141.497 112.63,141.267C112.58,140.877 112.54,140.377 112.31,140.159C110.87,138.749 112.05,137.209 111.5,135.769C111.6,135.749 111.71,135.719 111.81,135.699C111.94,135.849 112.06,136.019 112.21,136.179C112.52,135.869 112.8,135.519 113.14,135.249C113.82,134.719 114.32,133.839 115.45,134.179C115.77,134.279 116.18,133.879 116.56,133.769C117.08,133.619 117.6,133.489 118.14,133.439C119.05,133.349 120.54,131.639 120.44,130.599C120.36,129.699 120.8,129.279 121.36,128.849C121.59,129.219 121.79,129.539 121.99,129.859C122.06,129.839 122.13,129.819 122.2,129.809C122.22,129.399 122.25,128.989 122.28,128.509C122.52,128.459 122.78,128.399 123.02,128.339C123.04,128.269 123.05,128.229 123.05,128.199C123.14,126.589 124.5,126.299 125.42,125.569C126.08,125.049 126.58,125.519 127.17,126.019C127.68,126.459 128.39,126.629 128.84,126.839C129.28,125.769 129.47,124.629 130.1,123.999C130.76,123.359 131.84,123.209 132.82,122.789C132.54,122.419 132.35,122.159 132.16,121.909C132.18,121.839 132.21,121.769 132.24,121.709C132.88,121.919 133.51,122.209 134.16,122.349C135.23,122.589 136.32,122.729 137.389,122.949C137.65,122.999 137.98,123.139 138.089,123.349C138.19,123.539 138.11,123.909 137.999,124.139C137.609,124.989 137.179,125.819 136.709,126.769C137.219,127.129 137.639,127.569 138.129,127.749C139.15,128.119 139.829,129.319 141.009,129.289C141.079,129.289 141.18,129.479 141.238,129.599C141.879,130.729 143.249,130.459 143.478,129.359C143.718,128.269 143.738,127.119 143.898,125.999C144.058,124.859 144.238,123.719 144.499,122.599C144.609,122.119 144.919,121.709 145.139,121.269C145.401,121.739 145.719,122.189 145.91,122.689C146.13,123.289 146.349,123.939 146.389,124.569C146.44,125.419 146.741,125.939 147.539,126.069C148.18,126.189 148.439,126.529 148.478,127.269C148.507,127.889 148.767,128.509 148.939,129.139C149.087,129.659 149.418,130.189 149.409,130.699C149.388,131.72 149.847,132.359 150.638,132.689C151.859,133.209 152.377,134.219 152.739,135.439C152.779,135.559 152.779,135.789 152.847,135.819C154.257,136.449 154.199,138.35 155.417,139.199C155.718,139.419 155.847,140.159 155.867,140.648C155.907,141.659 155.827,142.669 155.757,143.677C155.74,143.95 155.609,144.221 155.49,144.471Z" style="fill:white;fill-rule:nonzero;"/>
    </g>
    <g transform="matrix(4.16333,0,0,4.16333,1071.72,-14.3219)">
        <path d="M33.761,198.003L34.117,198.614L21.436,206.126L20.918,205.236L33.761,198.003Z" style="fill:white;fill-rule:nonzero;"/>
    </g>
    <g transform="matrix(4.16333,0,0,4.16333,1071.72,-14.3219)">
        <path d="M133,270.743L134.469,270.742L134.751,255.984L133.734,256.014L133.645,256.014L133,255.984L133,270.743Z" style="fill:rgb(242,95,70);fill-rule:nonzero;"/>
    </g>
    <g transform="matrix(4.16333,0,0,4.16333,1071.72,-14.3219)">
        <path d="M233.799,198.063L233.42,198.665L246.083,206.206L246.649,205.279L233.799,198.063Z" style="fill:rgb(50,189,188);fill-rule:nonzero;"/>
    </g>
    <g transform="matrix(4.16333,0,0,4.16333,1071.72,-14.3219)">
        <path d="M108.553,182.354L110.057,183.223L104.756,193.197L102.75,192.041L108.553,182.354Z" style="fill:rgb(50,189,188);fill-rule:nonzero;"/>
    </g>
    <g transform="matrix(4.16333,0,0,4.16333,1071.72,-14.3219)">
        <path d="M157.274,183.377L159.07,182.336L165.094,191.895L162.509,193.392L157.274,183.377Z" style="fill:white;fill-rule:nonzero;"/>
    </g>
    <g transform="matrix(4.16333,0,0,4.16333,1071.72,-14.3219)">
        <path d="M182.453,140.203L182.453,141.476L193.742,141.812L193.741,139.703L182.453,140.203Z" style="fill:rgb(242,95,70);fill-rule:nonzero;"/>
    </g>
    <g transform="matrix(4.16333,0,0,4.16333,1071.72,-14.3219)">
        <path d="M73.746,139.792L73.746,141.708L85.037,142.083L85.036,139.833L73.746,139.792Z" style="fill:rgb(242,95,70);fill-rule:nonzero;"/>
    </g>
    <g transform="matrix(4.16333,0,0,4.16333,1071.72,-14.3219)">
        <path d="M104.85,88.07L102.875,89.209L107.968,99.308L110.604,97.785L104.85,88.07Z" style="fill:white;fill-rule:nonzero;"/>
    </g>
    <g transform="matrix(4.16333,0,0,4.16333,1071.72,-14.3219)">
        <path d="M162.912,88.341L164.676,89.359L159.373,99.336L156.917,97.917L162.912,88.341Z" style="fill:rgb(50,189,188);fill-rule:nonzero;"/>
    </g>
</svg>
