<?xml version="1.0" encoding="UTF-8" standalone="no"?>
<svg width="3302px" height="1651px" viewBox="0 0 3302 1651" version="1.1" xmlns="http://www.w3.org/2000/svg" xmlns:xlink="http://www.w3.org/1999/xlink" xmlns:sketch="http://www.bohemiancoding.com/sketch/ns">
    <!-- Generator: Sketch 3.2.2 (9983) - http://www.bohemiancoding.com/sketch -->
    <title>logo-dark</title>
    <desc>Created with Sketch.</desc>
    <defs></defs>
    <g id="Page-1" stroke="none" stroke-width="1" fill="none" fill-rule="evenodd" sketch:type="MSPage">
        <g id="logo-dark" sketch:type="MSLayerGroup" transform="translate(-1.000000, -2.000000)">
            <g id="Group" transform="translate(308.120000, 1204.629000)" fill="#414142" sketch:type="MSShapeGroup">
                <path d="M147.51,188.034 L147.51,76.471 L107.09,157.584 L83.99,157.584 L43.56,76.471 L43.56,188.034 L0.51,188.034 L0.51,1.659 L47.24,1.659 L95.54,99.046 L144.1,1.659 L190.56,1.659 L190.56,188.034 L147.51,188.034 L147.51,188.034 Z" id="Shape"></path>
                <path d="M276.93,1.659 L315.78,1.659 L383.76,188.034 L339.66,188.034 L325.23,146.296 L267.21,146.296 L253.04,188.034 L208.94,188.034 L276.93,1.659 L276.93,1.659 Z M318.14,116.634 L296.35,50.746 L274.04,116.634 L318.14,116.634 L318.14,116.634 Z" id="Shape"></path>
                <path d="M402.14,188.034 L402.14,1.659 L486.14,1.659 C494.89,1.659 502.98,3.496 510.42,7.171 C517.86,10.846 524.29,15.659 529.71,21.609 C535.14,27.559 539.38,34.296 542.45,41.821 C545.51,49.346 547.04,56.959 547.04,64.659 C547.04,70.434 546.34,75.99 544.94,81.327 C543.54,86.665 541.53,91.696 538.9,96.421 C536.28,101.146 533.08,105.39 529.32,109.152 C525.56,112.915 521.31,116.109 516.59,118.734 L557.54,188.034 L508.98,188.034 L473.28,127.921 L445.19,127.921 L445.19,188.034 L402.14,188.034 L402.14,188.034 Z M445.19,90.384 L484.56,90.384 C489.64,90.384 494.01,87.977 497.69,83.165 C501.36,78.352 503.2,72.184 503.2,64.659 C503.2,56.959 501.1,50.834 496.9,46.284 C492.7,41.734 488.15,39.459 483.25,39.459 L445.19,39.459 L445.19,90.384 L445.19,90.384 Z" id="Shape"></path>
                <path d="M567.25,93.271 C567.25,82.071 569.35,70.915 573.55,59.802 C577.75,48.69 583.88,38.759 591.93,30.009 C599.98,21.259 609.78,14.171 621.33,8.746 C632.88,3.321 646,0.609 660.7,0.609 C678.2,0.609 693.38,4.371 706.24,11.896 C719.11,19.421 728.69,29.221 734.99,41.296 L701.91,64.396 C699.81,59.496 697.14,55.427 693.91,52.19 C690.67,48.952 687.13,46.327 683.28,44.315 C679.43,42.302 675.49,40.902 671.46,40.115 C667.44,39.327 663.5,38.934 659.65,38.934 C651.43,38.934 644.25,40.596 638.13,43.921 C632,47.246 626.93,51.534 622.9,56.784 C618.88,62.034 615.9,67.984 613.98,74.634 C612.05,81.284 611.09,88.021 611.09,94.846 C611.09,102.196 612.23,109.284 614.5,116.109 C616.78,122.934 620.06,128.971 624.35,134.221 C628.63,139.471 633.8,143.627 639.83,146.69 C645.87,149.752 652.65,151.284 660.18,151.284 C664.03,151.284 668.01,150.802 672.12,149.84 C676.23,148.877 680.17,147.39 683.93,145.377 C687.7,143.365 691.15,140.74 694.3,137.502 C697.45,134.265 699.99,130.284 701.91,125.559 L737.09,146.296 C734.29,153.121 730.13,159.246 724.62,164.671 C719.11,170.096 712.76,174.646 705.59,178.321 C698.41,181.996 690.8,184.796 682.75,186.721 C674.7,188.646 666.83,189.609 659.13,189.609 C645.65,189.609 633.27,186.852 621.98,181.34 C610.7,175.827 600.98,168.521 592.85,159.421 C584.71,150.321 578.41,139.996 573.95,128.446 C569.48,116.896 567.25,105.171 567.25,93.271 L567.25,93.271 Z" id="Shape"></path>
                <path d="M919,1.659 L919,188.034 L875.95,188.034 L875.95,111.646 L801.66,111.646 L801.66,188.034 L758.61,188.034 L758.61,1.659 L801.66,1.659 L801.66,73.846 L875.95,73.846 L875.95,1.659 L919,1.659 L919,1.659 Z" id="Shape"></path>
                <path d="M1015.86,188.034 L1015.86,1.659 L1142.39,1.659 L1142.39,39.459 L1058.91,39.459 L1058.91,79.621 L1127.69,79.621 L1127.69,114.534 L1058.91,114.534 L1058.91,188.034 L1015.86,188.034 L1015.86,188.034 Z" id="Shape"></path>
                <path d="M1242.66,189.609 C1228.84,189.609 1216.24,186.896 1204.86,181.471 C1193.49,176.046 1183.78,168.915 1175.73,160.077 C1167.68,151.24 1161.42,141.134 1156.96,129.759 C1152.49,118.384 1150.26,106.659 1150.26,94.584 C1150.26,82.334 1152.58,70.521 1157.22,59.146 C1161.86,47.771 1168.33,37.752 1176.64,29.09 C1184.96,20.427 1194.8,13.515 1206.18,8.352 C1217.55,3.19 1229.98,0.609 1243.45,0.609 C1257.28,0.609 1269.88,3.321 1281.25,8.746 C1292.63,14.171 1302.34,21.346 1310.39,30.271 C1318.44,39.196 1324.65,49.346 1329.03,60.721 C1333.4,72.096 1335.59,83.646 1335.59,95.371 C1335.59,107.621 1333.27,119.434 1328.63,130.809 C1323.99,142.184 1317.56,152.202 1309.34,160.865 C1301.11,169.527 1291.31,176.484 1279.94,181.734 C1268.56,186.984 1256.14,189.609 1242.66,189.609 L1242.66,189.609 Z M1194.1,95.109 C1194.1,102.284 1195.15,109.24 1197.25,115.977 C1199.35,122.715 1202.46,128.709 1206.57,133.959 C1210.68,139.209 1215.8,143.409 1221.93,146.559 C1228.05,149.709 1235.05,151.284 1242.93,151.284 C1251.15,151.284 1258.33,149.621 1264.45,146.296 C1270.58,142.971 1275.65,138.64 1279.68,133.302 C1283.7,127.965 1286.72,121.927 1288.73,115.19 C1290.74,108.452 1291.75,101.584 1291.75,94.584 C1291.75,87.409 1290.7,80.452 1288.6,73.715 C1286.5,66.977 1283.35,61.027 1279.15,55.865 C1274.95,50.702 1269.83,46.59 1263.8,43.527 C1257.76,40.465 1250.8,38.934 1242.93,38.934 C1234.7,38.934 1227.57,40.552 1221.53,43.79 C1215.49,47.027 1210.42,51.271 1206.31,56.521 C1202.2,61.771 1199.13,67.765 1197.12,74.502 C1195.11,81.24 1194.1,88.109 1194.1,95.109 L1194.1,95.109 Z" id="Shape"></path>
                <path d="M1360.53,188.034 L1360.53,1.659 L1444.53,1.659 C1453.28,1.659 1461.37,3.496 1468.81,7.171 C1476.24,10.846 1482.68,15.659 1488.1,21.609 C1493.53,27.559 1497.77,34.296 1500.83,41.821 C1503.89,49.346 1505.43,56.959 1505.43,64.659 C1505.43,70.434 1504.73,75.99 1503.33,81.327 C1501.93,86.665 1499.91,91.696 1497.29,96.421 C1494.66,101.146 1491.47,105.39 1487.71,109.152 C1483.95,112.915 1479.7,116.109 1474.98,118.734 L1515.93,188.034 L1467.36,188.034 L1431.66,127.921 L1403.58,127.921 L1403.58,188.034 L1360.53,188.034 L1360.53,188.034 Z M1403.58,90.384 L1442.95,90.384 C1448.03,90.384 1452.4,87.977 1456.08,83.165 C1459.75,78.352 1461.59,72.184 1461.59,64.659 C1461.59,56.959 1459.49,50.834 1455.29,46.284 C1451.09,41.734 1446.54,39.459 1441.64,39.459 L1403.58,39.459 L1403.58,90.384 L1403.58,90.384 Z" id="Shape"></path>
                <path d="M1709.39,56.259 C1708.86,55.559 1707.03,54.246 1703.88,52.321 C1700.73,50.396 1696.79,48.384 1692.06,46.284 C1687.34,44.184 1682.18,42.346 1676.58,40.771 C1670.98,39.196 1665.38,38.409 1659.78,38.409 C1644.38,38.409 1636.68,43.571 1636.68,53.896 C1636.68,57.046 1637.51,59.671 1639.17,61.771 C1640.83,63.871 1643.28,65.752 1646.52,67.415 C1649.76,69.077 1653.83,70.609 1658.73,72.009 C1663.63,73.409 1669.31,74.984 1675.79,76.734 C1684.71,79.184 1692.76,81.852 1699.94,84.74 C1707.11,87.627 1713.2,91.215 1718.18,95.502 C1723.17,99.79 1727.02,104.996 1729.73,111.121 C1732.45,117.246 1733.8,124.596 1733.8,133.171 C1733.8,143.671 1731.83,152.552 1727.89,159.815 C1723.96,167.077 1718.75,172.94 1712.28,177.402 C1705.8,181.865 1698.36,185.102 1689.96,187.115 C1681.56,189.127 1672.9,190.134 1663.98,190.134 C1657.15,190.134 1650.15,189.609 1642.98,188.559 C1635.8,187.509 1628.8,185.977 1621.98,183.965 C1615.15,181.952 1608.55,179.546 1602.16,176.746 C1595.77,173.946 1589.86,170.709 1584.44,167.034 L1603.34,129.496 C1604.04,130.371 1606.31,132.034 1610.16,134.484 C1614.01,136.934 1618.78,139.384 1624.47,141.834 C1630.16,144.284 1636.5,146.471 1643.5,148.396 C1650.5,150.321 1657.59,151.284 1664.76,151.284 C1679.99,151.284 1687.6,146.646 1687.6,137.371 C1687.6,133.871 1686.46,130.984 1684.19,128.709 C1681.91,126.434 1678.76,124.377 1674.74,122.54 C1670.71,120.702 1665.95,118.996 1660.43,117.421 C1654.92,115.846 1648.93,114.096 1642.45,112.171 C1633.88,109.546 1626.44,106.702 1620.14,103.64 C1613.84,100.577 1608.63,97.034 1604.52,93.009 C1600.41,88.984 1597.35,84.346 1595.33,79.096 C1593.32,73.846 1592.31,67.721 1592.31,60.721 C1592.31,50.921 1594.15,42.259 1597.83,34.734 C1601.5,27.209 1606.49,20.865 1612.79,15.702 C1619.09,10.54 1626.39,6.646 1634.71,4.021 C1643.02,1.396 1651.81,0.084 1661.09,0.084 C1667.56,0.084 1673.95,0.696 1680.25,1.921 C1686.55,3.146 1692.59,4.721 1698.36,6.646 C1704.14,8.571 1709.52,10.759 1714.51,13.209 C1719.49,15.659 1724.09,18.109 1728.29,20.559 L1709.39,56.259 L1709.39,56.259 Z" id="Shape"></path>
                <path d="M1748.24,93.271 C1748.24,82.071 1750.34,70.915 1754.54,59.802 C1758.74,48.69 1764.86,38.759 1772.91,30.009 C1780.96,21.259 1790.76,14.171 1802.31,8.746 C1813.86,3.321 1826.99,0.609 1841.69,0.609 C1859.19,0.609 1874.37,4.371 1887.23,11.896 C1900.1,19.421 1909.68,29.221 1915.98,41.296 L1882.9,64.396 C1880.8,59.496 1878.13,55.427 1874.89,52.19 C1871.66,48.952 1868.11,46.327 1864.26,44.315 C1860.41,42.302 1856.48,40.902 1852.45,40.115 C1848.43,39.327 1844.49,38.934 1840.64,38.934 C1832.41,38.934 1825.24,40.596 1819.11,43.921 C1812.99,47.246 1807.91,51.534 1803.89,56.784 C1799.86,62.034 1796.89,67.984 1794.96,74.634 C1793.04,81.284 1792.08,88.021 1792.08,94.846 C1792.08,102.196 1793.21,109.284 1795.49,116.109 C1797.76,122.934 1801.05,128.971 1805.33,134.221 C1809.62,139.471 1814.78,143.627 1820.82,146.69 C1826.86,149.752 1833.64,151.284 1841.16,151.284 C1845.01,151.284 1848.99,150.802 1853.11,149.84 C1857.22,148.877 1861.16,147.39 1864.92,145.377 C1868.68,143.365 1872.14,140.74 1875.29,137.502 C1878.44,134.265 1880.98,130.284 1882.9,125.559 L1918.08,146.296 C1915.28,153.121 1911.12,159.246 1905.61,164.671 C1900.1,170.096 1893.75,174.646 1886.58,178.321 C1879.4,181.996 1871.79,184.796 1863.74,186.721 C1855.69,188.646 1847.81,189.609 1840.11,189.609 C1826.64,189.609 1814.26,186.852 1802.97,181.34 C1791.68,175.827 1781.97,168.521 1773.83,159.421 C1765.7,150.321 1759.39,139.996 1754.93,128.446 C1750.47,116.896 1748.24,105.171 1748.24,93.271 L1748.24,93.271 Z" id="Shape"></path>
                <rect id="Rectangle-path" x="1939.6" y="1.659" width="43.05" height="186.375"></rect>
                <path d="M2149.34,150.234 L2149.34,188.034 L2018.35,188.034 L2018.35,1.659 L2146.98,1.659 L2146.98,39.459 L2061.4,39.459 L2061.4,75.684 L2134.9,75.684 L2134.9,110.596 L2061.4,110.596 L2061.4,150.234 L2149.34,150.234 L2149.34,150.234 Z" id="Shape"></path>
                <path d="M2218.64,81.459 L2218.64,188.034 L2175.59,188.034 L2175.59,1.659 L2209.19,1.659 L2296.08,111.121 L2296.08,1.659 L2339.13,1.659 L2339.13,188.034 L2304.48,188.034 L2218.64,81.459 L2218.64,81.459 Z" id="Shape"></path>
                <path d="M2364.06,93.271 C2364.06,82.071 2366.16,70.915 2370.36,59.802 C2374.56,48.69 2380.69,38.759 2388.74,30.009 C2396.79,21.259 2406.59,14.171 2418.14,8.746 C2429.69,3.321 2442.81,0.609 2457.51,0.609 C2475.01,0.609 2490.2,4.371 2503.06,11.896 C2515.92,19.421 2525.5,29.221 2531.8,41.296 L2498.73,64.396 C2496.63,59.496 2493.96,55.427 2490.72,52.19 C2487.48,48.952 2483.94,46.327 2480.09,44.315 C2476.24,42.302 2472.3,40.902 2468.28,40.115 C2464.25,39.327 2460.31,38.934 2456.46,38.934 C2448.24,38.934 2441.06,40.596 2434.94,43.921 C2428.81,47.246 2423.74,51.534 2419.71,56.784 C2415.69,62.034 2412.71,67.984 2410.79,74.634 C2408.86,81.284 2407.9,88.021 2407.9,94.846 C2407.9,102.196 2409.04,109.284 2411.31,116.109 C2413.59,122.934 2416.87,128.971 2421.16,134.221 C2425.45,139.471 2430.61,143.627 2436.64,146.69 C2442.68,149.752 2449.46,151.284 2456.99,151.284 C2460.84,151.284 2464.82,150.802 2468.93,149.84 C2473.05,148.877 2476.98,147.39 2480.74,145.377 C2484.51,143.365 2487.96,140.74 2491.11,137.502 C2494.26,134.265 2496.8,130.284 2498.73,125.559 L2533.9,146.296 C2531.1,153.121 2526.95,159.246 2521.43,164.671 C2515.92,170.096 2509.58,174.646 2502.4,178.321 C2495.23,181.996 2487.61,184.796 2479.56,186.721 C2471.51,188.646 2463.64,189.609 2455.94,189.609 C2442.46,189.609 2430.08,186.852 2418.8,181.34 C2407.51,175.827 2397.8,168.521 2389.66,159.421 C2381.52,150.321 2375.22,139.996 2370.76,128.446 C2366.3,116.896 2364.06,105.171 2364.06,93.271 L2364.06,93.271 Z" id="Shape"></path>
                <path d="M2686.41,150.234 L2686.41,188.034 L2555.43,188.034 L2555.43,1.659 L2684.05,1.659 L2684.05,39.459 L2598.48,39.459 L2598.48,75.684 L2671.98,75.684 L2671.98,110.596 L2598.48,110.596 L2598.48,150.234 L2686.41,150.234 L2686.41,150.234 Z" id="Shape"></path>
            </g>
            <g id="Group" transform="translate(1130.286000, 1493.910300)" fill="#414142" sketch:type="MSShapeGroup">
                <path d="M74.7,120.97 L0.4,120.97 L0.4,109.91 L30.17,79.99 C39.24,70.82 45.22,64.27 48.1,60.35 C50.99,56.44 53.15,52.62 54.6,48.91 C56.04,45.2 56.76,41.21 56.76,36.93 C56.76,30.9 54.93,26.12 51.27,22.59 C47.61,19.06 42.54,17.29 36.04,17.29 C31.35,17.29 26.91,18.07 22.71,19.61 C18.51,21.16 13.83,23.97 8.67,28.04 L1.87,19.3 C12.28,10.64 23.62,6.31 35.89,6.31 C46.51,6.31 54.83,9.03 60.86,14.47 C66.89,19.91 69.9,27.21 69.9,36.39 C69.9,43.55 67.89,50.64 63.88,57.65 C59.86,64.66 52.33,73.52 41.3,84.24 L16.56,108.44 L16.56,109.06 L74.7,109.06 L74.7,120.97 L74.7,120.97 Z" id="Shape"></path>
                <path d="M173.15,120.97 L98.85,120.97 L98.85,109.91 L128.62,79.99 C137.69,70.82 143.66,64.27 146.55,60.35 C149.44,56.44 151.6,52.62 153.05,48.91 C154.49,45.2 155.21,41.21 155.21,36.93 C155.21,30.9 153.38,26.12 149.72,22.59 C146.06,19.06 140.99,17.29 134.49,17.29 C129.8,17.29 125.36,18.07 121.15,19.61 C116.95,21.16 112.28,23.97 107.12,28.04 L100.32,19.3 C110.73,10.64 122.07,6.31 134.34,6.31 C144.95,6.31 153.28,9.03 159.31,14.47 C165.34,19.91 168.35,27.21 168.35,36.39 C168.35,43.55 166.34,50.64 162.32,57.65 C158.3,64.66 150.78,73.52 139.75,84.24 L115.01,108.44 L115.01,109.06 L173.15,109.06 L173.15,120.97 L173.15,120.97 Z" id="Shape"></path>
                <path d="M325.2,120.97 L311.13,85.02 L265.83,85.02 L251.91,120.97 L238.61,120.97 L283.3,7.47 L294.36,7.47 L338.81,120.97 L325.2,120.97 L325.2,120.97 Z M307.03,73.19 L293.89,38.17 C292.19,33.73 290.44,28.3 288.63,21.85 C287.5,26.8 285.88,32.24 283.76,38.17 L270.47,73.19 L307.03,73.19 L307.03,73.19 Z" id="Shape"></path>
                <path d="M399.76,122.51 C394.25,122.51 389.21,121.49 384.65,119.46 C380.09,117.42 376.26,114.29 373.17,110.07 L372.24,110.07 C372.86,115.01 373.17,119.7 373.17,124.14 L373.17,159 L360.33,159 L360.33,36.23 L370.77,36.23 L372.55,47.83 L373.17,47.83 C376.47,43.19 380.31,39.84 384.69,37.78 C389.07,35.72 394.09,34.69 399.76,34.69 C411,34.69 419.67,38.53 425.78,46.21 C431.88,53.88 434.94,64.66 434.94,78.52 C434.94,92.44 431.83,103.25 425.62,110.95 C419.41,118.66 410.79,122.51 399.76,122.51 L399.76,122.51 Z M397.91,45.59 C389.25,45.59 382.99,47.98 379.12,52.78 C375.25,57.57 373.27,65.2 373.17,75.66 L373.17,78.52 C373.17,90.43 375.15,98.94 379.12,104.07 C383.09,109.2 389.45,111.77 398.22,111.77 C405.53,111.77 411.27,108.8 415.42,102.88 C419.57,96.95 421.64,88.78 421.64,78.37 C421.64,67.8 419.57,59.7 415.42,54.05 C411.27,48.41 405.43,45.59 397.91,45.59 L397.91,45.59 Z" id="Shape"></path>
                <path d="M503.93,34.69 C507.69,34.69 511.07,35 514.06,35.61 L512.28,47.52 C508.78,46.75 505.68,46.36 503,46.36 C496.15,46.36 490.29,49.14 485.41,54.71 C480.54,60.28 478.11,67.21 478.11,75.51 L478.11,120.97 L465.28,120.97 L465.28,36.23 L475.87,36.23 L477.34,51.93 L477.95,51.93 C481.1,46.41 484.89,42.16 489.32,39.17 C493.75,36.18 498.62,34.69 503.93,34.69 L503.93,34.69 Z" id="Shape"></path>
                <path d="M550.66,120.97 L537.82,120.97 L537.82,36.23 L550.66,36.23 L550.66,120.97 L550.66,120.97 Z M536.74,13.27 C536.74,10.33 537.46,8.18 538.91,6.82 C540.35,5.45 542.15,4.77 544.32,4.77 C546.38,4.77 548.16,5.46 549.65,6.85 C551.15,8.25 551.89,10.38 551.89,13.27 C551.89,16.16 551.15,18.31 549.65,19.73 C548.16,21.14 546.38,21.85 544.32,21.85 C542.15,21.85 540.35,21.14 538.91,19.73 C537.46,18.31 536.74,16.16 536.74,13.27 L536.74,13.27 Z" id="Shape"></path>
                <rect id="Rectangle-path" x="585.79" y="0.67" width="12.834" height="120.296"></rect>
                <path d="M751.22,120.97 L676.92,120.97 L676.92,109.91 L706.69,79.99 C715.76,70.82 721.74,64.27 724.62,60.35 C727.51,56.44 729.67,52.62 731.12,48.91 C732.56,45.2 733.28,41.21 733.28,36.93 C733.28,30.9 731.45,26.12 727.79,22.59 C724.13,19.06 719.06,17.29 712.56,17.29 C707.87,17.29 703.43,18.07 699.23,19.61 C695.03,21.16 690.35,23.97 685.19,28.04 L678.39,19.3 C688.8,10.64 700.14,6.31 712.41,6.31 C723.03,6.31 731.35,9.03 737.38,14.47 C743.41,19.91 746.43,27.21 746.43,36.39 C746.43,43.55 744.41,50.64 740.39,57.65 C736.37,64.66 728.85,73.52 717.82,84.24 L693.08,108.44 L693.08,109.06 L751.22,109.06 L751.22,120.97 L751.22,120.97 Z" id="Shape"></path>
                <path d="M850.28,64.3 C850.28,83.83 847.2,98.42 841.05,108.06 C834.89,117.69 825.47,122.51 812.79,122.51 C800.62,122.51 791.37,117.58 785.03,107.71 C778.69,97.84 775.53,83.37 775.53,64.3 C775.53,44.61 778.59,30 784.72,20.46 C790.86,10.93 800.21,6.16 812.79,6.16 C825.05,6.16 834.37,11.13 840.74,21.08 C847.1,31.03 850.28,45.43 850.28,64.3 L850.28,64.3 Z M788.51,64.3 C788.51,80.74 790.45,92.71 794.31,100.21 C798.18,107.71 804.34,111.46 812.79,111.46 C821.34,111.46 827.54,107.65 831.38,100.05 C835.22,92.45 837.14,80.53 837.14,64.3 C837.14,48.06 835.22,36.17 831.38,28.62 C827.54,21.07 821.34,17.29 812.79,17.29 C804.34,17.29 798.18,21.02 794.31,28.46 C790.45,35.91 788.51,47.86 788.51,64.3 L788.51,64.3 Z" id="Shape"></path>
                <path d="M921.37,120.97 L908.84,120.97 L908.84,40.41 C908.84,33.71 909.05,27.37 909.46,21.39 C908.38,22.47 907.16,23.61 905.83,24.79 C904.49,25.98 898.35,31 887.43,39.87 L880.62,31.05 L910.54,7.94 L921.37,7.94 L921.37,120.97 L921.37,120.97 Z" id="Shape"></path>
                <path d="M986.57,120.97 L1033.42,19.77 L971.8,19.77 L971.8,7.94 L1047.03,7.94 L1047.03,18.22 L1000.79,120.97 L986.57,120.97 L986.57,120.97 Z" id="Shape"></path>
            </g>
            <g id="Group" transform="translate(0.001750, 1555.187232)" fill="#414142" sketch:type="MSShapeGroup">
                <rect id="Rectangle-path" x="0.9961236" y="0.34408836" width="1062.63024" height="16.050158"></rect>
            </g>
            <g id="Group" transform="translate(2238.535750, 1555.187232)" fill="#414142" sketch:type="MSShapeGroup">
                <rect id="Rectangle-path" x="0.9961236" y="0.34408836" width="1062.63024" height="16.050158"></rect>
            </g>
            <g id="Group" transform="translate(1379.643090, 573.544300)" fill="#F25F46" sketch:type="MSShapeGroup">
                <path d="M249.897318,480.004567 L249.897318,541.367887 C111.924561,541.367887 0.09751752,299.020448 0.09751752,0.13498749 L47.1015132,0.13498749 C47.1015132,265.126779 137.903741,480.004567 249.897318,480.004567 L249.897318,480.004567 Z" id="Shape"></path>
            </g>
            <g id="Group" transform="translate(1730.526140, 354.051140)" fill="#32BDBC" sketch:type="MSShapeGroup">
                <path d="M24.0057608,3.45972723 C282.848314,152.902458 436.84989,370.944376 367.863512,490.431947 L314.722768,459.748205 C370.715393,362.755106 229.994839,176.666745 0.49543627,44.1646046 L24.0057608,3.45972723 L24.0057608,3.45972723 Z" id="Shape"></path>
            </g>
            <g id="Group" transform="translate(1501.542990, 224.987910)" fill="#00507F" sketch:type="MSShapeGroup">
                <path d="M490.394477,65.4683642 C395.108344,27.502958 210.102448,66.7631599 26.6161687,172.694928 L3.11417084,131.990051 C199.223667,18.7682916 399.56727,-22.2280189 515.024738,16.2952736 C501.722898,29.8885461 493.246358,47.1830189 490.394477,65.4683642" id="Shape"></path>
            </g>
            <g id="Group" transform="translate(1143.496610, 354.051140)" fill="#00507F" sketch:type="MSShapeGroup">
                <path d="M70.5601168,459.361016 L17.4152094,490.044758 C-51.5711687,370.557187 102.896701,152.036485 361.73509,2.59375459 L385.237088,43.2944687 C155.746012,175.800773 14.5633283,362.37208 70.5601168,459.361016" id="Shape"></path>
            </g>
            <g id="Group" transform="translate(1160.149930, 224.987910)" fill="#32BDBC" sketch:type="MSShapeGroup">
                <path d="M594.952347,132.856024 L571.271326,173.456818 C341.74278,40.9380239 109.891095,11.9362671 53.9026335,108.925203 L0.7910327,78.2664407 C69.7815741,-41.2252937 336.072324,-16.60336 594.952347,132.856024 L594.952347,132.856024 Z" id="Shape"></path>
            </g>
            <g id="Group" transform="translate(1626.442890, 570.544300)" fill="#F25F46" sketch:type="MSShapeGroup">
                <path d="M252.897318,3.09751752 C252.897318,301.974652 140.662267,544.372051 2.68534785,544.372051 L2.68534785,483.004567 C114.683088,483.004567 205.893322,268.089309 205.893322,3.09751752 L252.897318,3.09751752 L252.897318,3.09751752 Z" id="Shape"></path>
            </g>
            <g id="Group" transform="translate(1376.643090, 70.944700)" fill="#F25F46" sketch:type="MSShapeGroup">
                <path d="M189.110939,47.4911053 C108.592136,111.023521 50.0973499,291.737023 50.0973499,503.608887 L3.09335419,503.608887 C3.09335419,277.165368 67.7498691,82.2965441 158.843529,1.56957541 C163.964425,19.8882274 174.705817,35.8754146 189.110939,47.4911053" id="Shape"></path>
            </g>
            <g id="Group" transform="translate(1597.299580, 0.168090)" fill="#F25F46" sketch:type="MSShapeGroup">
                <path d="M65.768124,1.8318652 C100.25715,1.8318652 128.218074,29.7927895 128.218074,64.2818152 C128.218074,98.7708409 100.25715,126.731765 65.768124,126.731765 C31.2790983,126.731765 3.31817401,98.7708409 3.31817401,64.2818152 C3.31817401,29.7927895 31.2790983,1.8318652 65.768124,1.8318652" id="Shape"></path>
            </g>
            <g id="Group" transform="translate(1143.496610, 224.987910)" fill="#32BDBC" sketch:type="MSShapeGroup">
                <path d="M10.1168919,34.6222523 C27.3614048,4.75868619 65.5474675,-5.47477895 95.4110336,11.7697339 C125.278763,29.0100834 135.508065,67.1961462 118.267715,97.0638756 C101.023202,126.927442 62.8371397,137.160907 32.9735736,119.916394 C3.10584418,102.676044 -7.12345763,64.4858184 10.1168919,34.6222523" id="Shape"></path>
            </g>
            <g id="Group" transform="translate(2021.959240, 279.111200)" fill="#00507F" sketch:type="MSShapeGroup">
                <path d="M118.900541,35.3050384 C136.149218,65.1686045 125.915753,103.354667 96.0521864,120.595017 C66.184457,137.83953 27.9900676,127.606065 10.7580447,97.7424984 C-6.48646814,67.8789323 3.74283367,29.6887062 33.6105631,12.4483567 C63.4699659,-4.79199283 101.656029,5.43730898 118.900541,35.3050384" id="Shape"></path>
            </g>
            <g id="Group" transform="translate(1730.526140, 299.927850)" fill="#00507F" sketch:type="MSShapeGroup">
                <path d="M24.0349041,489.861571 C282.91909,340.402187 436.81242,122.422719 367.826042,2.93098432 L314.710278,33.5980731 C370.702903,130.587009 230.061452,316.633736 0.52457958,449.15253 L24.0349041,489.861571 L24.0349041,489.861571 Z" id="Shape"></path>
            </g>
            <g id="Group" transform="translate(1626.442890, 29.311400)" fill="#F25F46" sketch:type="MSShapeGroup">
                <path d="M252.897318,545.32129 L205.893322,545.32129 C205.893322,280.287866 115.082768,64.4566751 3.09751752,64.4566751 L3.09751752,3.13915082 C141.070274,3.13915082 252.897318,246.402523 252.897318,545.32129 L252.897318,545.32129 Z" id="Shape"></path>
            </g>
            <g id="Group" transform="translate(1147.659940, 399.847770)" fill="#32BDBC" sketch:type="MSShapeGroup">
                <path d="M55.8510719,1.63618869 C70.6100768,103.134011 197.316862,243.300842 380.803142,349.236774 L357.301144,389.945814 C161.195811,276.719892 25.3130464,124.142174 0.94923924,4.88358609 C19.3719745,9.60896564 38.5899058,8.30584335 55.8510719,1.63618869" id="Shape"></path>
            </g>
            <g id="Group" transform="translate(1501.542990, 745.404160)" fill="#32BDBC" sketch:type="MSShapeGroup">
                <path d="M543.768368,68.0454655 L596.917439,98.7250443 C527.931061,218.208452 261.494594,193.374189 2.64371455,43.9356215 L26.1457124,3.23074408 C255.645115,135.732885 487.775743,165.030238 543.768368,68.0454655 L543.768368,68.0454655 Z" id="Shape"></path>
            </g>
            <g id="Group" transform="translate(1160.149930, 745.404160)" fill="#00507F" sketch:type="MSShapeGroup">
                <path d="M53.8401836,67.8664423 L0.69111278,98.5460211 C69.6816542,218.033592 338.978329,192.887079 595.102227,43.9897448 L571.596066,3.28070404 C344.827807,135.220795 109.836972,164.859541 53.8401836,67.8664423 L53.8401836,67.8664423 Z" id="Shape"></path>
            </g>
            <g id="Group" transform="translate(1509.051480, 445.465760)" fill="#FFFFFF" sketch:type="MSShapeGroup">
                <ellipse id="Oval" cx="122.379587" cy="124.254715" rx="121.406237" ry="121.406237"></ellipse>
            </g>
            <g id="Group" transform="translate(1505.706320, 445.644400)" fill="#00507F" sketch:type="MSShapeGroup">
                <path d="M125.191333,1.7902319 C57.3290541,1.7902319 2.3730981,56.7461879 2.3730981,124.608467 C2.3730981,192.474909 57.3290541,247.426702 125.191333,247.426702 C193.053612,247.426702 248.009568,192.474909 248.009568,124.608467 C248.009568,56.7461879 193.053612,1.7902319 125.191333,1.7902319 L125.191333,1.7902319 Z M172.898932,203.882433 C172.361862,203.549367 170.19693,203.045604 169.822231,201.921505 C168.989565,199.46514 169.114465,196.758976 168.823032,194.136078 C172.819828,194.094445 176.820788,194.011178 180.863382,194.136078 C180.984118,194.136078 181.358818,195.930473 181.279715,196.838079 C180.984118,200.626709 177.649291,203.711737 172.898932,203.882433 L172.898932,203.882433 Z M214.369862,143.514148 C213.449766,145.637447 212.200767,147.556742 211.497164,149.759143 C210.127428,154.176437 208.333033,158.085803 204.336236,160.371472 C203.41614,160.875235 203.003971,162.249133 202.337838,163.244169 C201.384435,164.784601 200.381073,166.241767 199.506774,167.865466 C197.512539,171.604136 195.67651,175.525993 193.553212,179.189723 C192.887079,180.317986 191.721347,181.358818 190.593084,181.646088 C187.308217,182.56202 184.060819,182.77435 181.021588,185.226552 C179.02319,186.933517 174.893167,187.516383 173.277795,184.768585 C169.655698,185.101652 166.9079,185.601251 164.118469,185.601251 C162.578037,185.601251 160.995971,184.472989 159.501336,184.472989 C155.379639,184.431356 153.256341,182.895087 152.835844,177.978194 C152.710944,176.271229 150.212946,174.605897 148.214548,172.232799 C148.214548,172.145369 148.339448,170.938003 148.505981,169.068668 C146.799016,170.317667 145.508383,171.2336 144.176118,172.232799 C143.967951,172.066266 143.718152,171.899732 143.514148,171.733199 C144.301018,169.031198 145.09205,166.362503 145.799817,163.906139 C143.222715,166.029437 140.146014,168.523272 137.056824,171.067066 C135.349858,168.202695 133.809426,166.07107 132.685327,163.739606 C129.56283,157.328077 123.192935,157.236484 118.654905,156.661945 C114.449942,156.166508 109.120879,154.58028 104.70775,158.15658 C102.584451,159.821912 98.5876544,158.660343 95.7149567,159.701175 C92.6757258,160.742008 89.3034285,162.199173 87.2217635,164.613905 C84.4739657,167.857139 81.1016684,168.111102 78.1040708,166.903736 C73.8158409,165.200934 70.6517101,166.32087 67.5292126,168.610702 C62.866283,172.066266 57.7453871,171.150333 52.5828579,169.318468 C50.5011929,168.535762 49.1689273,167.236803 49.7517935,164.114305 C50.5011929,160.075875 50.0015933,155.875075 46.212963,152.952418 C46.0047965,152.748414 45.7549967,152.623514 45.6300968,152.365388 C42.2577995,145.958023 38.8438689,139.592292 35.5964715,133.093333 C35.2634051,132.381404 36.0960711,131.132405 35.9295379,130.174839 C35.7213714,128.55114 35.5548382,126.469475 34.5972723,125.561869 C28.6020771,119.691574 33.5148065,113.280046 31.224975,107.284851 C31.641308,107.201584 32.0992743,107.076684 32.5156073,106.993418 C33.0568402,107.617917 33.5564398,108.325683 34.1809393,108.991816 C35.4715716,107.701184 36.637304,106.244018 38.0528362,105.119919 C40.8839006,102.913354 42.9655656,99.2496239 47.6701285,100.665156 C49.0023941,101.081489 50.7093594,99.4161571 52.2914248,98.9581908 C54.4563564,98.3336913 56.621288,97.7924584 58.8694862,97.5842919 C62.6581165,97.2095922 68.8614782,90.0902979 68.4451452,85.7604347 C68.1120788,82.0134377 69.943944,80.2648391 72.2754088,78.4746072 C73.2329747,80.0150393 74.0656407,81.3473049 74.8983067,82.6795705 C75.1897398,82.5963039 75.4811729,82.5130373 75.772606,82.471404 C75.8558726,80.7644387 75.9807725,79.0574734 76.1056724,77.059075 C77.1048716,76.8509085 78.1873374,76.6011087 79.1865366,76.3513089 C79.2698032,76.0598758 79.3114365,75.8933426 79.3114365,75.7684427 C79.6861362,69.0654814 85.348265,67.8581157 89.1785286,64.8188848 C91.9263264,62.6539532 94.0079914,64.6107183 96.4643561,66.6923833 C98.5876544,68.5242485 101.543619,69.2320146 103.417117,70.1063139 C105.248982,65.6515508 106.040015,60.9053546 108.662913,58.2824567 C111.410711,55.6179255 115.907107,54.993426 119.987171,53.2448274 C118.821438,51.7043953 118.030405,50.6219295 117.239373,49.581097 C117.322639,49.2896639 117.447539,48.9982308 117.572439,48.748431 C120.23697,49.6227303 122.859868,50.830096 125.566033,51.4129622 C130.020796,52.4121614 134.558826,52.9950276 139.009425,53.9109602 C140.096055,54.1191267 141.469953,54.7019929 141.923756,55.5762922 C142.344253,56.3673249 142.011186,57.907757 141.549057,58.8653229 C139.925358,62.4041534 138.135126,65.8597173 136.178361,69.8148808 C138.301659,71.3136796 140.050258,73.1455448 142.09029,73.8949442 C146.34105,75.4353763 149.167951,80.4313723 154.08068,80.3064724 C154.372113,80.3064724 154.792609,81.0975051 155.034083,81.5971047 C157.702777,86.3016676 163.406539,85.1775685 164.359942,80.5979055 C165.359141,76.0598758 165.442408,71.2720463 166.10854,66.6091167 C166.774673,61.8629205 167.524073,57.1167243 168.610702,52.4537947 C169.068668,50.4553963 170.3593,48.748431 171.275233,46.9165658 C172.366025,48.8733309 173.689964,50.7468294 174.48516,52.8284944 C175.401093,55.3264924 176.312862,58.0326569 176.479395,60.6555548 C176.691725,64.1943853 177.944888,66.3593169 181.267225,66.9005498 C183.935919,67.4001494 185.014222,68.8156816 185.176592,71.8965458 C185.297328,74.4778104 186.379794,77.059075 187.095887,79.6819729 C187.71206,81.8469045 189.090122,84.0534694 189.052652,86.1767677 C188.965222,90.4275276 190.876191,93.0878955 194.169385,94.4617944 C199.25281,96.626726 201.409415,100.831689 202.916541,105.910952 C203.083074,106.410551 203.083074,107.368117 203.366181,107.493017 C209.236476,110.115915 208.995003,118.030405 214.065939,121.565073 C215.319101,122.481005 215.856171,125.561869 215.939437,127.597738 C216.10597,131.806864 215.772904,136.011828 215.481471,140.208464 C215.410694,141.345053 214.865298,142.473316 214.369862,143.514148 L214.369862,143.514148 Z" id="Shape"></path>
            </g>
            <g id="Group" transform="translate(1155.986600, 812.017440)" fill="#00507F" sketch:type="MSShapeGroup">
                <path d="M57.2915841,0.01248999 L58.7737296,2.55628462 L5.97854188,33.8312196 L3.82193694,30.1258559 L57.2915841,0.01248999 L57.2915841,0.01248999 Z" id="Shape"></path>
            </g>
            <g id="Group" transform="translate(1626.442890, 1049.327250)" fill="#F25F46" sketch:type="MSShapeGroup">
                <path d="M0,65.5433042 L6.11593177,65.5391409 L7.28999083,4.09671672 L3.05588422,4.22161662 L2.68534785,4.22161662 L0,4.09671672 L0,65.5433042 L0,65.5433042 Z" id="Shape"></path>
            </g>
            <g id="Group" transform="translate(2042.775890, 812.017440)" fill="#32BDBC" sketch:type="MSShapeGroup">
                <path d="M3.32650067,0.26228979 L1.7485986,2.76861445 L54.4688464,34.164286 L56.8252912,30.3048791 L3.32650067,0.26228979 L3.32650067,0.26228979 Z" id="Shape"></path>
            </g>
            <g id="Group" transform="translate(1497.379660, 745.404160)" fill="#32BDBC" sketch:type="MSShapeGroup">
                <path d="M27.2823015,1.47381882 L33.5439498,5.09175259 L11.4741375,46.616806 L3.1224975,41.8039965 L27.2823015,1.47381882 L27.2823015,1.47381882 Z" id="Shape"></path>
            </g>
            <g id="Group" transform="translate(1726.362810, 745.404160)" fill="#00507F" sketch:type="MSShapeGroup">
                <path d="M1.14075242,5.73290541 L8.6180931,1.39887888 L33.697993,41.1961503 L22.935785,47.4286554 L1.14075242,5.73290541 L1.14075242,5.73290541 Z" id="Shape"></path>
            </g>
            <g id="Group" transform="translate(1830.446060, 566.380970)" fill="#F25F46" sketch:type="MSShapeGroup">
                <path d="M1.88598849,5.00848599 L1.88598849,10.3084051 L48.8858209,11.707284 L48.8816575,2.92682099 L1.88598849,5.00848599 L1.88598849,5.00848599 Z" id="Shape"></path>
            </g>
            <g id="Group" transform="translate(1376.643090, 566.380970)" fill="#F25F46" sketch:type="MSShapeGroup">
                <path d="M3.10584418,3.29735736 L3.10584418,11.2742976 L50.1140032,12.8355464 L50.1098399,3.46805389 L3.10584418,3.29735736 L3.10584418,3.29735736 Z" id="Shape"></path>
            </g>
            <g id="Group" transform="translate(1497.379660, 354.051140)" fill="#00507F" sketch:type="MSShapeGroup">
                <path d="M11.8654905,0.2914331 L3.64291375,5.03346597 L24.8467534,47.0789356 L35.8212913,40.7381841 L11.8654905,0.2914331 L11.8654905,0.2914331 Z" id="Shape"></path>
            </g>
            <g id="Group" transform="translate(1722.199480, 354.051140)" fill="#32BDBC" sketch:type="MSShapeGroup">
                <path d="M28.776937,1.41969553 L36.1210511,5.65796547 L14.0429121,47.1955089 L3.81777361,41.2877436 L28.776937,1.41969553 L28.776937,1.41969553 Z" id="Shape"></path>
            </g>
        </g>
    </g>
</svg>