<?xml version="1.0" standalone="no"?>
<!DOCTYPE svg PUBLIC "-//W3C//DTD SVG 1.1//EN" "http://www.w3.org/Graphics/SVG/1.1/DTD/svg11.dtd">
<svg width="100%" height="100%" viewBox="0 0 2258 1114" version="1.1" xmlns="http://www.w3.org/2000/svg" xmlns:xlink="http://www.w3.org/1999/xlink" xml:space="preserve" style="fill-rule:evenodd;clip-rule:evenodd;stroke-linejoin:round;stroke-miterlimit:1.41421;">
    <g transform="matrix(4.16667,0,0,4.16667,-71.8084,-14.3333)">
        <path d="M133.744,256.014L133.744,270.753C100.604,270.753 73.744,212.543 73.744,140.753L85.034,140.753C85.034,204.404 106.844,256.014 133.744,256.014" style="fill:rgb(242,95,70);fill-rule:nonzero;"/>
    </g>
    <g transform="matrix(4.16667,0,0,4.16667,-71.8084,-14.3333)">
        <path d="M163.766,88.831C225.938,124.726 262.928,177.098 246.358,205.798L233.593,198.428C247.043,175.131 213.244,130.434 158.12,98.608L163.766,88.831Z" style="fill:rgb(50,189,188);fill-rule:nonzero;"/>
    </g>
    <g transform="matrix(4.16667,0,0,4.16667,-71.8084,-14.3333)">
        <path d="M220.806,72.765C197.92,63.646 153.483,73.076 109.411,98.52L103.766,88.743C150.869,61.548 198.991,51.701 226.723,60.954C223.528,64.219 221.492,68.373 220.806,72.765" style="fill:rgb(0,80,127);fill-rule:nonzero;"/>
    </g>
    <g transform="matrix(4.16667,0,0,4.16667,-71.8084,-14.3333)">
        <path d="M33.948,198.335L21.183,205.705C4.613,177.005 41.715,124.518 103.886,88.623L109.531,98.399C54.409,130.226 20.498,175.039 33.948,198.335" style="fill:rgb(0,80,127);fill-rule:nonzero;"/>
    </g>
    <g transform="matrix(4.16667,0,0,4.16667,-71.8084,-14.3333)">
        <path d="M158.278,182.734L163.924,192.51" style="fill:rgb(0,80,127);fill-rule:nonzero;"/>
    </g>
    <g transform="matrix(4.16667,0,0,4.16667,-71.8084,-14.3333)">
        <path d="M163.791,88.831L158.146,98.608C103.015,66.778 47.397,59.866 33.948,83.162L21.191,75.798C37.761,47.098 101.61,52.932 163.791,88.831" style="fill:rgb(50,189,188);fill-rule:nonzero;"/>
    </g>
    <g transform="matrix(4.16667,0,0,4.16667,-71.8084,-14.3333)">
        <path d="M193.744,140.744C193.744,212.532 166.786,270.754 133.645,270.754L133.645,256.014C160.546,256.014 182.454,204.392 182.454,140.744L193.744,140.744Z" style="fill:rgb(242,95,70);fill-rule:nonzero;"/>
    </g>
    <g transform="matrix(4.16667,0,0,4.16667,-71.8084,-14.3333)">
        <path d="M118.423,31.407C99.083,46.667 85.033,90.073 85.033,140.963L73.743,140.963C73.743,86.573 89.273,39.767 111.153,20.377C112.383,24.777 114.963,28.617 118.423,31.407" style="fill:rgb(242,95,70);fill-rule:nonzero;"/>
    </g>
    <g transform="matrix(4.16667,0,0,4.16667,-71.8084,-14.3333)">
        <path d="M141.797,3.44C150.081,3.44 156.797,10.156 156.797,18.44C156.797,26.724 150.081,33.44 141.797,33.44C133.513,33.44 126.797,26.724 126.797,18.44C126.797,10.156 133.513,3.44 141.797,3.44" style="fill:rgb(242,95,70);fill-rule:nonzero;"/>
    </g>
    <g transform="matrix(4.16667,0,0,4.16667,-71.8084,-14.3333)">
        <path d="M19.43,65.316C23.572,58.143 32.744,55.685 39.917,59.827C47.091,63.968 49.548,73.14 45.407,80.314C41.265,87.487 32.093,89.945 24.92,85.803C17.746,81.662 15.289,72.489 19.43,65.316" style="fill:rgb(50,189,188);fill-rule:nonzero;"/>
    </g>
    <g transform="matrix(4.16667,0,0,4.16667,-71.8084,-14.3333)">
        <path d="M256.559,78.48C260.701,85.653 258.243,94.825 251.07,98.966C243.896,103.108 234.723,100.65 230.582,93.477C226.441,86.304 228.899,77.131 236.072,72.99C243.246,68.849 252.417,71.306 256.559,78.48" style="fill:rgb(0,80,127);fill-rule:nonzero;"/>
    </g>
    <g transform="matrix(4.16667,0,0,4.16667,-71.8084,-14.3333)">
        <path d="M163.774,192.661C225.955,156.762 262.919,104.405 246.349,75.704L233.592,83.07C247.042,106.366 213.26,151.054 158.128,182.884" style="fill:rgb(0,80,127);fill-rule:nonzero;"/>
    </g>
    <g transform="matrix(4.16667,0,0,4.16667,-71.8084,-14.3333)">
        <path d="M193.744,140.983L182.454,140.983C182.454,77.324 160.643,25.483 133.744,25.483L133.744,10.754C166.884,10.754 193.744,69.183 193.744,140.983" style="fill:rgb(242,95,70);fill-rule:nonzero;"/>
    </g>
    <g transform="matrix(4.16667,0,0,4.16667,-71.8084,-14.3333)">
        <path d="M31.415,99.393C34.96,123.772 65.394,157.439 109.466,182.884L103.821,192.662C56.718,165.466 24.08,128.818 18.228,100.173C22.653,101.308 27.269,100.995 31.415,99.393" style="fill:rgb(50,189,188);fill-rule:nonzero;"/>
    </g>
    <g transform="matrix(4.16667,0,0,4.16667,-71.8084,-14.3333)">
        <path d="M233.61,198.343L246.375,205.713C229.804,234.412 165.807,228.447 103.635,192.553L109.28,182.776C164.404,214.601 220.16,221.639 233.61,198.343" style="fill:rgb(50,189,188);fill-rule:nonzero;"/>
    </g>
    <g transform="matrix(4.16667,0,0,4.16667,-71.8084,-14.3333)">
        <path d="M33.932,198.301L21.166,205.67C37.737,234.37 101.602,228.559 163.774,192.662L158.129,182.884C103.007,214.708 47.382,221.598 33.932,198.301" style="fill:rgb(0,80,127);fill-rule:nonzero;"/>
    </g>
    <g transform="matrix(4.16667,0,0,4.16667,-71.8084,-14.3333)">
        <path d="M134.068,110.43C117.768,110.43 104.568,123.628 104.568,139.93C104.568,156.23 117.768,169.43 134.068,169.43C150.368,169.43 163.568,156.23 163.568,139.93C163.568,123.628 150.368,110.43 134.068,110.43" style="fill:rgb(0,80,127);fill-rule:nonzero;"/>
    </g>
    <g transform="matrix(4.16667,0,0,4.16667,-71.8084,-14.3333)">
        <path d="M132.817,122.795C132.542,122.421 132.351,122.162 132.157,121.908C132.184,121.836 132.211,121.773 132.24,121.705C132.878,121.921 133.511,122.205 134.159,122.351C135.232,122.588 136.318,122.728 137.393,122.949C137.645,122.998 137.98,123.14 138.088,123.35C138.19,123.541 138.107,123.911 137.999,124.14C137.611,124.992 137.179,125.821 136.71,126.765C137.221,127.128 137.643,127.574 138.13,127.75C139.152,128.124 139.829,129.324 141.01,129.295C141.079,129.29 141.175,129.482 141.238,129.597C141.877,130.734 143.246,130.458 143.482,129.356C143.716,128.268 143.742,127.121 143.903,126.003C144.064,124.861 144.244,123.716 144.501,122.599C144.609,122.122 144.923,121.71 145.138,121.268C145.399,121.741 145.715,122.187 145.909,122.688C146.132,123.293 146.347,123.94 146.389,124.566C146.443,125.422 146.74,125.938 147.543,126.073C148.179,126.186 148.437,126.533 148.479,127.265C148.508,127.887 148.767,128.513 148.943,129.137C149.093,129.662 149.422,130.192 149.41,130.696C149.389,131.719 149.849,132.363 150.642,132.694C151.856,133.209 152.383,134.224 152.742,135.437C152.78,135.565 152.778,135.791 152.846,135.817C154.263,136.454 154.204,138.352 155.415,139.203C155.723,139.42 155.851,140.159 155.87,140.649C155.907,141.661 155.828,142.672 155.758,143.678C155.739,143.952 155.606,144.221 155.49,144.472C155.269,144.977 154.965,145.441 154.799,145.966C154.467,147.032 154.039,147.974 153.078,148.518C152.863,148.639 152.755,148.971 152.604,149.213C152.37,149.576 152.129,149.934 151.924,150.318C151.443,151.225 150.996,152.158 150.487,153.044C150.335,153.31 150.054,153.557 149.782,153.631C148.988,153.85 148.209,153.903 147.483,154.491C146.995,154.901 146.007,155.035 145.621,154.379C144.75,154.464 144.088,154.575 143.417,154.579C143.051,154.579 142.671,154.307 142.305,154.307C141.323,154.303 140.807,153.926 140.707,152.749C140.676,152.343 140.076,151.94 139.595,151.373C139.6,151.35 139.63,151.065 139.673,150.607C139.264,150.905 138.95,151.135 138.631,151.369C138.582,151.326 138.522,151.285 138.467,151.249C138.659,150.602 138.849,149.96 139.019,149.37C138.395,149.878 137.658,150.479 136.919,151.086C136.509,150.402 136.142,149.894 135.87,149.327C135.121,147.793 133.585,147.774 132.499,147.634C131.494,147.508 130.213,147.134 129.152,147.987C128.641,148.394 127.676,148.111 126.991,148.357C126.255,148.609 125.445,148.955 124.949,149.542C124.294,150.323 123.476,150.379 122.755,150.092C121.728,149.683 120.971,149.947 120.222,150.501C119.097,151.33 117.868,151.111 116.632,150.665C116.128,150.479 115.812,150.165 115.947,149.417C116.125,148.451 116.006,147.441 115.1,146.736C115.048,146.692 114.985,146.656 114.956,146.599C114.147,145.059 113.331,143.528 112.554,141.975C112.468,141.798 112.669,141.498 112.633,141.267C112.576,140.884 112.541,140.381 112.309,140.155C110.871,138.755 112.052,137.205 111.498,135.774C111.603,135.75 111.705,135.723 111.806,135.7C111.935,135.853 112.063,136.015 112.205,136.182C112.518,135.869 112.802,135.524 113.137,135.253C113.818,134.718 114.323,133.844 115.452,134.18C115.771,134.278 116.175,133.875 116.56,133.767C117.076,133.62 117.603,133.487 118.139,133.438C119.045,133.353 120.539,131.64 120.442,130.597C120.356,129.703 120.796,129.277 121.363,128.849C121.593,129.216 121.791,129.536 121.987,129.856C122.057,129.836 122.127,129.822 122.195,129.808C122.224,129.401 122.249,128.993 122.28,128.509C122.524,128.457 122.78,128.396 123.019,128.342C123.037,128.265 123.048,128.232 123.05,128.197C123.141,126.587 124.504,126.298 125.423,125.571C126.076,125.055 126.583,125.517 127.169,126.02C127.68,126.461 128.39,126.629 128.836,126.841C129.284,125.765 129.473,124.629 130.102,124.005C130.758,123.356 131.839,123.205 132.817,122.795" style="fill:white;"/>
    </g>
    <g transform="matrix(4.16667,0,0,4.16667,-71.8084,-14.3333)">
        <path d="M145.53,158.966C145.396,158.894 144.877,158.767 144.786,158.499C144.591,157.913 144.615,157.262 144.546,156.634C145.511,156.621 146.473,156.604 147.439,156.63C147.469,156.63 147.559,157.056 147.539,157.278C147.467,158.191 146.672,158.932 145.53,158.966" style="fill:white;"/>
    </g>
    <g transform="matrix(1,0,0,1,-438.628,-386.879)">
        <path d="M1698.51,685.034L1698.51,573.471L1658.09,654.584L1634.99,654.584L1594.56,573.471L1594.56,685.034L1551.51,685.034L1551.51,498.659L1598.24,498.659L1646.54,596.046L1695.1,498.659L1741.56,498.659L1741.56,685.034L1698.51,685.034Z" style="fill:rgb(65,65,66);fill-rule:nonzero;"/>
        <path d="M1827.93,498.659L1866.78,498.659L1934.76,685.034L1890.66,685.034L1876.23,643.296L1818.21,643.296L1804.04,685.034L1759.94,685.034L1827.93,498.659ZM1869.14,613.634L1847.35,547.746L1825.04,613.634L1869.14,613.634Z" style="fill:rgb(65,65,66);fill-rule:nonzero;"/>
        <path d="M1953.14,685.034L1953.14,498.659L2037.14,498.659C2045.89,498.659 2053.98,500.496 2061.42,504.171C2068.86,507.846 2075.29,512.659 2080.71,518.609C2086.14,524.559 2090.38,531.296 2093.45,538.821C2096.51,546.346 2098.04,553.959 2098.04,561.659C2098.04,567.434 2097.34,572.99 2095.94,578.327C2094.54,583.665 2092.53,588.696 2089.9,593.421C2087.28,598.146 2084.08,602.39 2080.32,606.152C2076.56,609.915 2072.31,613.109 2067.59,615.734L2108.54,685.034L2059.98,685.034L2024.28,624.921L1996.19,624.921L1996.19,685.034L1953.14,685.034ZM1996.19,587.384L2035.56,587.384C2040.64,587.384 2045.01,584.977 2048.69,580.165C2052.36,575.352 2054.2,569.184 2054.2,561.659C2054.2,553.959 2052.1,547.834 2047.9,543.284C2043.7,538.734 2039.15,536.459 2034.25,536.459L1996.19,536.459L1996.19,587.384Z" style="fill:rgb(65,65,66);fill-rule:nonzero;"/>
        <path d="M2118.25,590.271C2118.25,579.071 2120.35,567.915 2124.55,556.802C2128.75,545.69 2134.88,535.759 2142.93,527.009C2150.98,518.259 2160.78,511.171 2172.33,505.746C2183.88,500.321 2197,497.609 2211.7,497.609C2229.2,497.609 2244.38,501.371 2257.24,508.896C2270.11,516.421 2279.69,526.221 2285.99,538.296L2252.91,561.396C2250.81,556.496 2248.14,552.427 2244.91,549.19C2241.67,545.952 2238.13,543.327 2234.28,541.315C2230.43,539.302 2226.49,537.902 2222.46,537.115C2218.44,536.327 2214.5,535.934 2210.65,535.934C2202.43,535.934 2195.25,537.596 2189.13,540.921C2183,544.246 2177.93,548.534 2173.9,553.784C2169.88,559.034 2166.9,564.984 2164.98,571.634C2163.05,578.284 2162.09,585.021 2162.09,591.846C2162.09,599.196 2163.23,606.284 2165.5,613.109C2167.78,619.934 2171.06,625.971 2175.35,631.221C2179.63,636.471 2184.8,640.627 2190.83,643.69C2196.87,646.752 2203.65,648.284 2211.18,648.284C2215.03,648.284 2219.01,647.802 2223.12,646.84C2227.23,645.877 2231.17,644.39 2234.93,642.377C2238.7,640.365 2242.15,637.74 2245.3,634.502C2248.45,631.265 2250.99,627.284 2252.91,622.559L2288.09,643.296C2285.29,650.121 2281.13,656.246 2275.62,661.671C2270.11,667.096 2263.76,671.646 2256.59,675.321C2249.41,678.996 2241.8,681.796 2233.75,683.721C2225.7,685.646 2217.83,686.609 2210.13,686.609C2196.65,686.609 2184.27,683.852 2172.98,678.34C2161.7,672.827 2151.98,665.521 2143.85,656.421C2135.71,647.321 2129.41,636.996 2124.95,625.446C2120.48,613.896 2118.25,602.171 2118.25,590.271Z" style="fill:rgb(65,65,66);fill-rule:nonzero;"/>
        <path d="M2470,498.659L2470,685.034L2426.95,685.034L2426.95,608.646L2352.66,608.646L2352.66,685.034L2309.61,685.034L2309.61,498.659L2352.66,498.659L2352.66,570.846L2426.95,570.846L2426.95,498.659L2470,498.659Z" style="fill:rgb(65,65,66);fill-rule:nonzero;"/>
        <path d="M1551.51,947.534L1551.51,761.159L1678.04,761.159L1678.04,798.959L1594.56,798.959L1594.56,839.121L1663.34,839.121L1663.34,874.034L1594.56,874.034L1594.56,947.534L1551.51,947.534Z" style="fill:rgb(65,65,66);fill-rule:nonzero;"/>
        <path d="M1778.31,949.109C1764.49,949.109 1751.89,946.396 1740.51,940.971C1729.14,935.546 1719.43,928.415 1711.38,919.577C1703.33,910.74 1697.07,900.634 1692.61,889.259C1688.14,877.884 1685.91,866.159 1685.91,854.084C1685.91,841.834 1688.23,830.021 1692.87,818.646C1697.51,807.271 1703.98,797.252 1712.3,788.59C1720.61,779.927 1730.45,773.015 1741.83,767.852C1753.2,762.69 1765.63,760.109 1779.1,760.109C1792.93,760.109 1805.53,762.821 1816.9,768.246C1828.28,773.671 1837.99,780.846 1846.04,789.771C1854.09,798.696 1860.3,808.846 1864.68,820.221C1869.05,831.596 1871.24,843.146 1871.24,854.871C1871.24,867.121 1868.92,878.934 1864.28,890.309C1859.64,901.684 1853.21,911.702 1844.99,920.365C1836.76,929.027 1826.96,935.984 1815.59,941.234C1804.21,946.484 1791.79,949.109 1778.31,949.109ZM1729.75,854.609C1729.75,861.784 1730.8,868.74 1732.9,875.477C1735,882.215 1738.11,888.209 1742.22,893.459C1746.33,898.709 1751.45,902.909 1757.58,906.059C1763.7,909.209 1770.7,910.784 1778.58,910.784C1786.8,910.784 1793.98,909.121 1800.1,905.796C1806.23,902.471 1811.3,898.14 1815.33,892.802C1819.35,887.465 1822.37,881.427 1824.38,874.69C1826.39,867.952 1827.4,861.084 1827.4,854.084C1827.4,846.909 1826.35,839.952 1824.25,833.215C1822.15,826.477 1819,820.527 1814.8,815.365C1810.6,810.202 1805.48,806.09 1799.44,803.027C1793.41,799.965 1786.45,798.434 1778.58,798.434C1770.35,798.434 1763.22,800.052 1757.18,803.29C1751.14,806.527 1746.07,810.771 1741.96,816.021C1737.85,821.271 1734.78,827.265 1732.77,834.002C1730.76,840.74 1729.75,847.609 1729.75,854.609Z" style="fill:rgb(65,65,66);fill-rule:nonzero;"/>
        <path d="M1896.18,947.534L1896.18,761.159L1980.18,761.159C1988.93,761.159 1997.02,762.996 2004.46,766.671C2011.89,770.346 2018.33,775.159 2023.75,781.109C2029.18,787.059 2033.42,793.796 2036.48,801.321C2039.55,808.846 2041.08,816.459 2041.08,824.159C2041.08,829.934 2040.38,835.49 2038.98,840.827C2037.58,846.165 2035.56,851.196 2032.94,855.921C2030.31,860.646 2027.12,864.89 2023.36,868.652C2019.6,872.415 2015.35,875.609 2010.63,878.234L2051.58,947.534L2003.01,947.534L1967.31,887.421L1939.23,887.421L1939.23,947.534L1896.18,947.534ZM1939.23,849.884L1978.6,849.884C1983.68,849.884 1988.05,847.477 1991.73,842.665C1995.4,837.852 1997.24,831.684 1997.24,824.159C1997.24,816.459 1995.14,810.334 1990.94,805.784C1986.74,801.234 1982.19,798.959 1977.29,798.959L1939.23,798.959L1939.23,849.884Z" style="fill:rgb(65,65,66);fill-rule:nonzero;"/>
        <path d="M1663.34,1078.26C1662.81,1077.56 1660.98,1076.25 1657.83,1074.32C1654.68,1072.4 1650.74,1070.38 1646.01,1068.28C1641.29,1066.18 1636.13,1064.35 1630.53,1062.77C1624.93,1061.2 1619.33,1060.41 1613.73,1060.41C1598.33,1060.41 1590.63,1065.57 1590.63,1075.9C1590.63,1079.05 1591.46,1081.67 1593.12,1083.77C1594.78,1085.87 1597.23,1087.75 1600.47,1089.41C1603.71,1091.08 1607.78,1092.61 1612.68,1094.01C1617.58,1095.41 1623.26,1096.98 1629.74,1098.73C1638.66,1101.18 1646.71,1103.85 1653.89,1106.74C1661.06,1109.63 1667.14,1113.21 1672.13,1117.5C1677.12,1121.79 1680.97,1127 1683.68,1133.12C1686.39,1139.25 1687.75,1146.6 1687.75,1155.17C1687.75,1165.67 1685.78,1174.55 1681.85,1181.82C1677.91,1189.08 1672.7,1194.94 1666.23,1199.4C1659.75,1203.87 1652.31,1207.1 1643.91,1209.12C1635.51,1211.13 1626.85,1212.13 1617.93,1212.13C1611.1,1212.13 1604.1,1211.61 1596.93,1210.56C1589.75,1209.51 1582.75,1207.98 1575.93,1205.96C1569.1,1203.95 1562.5,1201.55 1556.11,1198.75C1549.72,1195.95 1543.81,1192.71 1538.39,1189.03L1557.29,1151.5C1557.99,1152.37 1560.26,1154.03 1564.11,1156.48C1567.96,1158.93 1572.73,1161.38 1578.42,1163.83C1584.11,1166.28 1590.45,1168.47 1597.45,1170.4C1604.45,1172.32 1611.54,1173.28 1618.71,1173.28C1633.94,1173.28 1641.55,1168.65 1641.55,1159.37C1641.55,1155.87 1640.41,1152.98 1638.14,1150.71C1635.86,1148.43 1632.71,1146.38 1628.69,1144.54C1624.66,1142.7 1619.89,1141 1614.38,1139.42C1608.87,1137.85 1602.88,1136.1 1596.4,1134.17C1587.83,1131.55 1580.39,1128.7 1574.09,1125.64C1567.79,1122.58 1562.58,1119.03 1558.47,1115.01C1554.36,1110.98 1551.3,1106.35 1549.28,1101.1C1547.27,1095.85 1546.26,1089.72 1546.26,1082.72C1546.26,1072.92 1548.1,1064.26 1551.78,1056.73C1555.45,1049.21 1560.44,1042.87 1566.74,1037.7C1573.04,1032.54 1580.35,1028.65 1588.66,1026.02C1596.97,1023.4 1605.76,1022.08 1615.04,1022.08C1621.51,1022.08 1627.9,1022.7 1634.2,1023.92C1640.5,1025.15 1646.54,1026.72 1652.31,1028.65C1658.09,1030.57 1663.47,1032.76 1668.46,1035.21C1673.44,1037.66 1678.04,1040.11 1682.24,1042.56L1663.34,1078.26Z" style="fill:rgb(65,65,66);fill-rule:nonzero;"/>
        <path d="M1702.19,1115.27C1702.19,1104.07 1704.29,1092.91 1708.49,1081.8C1712.69,1070.69 1718.81,1060.76 1726.86,1052.01C1734.91,1043.26 1744.71,1036.17 1756.26,1030.75C1767.81,1025.32 1780.94,1022.61 1795.64,1022.61C1813.14,1022.61 1828.32,1026.37 1841.18,1033.9C1854.05,1041.42 1863.63,1051.22 1869.93,1063.3L1836.85,1086.4C1834.75,1081.5 1832.08,1077.43 1828.85,1074.19C1825.61,1070.95 1822.06,1068.33 1818.21,1066.32C1814.36,1064.3 1810.43,1062.9 1806.4,1062.12C1802.38,1061.33 1798.44,1060.93 1794.59,1060.93C1786.36,1060.93 1779.19,1062.6 1773.06,1065.92C1766.94,1069.25 1761.86,1073.53 1757.84,1078.78C1753.81,1084.03 1750.84,1089.98 1748.91,1096.63C1746.99,1103.28 1746.03,1110.02 1746.03,1116.85C1746.03,1124.2 1747.16,1131.28 1749.44,1138.11C1751.71,1144.93 1755,1150.97 1759.28,1156.22C1763.57,1161.47 1768.73,1165.63 1774.77,1168.69C1780.81,1171.75 1787.59,1173.28 1795.11,1173.28C1798.96,1173.28 1802.94,1172.8 1807.06,1171.84C1811.17,1170.88 1815.11,1169.39 1818.87,1167.38C1822.63,1165.37 1826.09,1162.74 1829.24,1159.5C1832.39,1156.27 1834.93,1152.28 1836.85,1147.56L1872.03,1168.3C1869.23,1175.12 1865.07,1181.25 1859.56,1186.67C1854.05,1192.1 1847.7,1196.65 1840.53,1200.32C1833.35,1204 1825.74,1206.8 1817.69,1208.72C1809.64,1210.65 1801.76,1211.61 1794.06,1211.61C1780.59,1211.61 1768.21,1208.85 1756.92,1203.34C1745.63,1197.83 1735.92,1190.52 1727.78,1181.42C1719.64,1172.32 1713.35,1162 1708.88,1150.45C1704.42,1138.9 1702.19,1127.17 1702.19,1115.27Z" style="fill:rgb(65,65,66);fill-rule:nonzero;"/>
        <rect x="1893.55" y="1023.66" width="43.05" height="186.375" style="fill:rgb(65,65,66);fill-rule:nonzero;"/>
        <path d="M2103.29,1172.23L2103.29,1210.03L1972.3,1210.03L1972.3,1023.66L2100.93,1023.66L2100.93,1061.46L2015.35,1061.46L2015.35,1097.68L2088.85,1097.68L2088.85,1132.6L2015.35,1132.6L2015.35,1172.23L2103.29,1172.23Z" style="fill:rgb(65,65,66);fill-rule:nonzero;"/>
        <path d="M2172.59,1103.46L2172.59,1210.03L2129.54,1210.03L2129.54,1023.66L2163.14,1023.66L2250.03,1133.12L2250.03,1023.66L2293.08,1023.66L2293.08,1210.03L2258.43,1210.03L2172.59,1103.46Z" style="fill:rgb(65,65,66);fill-rule:nonzero;"/>
        <path d="M2318.01,1115.27C2318.01,1104.07 2320.11,1092.91 2324.31,1081.8C2328.51,1070.69 2334.64,1060.76 2342.69,1052.01C2350.74,1043.26 2360.54,1036.17 2372.09,1030.75C2383.64,1025.32 2396.76,1022.61 2411.46,1022.61C2428.96,1022.61 2444.14,1026.37 2457.01,1033.9C2469.87,1041.42 2479.45,1051.22 2485.75,1063.3L2452.68,1086.4C2450.58,1081.5 2447.91,1077.43 2444.67,1074.19C2441.43,1070.95 2437.89,1068.33 2434.04,1066.32C2430.19,1064.3 2426.25,1062.9 2422.23,1062.12C2418.2,1061.33 2414.26,1060.93 2410.41,1060.93C2402.19,1060.93 2395.01,1062.6 2388.89,1065.92C2382.76,1069.25 2377.69,1073.53 2373.66,1078.78C2369.64,1084.03 2366.66,1089.98 2364.74,1096.63C2362.81,1103.28 2361.85,1110.02 2361.85,1116.85C2361.85,1124.2 2362.99,1131.28 2365.26,1138.11C2367.54,1144.93 2370.82,1150.97 2375.11,1156.22C2379.39,1161.47 2384.56,1165.63 2390.6,1168.69C2396.63,1171.75 2403.41,1173.28 2410.94,1173.28C2414.79,1173.28 2418.77,1172.8 2422.88,1171.84C2426.99,1170.88 2430.93,1169.39 2434.7,1167.38C2438.46,1165.37 2441.91,1162.74 2445.06,1159.5C2448.21,1156.27 2450.75,1152.28 2452.68,1147.56L2487.85,1168.3C2485.05,1175.12 2480.89,1181.25 2475.38,1186.67C2469.87,1192.1 2463.53,1196.65 2456.35,1200.32C2449.18,1204 2441.56,1206.8 2433.51,1208.72C2425.46,1210.65 2417.59,1211.61 2409.89,1211.61C2396.41,1211.61 2384.03,1208.85 2372.74,1203.34C2361.46,1197.83 2351.74,1190.52 2343.61,1181.42C2335.47,1172.32 2329.17,1162 2324.71,1150.45C2320.24,1138.9 2318.01,1127.17 2318.01,1115.27Z" style="fill:rgb(65,65,66);fill-rule:nonzero;"/>
        <path d="M2640.36,1172.23L2640.36,1210.03L2509.38,1210.03L2509.38,1023.66L2638,1023.66L2638,1061.46L2552.43,1061.46L2552.43,1097.68L2625.93,1097.68L2625.93,1132.6L2552.43,1132.6L2552.43,1172.23L2640.36,1172.23Z" style="fill:rgb(65,65,66);fill-rule:nonzero;"/>
    </g>
    <g transform="matrix(1,0,0,1,-375.432,-503.427)">
        <path d="M1525.69,1388.99L1544.88,1388.99L1599.72,1528.03L1576.61,1528.03L1561.92,1490.23L1508.26,1490.23L1493.77,1528.03L1470.47,1528.03L1525.69,1388.99ZM1557.61,1473.98L1535.29,1414.25L1512.18,1473.98L1557.61,1473.98Z" style="fill:rgb(65,65,66);fill-rule:nonzero;"/>
        <path d="M1678.64,1509.23C1685.95,1509.23 1692.02,1507.79 1696.85,1504.92C1701.68,1502.05 1705.57,1498.29 1708.5,1493.66C1711.44,1489.02 1713.53,1483.74 1714.77,1477.8C1716.01,1471.86 1716.63,1465.75 1716.63,1459.49L1716.63,1388.99L1738.76,1388.99L1738.76,1459.49C1738.76,1469.02 1737.65,1477.99 1735.43,1486.41C1733.21,1494.83 1729.69,1502.21 1724.86,1508.54C1720.03,1514.87 1713.79,1519.87 1706.15,1523.52C1698.52,1527.18 1689.35,1529.01 1678.64,1529.01C1667.54,1529.01 1658.17,1527.08 1650.54,1523.23C1642.9,1519.38 1636.73,1514.22 1632.03,1507.76C1627.33,1501.3 1623.94,1493.89 1621.85,1485.53C1619.76,1477.18 1618.71,1468.49 1618.71,1459.49L1618.71,1388.99L1640.65,1388.99L1640.65,1459.49C1640.65,1465.88 1641.27,1472.05 1642.51,1477.99C1643.75,1483.93 1645.84,1489.22 1648.77,1493.86C1651.71,1498.49 1655.63,1502.21 1660.52,1505.02C1665.42,1507.82 1671.46,1509.23 1678.64,1509.23Z" style="fill:rgb(65,65,66);fill-rule:nonzero;"/>
        <path d="M1859.98,1421.69C1858.67,1420.25 1856.78,1418.72 1854.3,1417.09C1851.82,1415.46 1848.92,1413.92 1845.59,1412.49C1842.26,1411.05 1838.6,1409.88 1834.62,1408.96C1830.64,1408.05 1826.56,1407.59 1822.38,1407.59C1813.11,1407.59 1806.29,1409.29 1801.92,1412.68C1797.54,1416.08 1795.36,1420.78 1795.36,1426.78C1795.36,1430.18 1796.04,1432.95 1797.41,1435.11C1798.78,1437.26 1800.9,1439.15 1803.78,1440.78C1806.65,1442.42 1810.24,1443.85 1814.55,1445.09C1818.86,1446.33 1823.88,1447.67 1829.63,1449.11C1836.68,1450.8 1843.04,1452.7 1848.72,1454.79C1854.4,1456.88 1859.2,1459.42 1863.11,1462.42C1867.03,1465.43 1870.07,1469.12 1872.22,1473.49C1874.37,1477.86 1875.45,1483.18 1875.45,1489.45C1875.45,1496.5 1874.11,1502.57 1871.44,1507.66C1868.76,1512.75 1865.11,1516.9 1860.47,1520.1C1855.84,1523.3 1850.45,1525.64 1844.31,1527.15C1838.18,1528.65 1831.59,1529.4 1824.54,1529.4C1813.96,1529.4 1803.74,1527.8 1793.89,1524.6C1784.03,1521.4 1775.12,1516.74 1767.16,1510.6L1777.14,1491.8C1778.84,1493.5 1781.29,1495.39 1784.49,1497.48C1787.68,1499.57 1791.41,1501.49 1795.65,1503.26C1799.89,1505.02 1804.5,1506.52 1809.46,1507.76C1814.42,1509 1819.57,1509.62 1824.93,1509.62C1833.54,1509.62 1840.2,1508.12 1844.9,1505.12C1849.6,1502.11 1851.95,1497.67 1851.95,1491.8C1851.95,1488.27 1851.07,1485.34 1849.31,1482.99C1847.55,1480.64 1845.03,1478.58 1841.77,1476.82C1838.5,1475.06 1834.52,1473.45 1829.82,1472.02C1825.12,1470.58 1819.77,1469.08 1813.76,1467.52C1806.85,1465.69 1800.81,1463.76 1795.65,1461.74C1790.49,1459.71 1786.22,1457.27 1782.82,1454.39C1779.43,1451.52 1776.85,1448.16 1775.09,1444.31C1773.32,1440.46 1772.44,1435.79 1772.44,1430.31C1772.44,1423.52 1773.75,1417.48 1776.36,1412.19C1778.97,1406.9 1782.53,1402.47 1787.03,1398.88C1791.54,1395.29 1796.86,1392.58 1802.99,1390.75C1809.13,1388.92 1815.79,1388.01 1822.97,1388.01C1832.37,1388.01 1841.05,1389.51 1849.01,1392.51C1856.98,1395.51 1863.96,1399.24 1869.97,1403.67L1859.98,1421.69Z" style="fill:rgb(65,65,66);fill-rule:nonzero;"/>
        <path d="M2008.23,1408.37L1962.01,1408.37L1962.01,1528.03L1939.88,1528.03L1939.88,1408.37L1893.47,1408.37L1893.47,1388.99L2008.23,1388.99L2008.23,1408.37Z" style="fill:rgb(65,65,66);fill-rule:nonzero;"/>
        <path d="M2036.62,1528.03L2036.62,1388.99L2097.14,1388.99C2103.4,1388.99 2109.18,1390.29 2114.47,1392.9C2119.75,1395.51 2124.29,1398.94 2128.08,1403.18C2131.86,1407.43 2134.83,1412.26 2136.99,1417.68C2139.14,1423.09 2140.22,1428.61 2140.22,1434.22C2140.22,1438.92 2139.57,1443.43 2138.26,1447.74C2136.95,1452.04 2135.13,1456.03 2132.78,1459.68C2130.43,1463.34 2127.55,1466.5 2124.16,1469.18C2120.76,1471.86 2117.05,1473.85 2113,1475.15L2145.7,1528.03L2120.83,1528.03L2090.67,1479.66L2058.56,1479.66L2058.56,1528.03L2036.62,1528.03ZM2058.56,1460.27L2096.94,1460.27C2100.07,1460.27 2102.91,1459.58 2105.46,1458.21C2108,1456.84 2110.19,1454.95 2112.02,1452.53C2113.85,1450.12 2115.28,1447.34 2116.33,1444.21C2117.37,1441.08 2117.89,1437.75 2117.89,1434.22C2117.89,1430.7 2117.27,1427.37 2116.03,1424.24C2114.79,1421.1 2113.16,1418.36 2111.14,1416.01C2109.11,1413.66 2106.76,1411.8 2104.09,1410.43C2101.41,1409.06 2098.64,1408.37 2095.76,1408.37L2058.56,1408.37L2058.56,1460.27Z" style="fill:rgb(65,65,66);fill-rule:nonzero;"/>
        <path d="M2214.64,1388.99L2233.83,1388.99L2288.66,1528.03L2265.55,1528.03L2250.86,1490.23L2197.21,1490.23L2182.71,1528.03L2159.41,1528.03L2214.64,1388.99ZM2246.56,1473.98L2224.23,1414.25L2201.12,1473.98L2246.56,1473.98Z" style="fill:rgb(65,65,66);fill-rule:nonzero;"/>
        <path d="M2315.68,1528.03L2315.68,1388.99L2337.62,1388.99L2337.62,1508.64L2412.23,1508.64L2412.23,1528.03L2315.68,1528.03Z" style="fill:rgb(65,65,66);fill-rule:nonzero;"/>
        <rect x="2439.84" y="1388.99" width="21.933" height="139.042" style="fill:rgb(65,65,66);fill-rule:nonzero;"/>
        <path d="M2543.83,1388.99L2563.02,1388.99L2617.86,1528.03L2594.75,1528.03L2580.06,1490.23L2526.4,1490.23L2511.91,1528.03L2488.61,1528.03L2543.83,1388.99ZM2575.75,1473.98L2553.43,1414.25L2530.32,1473.98L2575.75,1473.98Z" style="fill:rgb(65,65,66);fill-rule:nonzero;"/>
    </g>
</svg>
