<?xml version="1.0" encoding="UTF-8" standalone="no"?>
<!DOCTYPE svg PUBLIC "-//W3C//DTD SVG 1.1//EN" "http://www.w3.org/Graphics/SVG/1.1/DTD/svg11.dtd">
<svg width="100%" height="100%" viewBox="0 0 3021 872" version="1.1" xmlns="http://www.w3.org/2000/svg" xmlns:xlink="http://www.w3.org/1999/xlink" xml:space="preserve" xmlns:serif="http://www.serif.com/" style="fill-rule:evenodd;clip-rule:evenodd;stroke-linejoin:round;stroke-miterlimit:1.41421;">
    <g>
        <path d="M380.065,823.917l0,48.08c-108.105,0 -195.725,-189.886 -195.725,-424.071l36.829,0c0,207.628 71.146,375.991 158.896,375.991Z" style="fill:#f25f46;fill-rule:nonzero;"/>
        <path d="M477.999,278.552c202.81,117.093 323.475,287.934 269.422,381.556l-41.637,-24.041c43.872,-75.997 -66.387,-221.802 -246.206,-325.621l18.421,-31.894Z" style="fill:#32bdbc;fill-rule:nonzero;"/>
        <path d="M664.013,226.013c-74.659,-29.747 -219.616,1.015 -363.383,84.015l-18.414,-31.893c153.657,-88.713 310.631,-120.834 401.095,-90.65c-10.422,10.651 -17.064,24.201 -19.298,38.528" style="fill:#fff;fill-rule:nonzero;"/>
        <path d="M54.522,635.763l-41.64,24.042c-54.053,-93.622 66.977,-264.839 269.784,-381.931l18.414,31.89c-179.812,103.822 -290.433,250.006 -246.558,325.999" style="fill:#fff;fill-rule:nonzero;"/>
        <path d="M478.446,278.813l-18.555,31.812c-179.841,-103.832 -361.503,-126.556 -405.372,-50.562l-41.614,-24.022c54.056,-93.625 262.702,-74.333 465.541,42.772Z" style="fill:#32bdbc;fill-rule:nonzero;"/>
        <path d="M575.79,447.897c0,234.178 -87.939,424.103 -196.048,424.103l0,-48.083c87.753,0 159.219,-168.392 159.219,-376.02l36.829,0Z" style="fill:#f25f46;fill-rule:nonzero;"/>
        <path d="M330.087,91.231c-63.089,49.779 -108.921,191.373 -108.921,357.38l-36.829,0c0,-177.424 50.66,-330.109 122.034,-393.361c4.013,14.353 12.429,26.879 23.716,35.981" style="fill:#f25f46;fill-rule:nonzero;"/>
        <path d="M406.335,0c27.023,0 48.931,21.908 48.931,48.931c0,27.023 -21.908,48.931 -48.931,48.931c-27.023,0 -48.932,-21.908 -48.932,-48.931c0,-27.023 21.909,-48.931 48.932,-48.931" style="fill:#f25f46;fill-rule:nonzero;"/>
        <path d="M7.163,201.845c13.512,-23.399 43.432,-31.418 66.831,-17.906c23.402,13.508 31.417,43.428 17.909,66.83c-13.512,23.399 -43.432,31.417 -66.831,17.906c-23.402,-13.509 -31.417,-43.432 -17.909,-66.83" style="fill:#32bdbc;fill-rule:nonzero;"/>
        <path d="M780.698,244.787c13.514,23.398 5.496,53.318 -17.903,66.827c-23.402,13.511 -53.328,5.493 -66.83,-17.906c-13.512,-23.399 -5.497,-53.322 17.906,-66.83c23.395,-13.509 53.315,-5.494 66.827,17.909" style="fill:#fff;fill-rule:nonzero;"/>
        <path d="M478.022,617.254c202.843,-117.105 323.422,-287.898 269.37,-381.523l-41.618,24.028c43.872,75.994 -66.325,221.767 -246.173,325.599l18.421,31.896Z" style="fill:#fff;fill-rule:nonzero;"/>
        <path d="M575.79,448.673l-36.829,0c0,-207.661 -71.152,-376.77 -158.896,-376.77l0,-48.044c108.105,0 195.725,190.603 195.725,424.814Z" style="fill:#f25f46;fill-rule:nonzero;"/>
        <path d="M46.26,313.006c11.564,79.527 110.842,189.351 254.608,272.355l-18.414,31.897c-153.654,-88.716 -260.122,-208.265 -279.212,-301.707c14.435,3.702 29.493,2.681 43.018,-2.545" style="fill:#32bdbc;fill-rule:nonzero;"/>
        <path d="M705.833,635.793l41.644,24.038c-54.053,93.618 -262.813,74.16 -465.63,-42.929l18.415,-31.893c179.818,103.819 361.699,126.774 405.571,50.784Z" style="fill:#32bdbc;fill-rule:nonzero;"/>
        <path d="M54.47,635.652l-41.644,24.039c54.056,93.621 265.058,73.918 465.738,-42.747l-18.418,-31.896c-177.679,103.378 -361.801,126.601 -405.676,50.604Z" style="fill:#fff;fill-rule:nonzero;"/>
        <circle cx="381.547" cy="444.825" r="95.125" style="fill:#414142;"/>
        <path d="M381.129,349.01c-53.172,0 -96.232,43.06 -96.232,96.231c0,53.176 43.06,96.232 96.232,96.232c53.171,0 96.231,-43.056 96.231,-96.232c0,-53.171 -43.06,-96.231 -96.231,-96.231Zm37.38,158.345c-0.421,-0.261 -2.117,-0.656 -2.411,-1.537c-0.652,-1.924 -0.555,-4.045 -0.783,-6.1c3.132,-0.032 6.267,-0.098 9.434,0c0.095,0 0.388,1.406 0.326,2.117c-0.231,2.969 -2.844,5.386 -6.566,5.52Zm32.493,-47.3c-0.721,1.663 -1.699,3.167 -2.251,4.893c-1.073,3.461 -2.479,6.524 -5.61,8.315c-0.721,0.394 -1.044,1.471 -1.566,2.251c-0.747,1.207 -1.533,2.348 -2.218,3.62c-1.563,2.93 -3.001,6.003 -4.665,8.873c-0.522,0.884 -1.435,1.7 -2.319,1.925c-2.574,0.718 -5.119,0.884 -7.5,2.805c-1.566,1.338 -4.802,1.795 -6.067,-0.358c-2.838,0.26 -4.991,0.652 -7.177,0.652c-1.207,0 -2.447,-0.884 -3.618,-0.884c-3.229,-0.033 -4.893,-1.236 -5.222,-5.089c-0.098,-1.337 -2.055,-2.642 -3.621,-4.502c0,-0.068 0.098,-1.014 0.228,-2.479c-1.337,0.979 -2.349,1.697 -3.392,2.479c-0.164,-0.13 -0.359,-0.261 -0.519,-0.391c0.616,-2.117 1.236,-4.208 1.791,-6.133c-2.019,1.664 -4.43,3.618 -6.851,5.611c-1.337,-2.244 -2.544,-3.914 -3.425,-5.741c-2.446,-5.024 -7.437,-5.096 -10.993,-5.546c-3.295,-0.388 -7.47,-1.631 -10.928,1.171c-1.664,1.305 -4.795,0.395 -7.046,1.211c-2.381,0.815 -5.024,1.957 -6.655,3.849c-2.153,2.541 -4.795,2.74 -7.144,1.794c-3.36,-1.334 -5.839,-0.457 -8.285,1.337c-3.654,2.708 -7.666,1.99 -11.711,0.555c-1.631,-0.613 -2.675,-1.631 -2.218,-4.078c0.587,-3.164 0.195,-6.455 -2.773,-8.745c-0.163,-0.16 -0.359,-0.258 -0.457,-0.46c-2.642,-5.021 -5.317,-10.008 -7.861,-15.1c-0.261,-0.558 0.391,-1.537 0.26,-2.287c-0.163,-1.272 -0.293,-2.903 -1.043,-3.615c-4.698,-4.599 -0.849,-9.623 -2.643,-14.32c0.327,-0.065 0.685,-0.163 1.012,-0.228c0.424,0.489 0.815,1.043 1.304,1.565c1.012,-1.011 1.925,-2.153 3.034,-3.033c2.218,-1.729 3.849,-4.6 7.536,-3.491c1.043,0.326 2.381,-0.978 3.62,-1.337c1.697,-0.49 3.393,-0.914 5.155,-1.077c2.968,-0.293 7.829,-5.871 7.502,-9.264c-0.261,-2.936 1.175,-4.306 3.001,-5.709c0.751,1.207 1.403,2.251 2.056,3.295c0.228,-0.065 0.456,-0.13 0.685,-0.163c0.065,-1.338 0.163,-2.675 0.261,-4.241c0.782,-0.163 1.631,-0.359 2.414,-0.554c0.065,-0.229 0.097,-0.359 0.097,-0.457c0.294,-5.252 4.73,-6.198 7.732,-8.579c2.152,-1.697 3.784,-0.163 5.708,1.468c1.664,1.435 3.98,1.99 5.448,2.675c1.435,-3.491 2.055,-7.21 4.11,-9.265c2.153,-2.088 5.676,-2.577 8.873,-3.947c-0.913,-1.207 -1.533,-2.055 -2.153,-2.871c0.065,-0.228 0.163,-0.456 0.261,-0.652c2.088,0.685 4.143,1.631 6.263,2.088c3.491,0.783 7.046,1.239 10.533,1.957c0.852,0.163 1.928,0.62 2.284,1.305c0.329,0.62 0.068,1.827 -0.294,2.577c-1.272,2.773 -2.675,5.48 -4.208,8.579c1.664,1.175 3.034,2.61 4.632,3.197c3.331,1.207 5.546,5.122 9.395,5.024c0.228,0 0.558,0.619 0.747,1.011c2.091,3.686 6.56,2.805 7.307,-0.783c0.783,-3.556 0.848,-7.307 1.37,-10.961c0.522,-3.718 1.109,-7.437 1.961,-11.091c0.359,-1.565 1.37,-2.903 2.087,-4.338c0.855,1.533 1.892,3.001 2.516,4.632c0.717,1.957 1.432,4.078 1.562,6.133c0.166,2.772 1.148,4.469 3.751,4.893c2.091,0.391 2.936,1.5 3.064,3.914c0.094,2.023 0.942,4.045 1.503,6.1c0.483,1.697 1.563,3.426 1.534,5.089c-0.069,3.331 1.428,5.415 4.009,6.492c3.983,1.696 5.672,4.991 6.853,8.97c0.131,0.392 0.131,1.142 0.353,1.24c4.599,2.055 4.41,8.256 8.383,11.026c0.982,0.718 1.403,3.131 1.468,4.727c0.131,3.298 -0.13,6.592 -0.359,9.88c-0.055,0.891 -0.483,1.775 -0.871,2.591Z" style="fill:#fff;fill-rule:nonzero;"/>
        <path d="M53.912,634.68l1.162,1.993l-41.367,24.505l-1.69,-2.903l41.895,-23.595Z" style="fill:#fff;fill-rule:nonzero;"/>
        <path d="M377.638,871.964l4.792,-0.003l0.92,-48.142l-3.318,0.098l-0.29,0l-2.104,-0.098l0,48.145Z" style="fill:#f25f46;fill-rule:nonzero;"/>
        <path d="M706.453,634.876l-1.237,1.964l41.308,24.599l1.846,-3.024l-41.917,-23.539Z" style="fill:#32bdbc;fill-rule:nonzero;"/>
        <path d="M297.89,583.632l4.906,2.835l-17.292,32.536l-6.544,-3.771l18.93,-31.6Z" style="fill:#32bdbc;fill-rule:nonzero;"/>
        <path d="M456.822,586.969l5.859,-3.396l19.65,31.183l-8.432,4.883l-17.077,-32.67Z" style="fill:#fff;fill-rule:nonzero;"/>
        <path d="M538.958,446.132l0,4.153l36.825,1.096l-0.003,-6.88l-36.822,1.631Z" style="fill:#f25f46;fill-rule:nonzero;"/>
        <path d="M184.347,444.791l0,6.25l36.832,1.224l-0.003,-7.34l-36.829,-0.134Z" style="fill:#f25f46;fill-rule:nonzero;"/>
        <path d="M285.81,276.07l-6.442,3.715l16.614,32.944l8.599,-4.968l-18.771,-31.691Z" style="fill:#fff;fill-rule:nonzero;"/>
        <path d="M475.213,276.954l5.755,3.321l-17.299,32.546l-8.012,-4.629l19.556,-31.238Z" style="fill:#32bdbc;fill-rule:nonzero;"/>
    </g>
    <g id="_2019" serif:id="2019">
        <path d="M1614.39,569.842l12.417,0l35.478,89.961l-14.952,0l-9.502,-24.454l-34.718,0l-9.376,24.454l-15.078,0l35.731,-89.961Zm20.653,54.99l-14.444,-38.645l-14.951,38.645l29.395,0Z" style="fill:#fff;fill-rule:nonzero;"/>
        <path d="M1713.34,647.639c4.73,0 8.658,-0.929 11.783,-2.788c3.126,-1.858 5.639,-4.286 7.539,-7.285c1.901,-2.999 3.252,-6.42 4.055,-10.263c0.802,-3.844 1.204,-7.793 1.204,-11.847l0,-45.614l14.317,0l0,45.614c0,6.166 -0.718,11.974 -2.154,17.422c-1.436,5.448 -3.716,10.221 -6.842,14.317c-3.125,4.097 -7.159,7.328 -12.1,9.693c-4.942,2.366 -10.876,3.548 -17.802,3.548c-7.18,0 -13.241,-1.246 -18.182,-3.738c-4.942,-2.491 -8.933,-5.828 -11.974,-10.009c-3.041,-4.182 -5.237,-8.975 -6.589,-14.381c-1.351,-5.406 -2.027,-11.024 -2.027,-16.852l0,-45.614l14.191,0l0,45.614c0,4.139 0.401,8.13 1.204,11.974c0.802,3.843 2.154,7.264 4.054,10.263c1.901,2.998 4.435,5.406 7.603,7.222c3.167,1.816 7.074,2.724 11.72,2.724Z" style="fill:#fff;fill-rule:nonzero;"/>
        <path d="M1830.67,591.002c-0.845,-0.929 -2.07,-1.922 -3.675,-2.978c-1.605,-1.056 -3.484,-2.048 -5.638,-2.977c-2.154,-0.929 -4.519,-1.69 -7.096,-2.281c-2.576,-0.591 -5.216,-0.887 -7.919,-0.887c-5.997,0 -10.411,1.098 -13.24,3.294c-2.83,2.197 -4.245,5.238 -4.245,9.123c0,2.196 0.443,3.991 1.33,5.385c0.887,1.394 2.26,2.619 4.118,3.675c1.859,1.055 4.181,1.985 6.969,2.787c2.788,0.803 6.04,1.668 9.756,2.598c4.562,1.098 8.68,2.322 12.354,3.674c3.674,1.352 6.779,2.999 9.313,4.941c2.534,1.943 4.498,4.33 5.892,7.159c1.393,2.83 2.09,6.272 2.09,10.327c0,4.561 -0.866,8.489 -2.597,11.783c-1.732,3.295 -4.097,5.977 -7.096,8.046c-2.998,2.07 -6.483,3.59 -10.453,4.561c-3.97,0.972 -8.236,1.458 -12.797,1.458c-6.842,0 -13.452,-1.035 -19.829,-3.105c-6.378,-2.069 -12.143,-5.089 -17.296,-9.059l6.462,-12.164c1.098,1.098 2.682,2.323 4.752,3.675c2.069,1.351 4.477,2.597 7.222,3.737c2.745,1.141 5.723,2.112 8.933,2.915c3.21,0.802 6.546,1.203 10.009,1.203c5.575,0 9.883,-0.971 12.924,-2.914c3.041,-1.943 4.562,-4.815 4.562,-8.616c0,-2.28 -0.571,-4.181 -1.711,-5.701c-1.14,-1.521 -2.766,-2.851 -4.878,-3.992c-2.112,-1.14 -4.688,-2.175 -7.729,-3.104c-3.041,-0.929 -6.504,-1.901 -10.39,-2.914c-4.477,-1.183 -8.383,-2.429 -11.72,-3.738c-3.337,-1.309 -6.103,-2.893 -8.299,-4.751c-2.196,-1.859 -3.865,-4.034 -5.005,-6.526c-1.14,-2.492 -1.711,-5.511 -1.711,-9.059c0,-4.393 0.845,-8.299 2.535,-11.72c1.689,-3.421 3.991,-6.293 6.905,-8.616c2.914,-2.323 6.356,-4.076 10.326,-5.259c3.97,-1.182 8.278,-1.773 12.924,-1.773c6.082,0 11.699,0.971 16.852,2.914c5.153,1.943 9.672,4.35 13.558,7.222l-6.462,11.657Z" style="fill:#fff;fill-rule:nonzero;"/>
        <path d="M1926.59,582.386l-29.902,0l0,77.417l-14.318,0l0,-77.417l-30.029,0l0,-12.544l74.249,0l0,12.544Z" style="fill:#fff;fill-rule:nonzero;"/>
        <path d="M1944.96,659.803l0,-89.961l39.152,0c4.055,0 7.793,0.845 11.214,2.534c3.421,1.69 6.356,3.907 8.806,6.652c2.449,2.746 4.371,5.871 5.765,9.376c1.393,3.506 2.09,7.075 2.09,10.707c0,3.041 -0.422,5.955 -1.267,8.743c-0.844,2.787 -2.027,5.363 -3.547,7.729c-1.521,2.365 -3.379,4.413 -5.575,6.145c-2.197,1.731 -4.604,3.02 -7.223,3.864l21.16,34.211l-16.091,0l-19.513,-31.296l-20.78,0l0,31.296l-14.191,0Zm14.191,-43.84l24.835,0c2.027,0 3.864,-0.444 5.511,-1.331c1.647,-0.887 3.062,-2.111 4.245,-3.674c1.182,-1.563 2.112,-3.358 2.787,-5.385c0.676,-2.027 1.014,-4.181 1.014,-6.462c0,-2.281 -0.401,-4.435 -1.204,-6.462c-0.802,-2.027 -1.858,-3.801 -3.167,-5.322c-1.31,-1.52 -2.83,-2.724 -4.562,-3.611c-1.731,-0.887 -3.526,-1.33 -5.385,-1.33l-24.074,0l0,33.577Z" style="fill:#fff;fill-rule:nonzero;"/>
        <path d="M2060.14,569.842l12.417,0l35.478,89.961l-14.951,0l-9.503,-24.454l-34.717,0l-9.377,24.454l-15.078,0l35.731,-89.961Zm20.653,54.99l-14.444,-38.645l-14.951,38.645l29.395,0Z" style="fill:#fff;fill-rule:nonzero;"/>
        <path d="M2125.51,659.803l0,-89.961l14.191,0l0,77.417l48.275,0l0,12.544l-62.466,0Z" style="fill:#fff;fill-rule:nonzero;"/>
        <rect x="2205.85" y="569.842" width="14.191" height="89.961" style="fill:#fff;fill-rule:nonzero;"/>
        <path d="M2273.13,569.842l12.417,0l35.478,89.961l-14.951,0l-9.503,-24.454l-34.717,0l-9.377,24.454l-15.078,0l35.731,-89.961Zm20.653,54.99l-14.444,-38.645l-14.951,38.645l29.395,0Z" style="fill:#fff;fill-rule:nonzero;"/>
        <path d="M1179.29,339.189l0,-72.181l-26.155,52.48l-14.946,0l-26.155,-52.48l0,72.181l-27.854,0l0,-120.585l30.232,0l31.25,63.01l31.42,-63.01l30.062,0l0,120.585l-27.854,0Z" style="fill:#fff;fill-rule:nonzero;"/>
        <path d="M1263.02,218.604l25.137,0l43.988,120.585l-28.533,0l-9.341,-27.004l-37.535,0l-9.171,27.004l-28.533,0l43.988,-120.585Zm26.665,74.389l-14.097,-42.63l-14.436,42.63l28.533,0Z" style="fill:#fff;fill-rule:nonzero;"/>
        <path d="M1344.03,339.189l0,-120.585l54.349,0c5.661,0 10.898,1.189 15.71,3.566c4.812,2.378 8.973,5.492 12.483,9.341c3.51,3.85 6.256,8.209 8.237,13.078c1.982,4.869 2.972,9.794 2.972,14.776c0,3.736 -0.453,7.331 -1.358,10.785c-0.906,3.453 -2.208,6.708 -3.907,9.765c-1.698,3.057 -3.764,5.803 -6.199,8.238c-2.434,2.434 -5.18,4.5 -8.237,6.199l26.495,44.837l-31.42,0l-23.098,-38.893l-18.173,0l0,38.893l-27.854,0Zm27.854,-63.18l25.476,0c3.283,0 6.114,-1.557 8.492,-4.67c2.377,-3.114 3.566,-7.105 3.566,-11.974c0,-4.982 -1.358,-8.945 -4.076,-11.889c-2.717,-2.944 -5.661,-4.416 -8.831,-4.416l-24.627,0l0,32.949Z" style="fill:#fff;fill-rule:nonzero;"/>
        <path d="M1450.86,277.877c0,-7.246 1.359,-14.464 4.076,-21.654c2.717,-7.19 6.68,-13.615 11.889,-19.277c5.208,-5.661 11.549,-10.247 19.022,-13.757c7.473,-3.51 15.964,-5.265 25.475,-5.265c11.323,0 21.145,2.435 29.467,7.303c8.323,4.869 14.522,11.21 18.598,19.022l-21.4,14.946c-1.359,-3.17 -3.085,-5.803 -5.18,-7.897c-2.095,-2.095 -4.387,-3.793 -6.878,-5.096c-2.491,-1.302 -5.039,-2.207 -7.643,-2.717c-2.604,-0.51 -5.152,-0.764 -7.643,-0.764c-5.322,0 -9.964,1.075 -13.927,3.227c-3.963,2.151 -7.246,4.925 -9.85,8.322c-2.605,3.397 -4.529,7.246 -5.775,11.549c-1.245,4.302 -1.868,8.662 -1.868,13.077c0,4.756 0.736,9.341 2.208,13.757c1.472,4.416 3.595,8.322 6.369,11.719c2.774,3.397 6.114,6.086 10.02,8.067c3.907,1.982 8.294,2.973 13.163,2.973c2.491,0 5.067,-0.312 7.727,-0.934c2.661,-0.623 5.209,-1.586 7.643,-2.888c2.434,-1.302 4.671,-3 6.709,-5.095c2.038,-2.095 3.68,-4.67 4.925,-7.728l22.758,13.418c-1.811,4.416 -4.5,8.378 -8.067,11.888c-3.566,3.51 -7.671,6.454 -12.313,8.832c-4.642,2.378 -9.568,4.189 -14.776,5.435c-5.209,1.245 -10.304,1.868 -15.286,1.868c-8.718,0 -16.729,-1.783 -24.032,-5.35c-7.303,-3.566 -13.587,-8.294 -18.852,-14.181c-5.265,-5.888 -9.341,-12.568 -12.228,-20.041c-2.887,-7.473 -4.331,-15.059 -4.331,-22.759Z" style="fill:#fff;fill-rule:nonzero;"/>
        <path d="M1678.44,218.604l0,120.585l-27.854,0l0,-49.423l-48.064,0l0,49.423l-27.854,0l0,-120.585l27.854,0l0,46.705l48.064,0l0,-46.705l27.854,0Z" style="fill:#fff;fill-rule:nonzero;"/>
        <path d="M1741.11,339.189l0,-120.585l81.862,0l0,24.456l-54.008,0l0,25.986l44.497,0l0,22.588l-44.497,0l0,47.555l-27.854,0Z" style="fill:#fff;fill-rule:nonzero;"/>
        <path d="M1887.85,340.208c-8.945,0 -17.098,-1.755 -24.457,-5.265c-7.36,-3.51 -13.644,-8.124 -18.852,-13.842c-5.209,-5.718 -9.256,-12.256 -12.144,-19.616c-2.887,-7.36 -4.331,-14.946 -4.331,-22.758c0,-7.926 1.501,-15.569 4.501,-22.929c3.001,-7.359 7.19,-13.842 12.568,-19.446c5.378,-5.605 11.747,-10.077 19.107,-13.417c7.36,-3.341 15.399,-5.011 24.117,-5.011c8.945,0 17.097,1.755 24.457,5.265c7.359,3.51 13.644,8.153 18.852,13.927c5.208,5.775 9.228,12.342 12.058,19.701c2.831,7.36 4.246,14.833 4.246,22.419c0,7.926 -1.5,15.569 -4.5,22.928c-3.001,7.36 -7.162,13.842 -12.483,19.447c-5.322,5.604 -11.663,10.105 -19.022,13.502c-7.36,3.397 -15.399,5.095 -24.117,5.095Zm-31.421,-61.142c0,4.642 0.68,9.143 2.038,13.502c1.359,4.36 3.369,8.238 6.03,11.634c2.661,3.397 5.972,6.114 9.935,8.153c3.963,2.038 8.492,3.057 13.587,3.057c5.322,0 9.964,-1.076 13.927,-3.227c3.963,-2.152 7.247,-4.954 9.851,-8.407c2.604,-3.454 4.557,-7.36 5.859,-11.719c1.302,-4.359 1.953,-8.803 1.953,-13.332c0,-4.643 -0.679,-9.143 -2.038,-13.503c-1.358,-4.359 -3.396,-8.209 -6.114,-11.549c-2.717,-3.34 -6.029,-6.001 -9.935,-7.982c-3.907,-1.982 -8.407,-2.972 -13.503,-2.972c-5.321,0 -9.935,1.047 -13.841,3.142c-3.907,2.094 -7.19,4.84 -9.851,8.237c-2.661,3.397 -4.642,7.275 -5.944,11.634c-1.303,4.359 -1.954,8.803 -1.954,13.332Z" style="fill:#fff;fill-rule:nonzero;"/>
        <path d="M1964.11,339.189l0,-120.585l54.348,0c5.662,0 10.898,1.189 15.71,3.566c4.813,2.378 8.974,5.492 12.484,9.341c3.51,3.85 6.255,8.209 8.237,13.078c1.981,4.869 2.972,9.794 2.972,14.776c0,3.736 -0.453,7.331 -1.359,10.785c-0.906,3.453 -2.208,6.708 -3.906,9.765c-1.698,3.057 -3.765,5.803 -6.199,8.238c-2.435,2.434 -5.18,4.5 -8.237,6.199l26.494,44.837l-31.42,0l-23.098,-38.893l-18.172,0l0,38.893l-27.854,0Zm27.854,-63.18l25.475,0c3.284,0 6.115,-1.557 8.492,-4.67c2.378,-3.114 3.567,-7.105 3.567,-11.974c0,-4.982 -1.359,-8.945 -4.076,-11.889c-2.718,-2.944 -5.662,-4.416 -8.832,-4.416l-24.626,0l0,32.949Z" style="fill:#fff;fill-rule:nonzero;"/>
        <path d="M2189.83,253.93c-0.34,-0.453 -1.529,-1.302 -3.567,-2.547c-2.038,-1.246 -4.586,-2.548 -7.643,-3.907c-3.057,-1.358 -6.397,-2.547 -10.02,-3.566c-3.624,-1.019 -7.247,-1.529 -10.87,-1.529c-9.964,0 -14.946,3.34 -14.946,10.021c0,2.038 0.538,3.736 1.614,5.095c1.075,1.358 2.661,2.576 4.755,3.651c2.095,1.076 4.727,2.067 7.898,2.972c3.17,0.906 6.85,1.925 11.039,3.057c5.775,1.586 10.983,3.312 15.625,5.181c4.643,1.868 8.577,4.189 11.804,6.963c3.227,2.774 5.718,6.142 7.473,10.105c1.755,3.963 2.633,8.719 2.633,14.267c0,6.793 -1.274,12.54 -3.822,17.238c-2.547,4.699 -5.916,8.492 -10.105,11.38c-4.19,2.887 -9.002,4.982 -14.437,6.284c-5.434,1.302 -11.039,1.953 -16.814,1.953c-4.415,0 -8.944,-0.34 -13.587,-1.019c-4.642,-0.68 -9.171,-1.67 -13.587,-2.972c-4.416,-1.303 -8.69,-2.859 -12.823,-4.671c-4.132,-1.812 -7.954,-3.906 -11.464,-6.284l12.229,-24.287c0.453,0.566 1.925,1.642 4.416,3.227c2.491,1.585 5.576,3.17 9.256,4.755c3.68,1.586 7.784,3.001 12.313,4.246c4.529,1.246 9.115,1.869 13.757,1.869c9.851,0 14.776,-3.001 14.776,-9.002c0,-2.264 -0.736,-4.133 -2.208,-5.604c-1.472,-1.472 -3.51,-2.803 -6.114,-3.992c-2.604,-1.189 -5.69,-2.293 -9.256,-3.312c-3.567,-1.019 -7.445,-2.151 -11.634,-3.396c-5.548,-1.699 -10.36,-3.539 -14.437,-5.52c-4.076,-1.982 -7.444,-4.274 -10.105,-6.879c-2.661,-2.604 -4.642,-5.604 -5.944,-9.001c-1.302,-3.397 -1.953,-7.36 -1.953,-11.889c0,-6.34 1.188,-11.945 3.566,-16.814c2.378,-4.868 5.605,-8.973 9.681,-12.313c4.076,-3.34 8.803,-5.859 14.181,-7.558c5.379,-1.698 11.068,-2.547 17.069,-2.547c4.19,0 8.322,0.396 12.398,1.188c4.077,0.793 7.983,1.812 11.719,3.058c3.737,1.245 7.218,2.66 10.445,4.246c3.227,1.585 6.199,3.17 8.917,4.755l-12.228,23.098Z" style="fill:#fff;fill-rule:nonzero;"/>
        <path d="M2214.96,277.877c0,-7.246 1.358,-14.464 4.076,-21.654c2.717,-7.19 6.68,-13.615 11.888,-19.277c5.209,-5.661 11.549,-10.247 19.022,-13.757c7.473,-3.51 15.965,-5.265 25.476,-5.265c11.323,0 21.145,2.435 29.467,7.303c8.322,4.869 14.521,11.21 18.597,19.022l-21.399,14.946c-1.359,-3.17 -3.086,-5.803 -5.18,-7.897c-2.095,-2.095 -4.388,-3.793 -6.879,-5.096c-2.491,-1.302 -5.038,-2.207 -7.642,-2.717c-2.605,-0.51 -5.152,-0.764 -7.643,-0.764c-5.322,0 -9.964,1.075 -13.927,3.227c-3.963,2.151 -7.246,4.925 -9.851,8.322c-2.604,3.397 -4.529,7.246 -5.774,11.549c-1.246,4.302 -1.868,8.662 -1.868,13.077c0,4.756 0.736,9.341 2.208,13.757c1.472,4.416 3.594,8.322 6.369,11.719c2.774,3.397 6.114,6.086 10.02,8.067c3.906,1.982 8.294,2.973 13.162,2.973c2.491,0 5.067,-0.312 7.728,-0.934c2.661,-0.623 5.209,-1.586 7.643,-2.888c2.434,-1.302 4.67,-3 6.708,-5.095c2.039,-2.095 3.68,-4.67 4.926,-7.728l22.758,13.418c-1.811,4.416 -4.501,8.378 -8.067,11.888c-3.567,3.51 -7.671,6.454 -12.313,8.832c-4.643,2.378 -9.568,4.189 -14.776,5.435c-5.209,1.245 -10.304,1.868 -15.286,1.868c-8.718,0 -16.729,-1.783 -24.032,-5.35c-7.303,-3.566 -13.587,-8.294 -18.852,-14.181c-5.265,-5.888 -9.341,-12.568 -12.228,-20.041c-2.888,-7.473 -4.331,-15.059 -4.331,-22.759Z" style="fill:#fff;fill-rule:nonzero;"/>
        <rect x="2338.77" y="218.604" width="27.854" height="120.585" style="fill:#fff;fill-rule:nonzero;"/>
        <path d="M2474.47,314.732l0,24.457l-84.749,0l0,-120.585l83.22,0l0,24.456l-55.367,0l0,23.438l47.555,0l0,22.589l-47.555,0l0,25.645l56.896,0Z" style="fill:#fff;fill-rule:nonzero;"/>
        <path d="M2519.31,270.235l0,68.954l-27.853,0l0,-120.585l21.739,0l56.217,70.822l0,-70.822l27.853,0l0,120.585l-22.418,0l-55.538,-68.954Z" style="fill:#fff;fill-rule:nonzero;"/>
        <path d="M2613.4,277.877c0,-7.246 1.359,-14.464 4.076,-21.654c2.717,-7.19 6.68,-13.615 11.889,-19.277c5.208,-5.661 11.549,-10.247 19.022,-13.757c7.473,-3.51 15.964,-5.265 25.475,-5.265c11.323,0 21.145,2.435 29.467,7.303c8.323,4.869 14.522,11.21 18.598,19.022l-21.4,14.946c-1.359,-3.17 -3.085,-5.803 -5.18,-7.897c-2.095,-2.095 -4.387,-3.793 -6.878,-5.096c-2.491,-1.302 -5.039,-2.207 -7.643,-2.717c-2.604,-0.51 -5.152,-0.764 -7.643,-0.764c-5.322,0 -9.964,1.075 -13.927,3.227c-3.963,2.151 -7.246,4.925 -9.85,8.322c-2.605,3.397 -4.529,7.246 -5.775,11.549c-1.245,4.302 -1.868,8.662 -1.868,13.077c0,4.756 0.736,9.341 2.208,13.757c1.472,4.416 3.595,8.322 6.369,11.719c2.774,3.397 6.114,6.086 10.02,8.067c3.907,1.982 8.294,2.973 13.163,2.973c2.491,0 5.067,-0.312 7.727,-0.934c2.661,-0.623 5.209,-1.586 7.643,-2.888c2.435,-1.302 4.671,-3 6.709,-5.095c2.038,-2.095 3.68,-4.67 4.925,-7.728l22.758,13.418c-1.811,4.416 -4.5,8.378 -8.067,11.888c-3.566,3.51 -7.671,6.454 -12.313,8.832c-4.642,2.378 -9.568,4.189 -14.776,5.435c-5.209,1.245 -10.304,1.868 -15.286,1.868c-8.718,0 -16.729,-1.783 -24.032,-5.35c-7.303,-3.566 -13.587,-8.294 -18.852,-14.181c-5.265,-5.888 -9.341,-12.568 -12.228,-20.041c-2.887,-7.473 -4.331,-15.059 -4.331,-22.759Z" style="fill:#fff;fill-rule:nonzero;"/>
        <path d="M2821.96,314.732l0,24.457l-84.75,0l0,-120.585l83.221,0l0,24.456l-55.367,0l0,23.438l47.555,0l0,22.589l-47.555,0l0,25.645l56.896,0Z" style="fill:#fff;fill-rule:nonzero;"/>
        <path d="M1711.74,462.979l-10.854,0l0,16.807l-7.953,0l0,-16.807l-35.565,0l0,-7.253l34.714,-49.47l8.804,0l0,49.17l10.854,0l0,7.553Zm-18.807,-7.553l0,-24.31c0,-4.769 0.166,-10.154 0.5,-16.157l-0.4,0c-1.601,3.201 -3.102,5.853 -4.502,7.953l-22.86,32.514l27.262,0Z" style="fill:#fff;fill-rule:nonzero;"/>
        <path d="M1793.07,479.786l-24.81,-64.827l-0.401,0c0.467,5.136 0.701,11.238 0.701,18.308l0,46.519l-7.853,0l0,-73.13l12.805,0l23.159,60.325l0.401,0l23.359,-60.325l12.705,0l0,73.13l-8.503,0l0,-47.12c0,-5.402 0.233,-11.271 0.7,-17.607l-0.4,0l-25.01,64.727l-6.853,0Z" style="fill:#fff;fill-rule:nonzero;"/>
        <path d="M1890.78,479.786l-1.65,-7.803l-0.401,0c-2.734,3.434 -5.46,5.76 -8.178,6.978c-2.718,1.217 -6.111,1.825 -10.179,1.825c-5.436,0 -9.696,-1.4 -12.78,-4.201c-3.085,-2.802 -4.627,-6.787 -4.627,-11.955c0,-11.072 8.853,-16.874 26.561,-17.408l9.303,-0.3l0,-3.401c0,-4.302 -0.925,-7.478 -2.776,-9.529c-1.85,-2.051 -4.81,-3.076 -8.878,-3.076c-4.569,0 -9.738,1.4 -15.507,4.201l-2.551,-6.352c2.701,-1.467 5.661,-2.618 8.879,-3.452c3.218,-0.833 6.444,-1.25 9.679,-1.25c6.536,0 11.38,1.45 14.531,4.352c3.151,2.901 4.727,7.553 4.727,13.955l0,37.416l-6.153,0Zm-18.758,-5.853c5.169,0 9.229,-1.417 12.181,-4.251c2.951,-2.835 4.426,-6.803 4.426,-11.905l0,-4.952l-8.303,0.35c-6.603,0.233 -11.363,1.259 -14.281,3.076c-2.918,1.818 -4.377,4.644 -4.377,8.479c0,3.001 0.909,5.285 2.726,6.852c1.818,1.568 4.36,2.351 7.628,2.351Z" style="fill:#fff;fill-rule:nonzero;"/>
        <path d="M1910.45,424.963l8.904,0l12.005,31.263c2.634,7.136 4.268,12.289 4.902,15.457l0.4,0c0.434,-1.701 1.342,-4.611 2.726,-8.729c1.384,-4.118 5.911,-16.782 13.581,-37.991l8.904,0l-23.56,62.426c-2.334,6.169 -5.061,10.546 -8.178,13.13c-3.118,2.585 -6.945,3.877 -11.48,3.877c-2.535,0 -5.036,-0.283 -7.503,-0.85l0,-6.653c1.834,0.4 3.885,0.6 6.152,0.6c5.703,0 9.771,-3.201 12.205,-9.604l3.052,-7.803l-22.11,-55.123Z" style="fill:#fff;fill-rule:nonzero;"/>
        <path d="M2051.9,479.786l-48.07,0l0,-7.153l19.258,-19.358c5.869,-5.936 9.737,-10.171 11.605,-12.705c1.867,-2.535 3.268,-5.002 4.201,-7.403c0.934,-2.401 1.401,-4.986 1.401,-7.754c0,-3.901 -1.184,-6.994 -3.551,-9.278c-2.368,-2.285 -5.653,-3.427 -9.855,-3.427c-3.034,0 -5.91,0.5 -8.628,1.501c-2.718,1 -5.744,2.818 -9.079,5.452l-4.402,-5.652c6.736,-5.603 14.073,-8.404 22.009,-8.404c6.87,0 12.255,1.759 16.157,5.277c3.902,3.519 5.853,8.245 5.853,14.181c0,4.636 -1.301,9.221 -3.902,13.756c-2.601,4.535 -7.47,10.271 -14.606,17.207l-16.007,15.657l0,0.4l37.616,0l0,7.703Z" style="fill:#fff;fill-rule:nonzero;"/>
        <path d="M2116,443.121c0,12.638 -1.992,22.076 -5.977,28.311c-3.985,6.236 -10.079,9.354 -18.283,9.354c-7.87,0 -13.855,-3.193 -17.957,-9.579c-4.102,-6.386 -6.153,-15.748 -6.153,-28.086c0,-12.739 1.984,-22.193 5.953,-28.362c3.968,-6.169 10.021,-9.254 18.157,-9.254c7.937,0 13.964,3.218 18.083,9.654c4.118,6.436 6.177,15.757 6.177,27.962Zm-39.966,0c0,10.637 1.25,18.382 3.751,23.234c2.501,4.852 6.486,7.278 11.955,7.278c5.536,0 9.546,-2.459 12.03,-7.378c2.485,-4.918 3.727,-12.63 3.727,-23.134c0,-10.505 -1.242,-18.199 -3.727,-23.085c-2.484,-4.885 -6.494,-7.328 -12.03,-7.328c-5.469,0 -9.454,2.41 -11.955,7.228c-2.501,4.819 -3.751,12.547 -3.751,23.185Z" style="fill:#fff;fill-rule:nonzero;"/>
        <path d="M2161.99,479.786l-8.103,0l0,-52.122c0,-4.335 0.133,-8.436 0.4,-12.305c-0.7,0.701 -1.484,1.434 -2.351,2.201c-0.867,0.767 -4.835,4.019 -11.905,9.754l-4.402,-5.702l19.358,-14.956l7.003,0l0,73.13Z" style="fill:#fff;fill-rule:nonzero;"/>
        <path d="M2242.99,437.869c0,28.611 -11.072,42.917 -33.214,42.917c-3.868,0 -6.936,-0.333 -9.204,-1l0,-7.153c2.668,0.867 5.703,1.3 9.104,1.3c8.003,0 14.047,-2.476 18.132,-7.428c4.085,-4.952 6.311,-12.546 6.678,-22.784l-0.6,0c-1.834,2.768 -4.268,4.877 -7.303,6.328c-3.035,1.45 -6.453,2.175 -10.254,2.175c-6.47,0 -11.605,-1.934 -15.407,-5.802c-3.801,-3.868 -5.702,-9.27 -5.702,-16.207c0,-7.603 2.126,-13.605 6.378,-18.007c4.251,-4.402 9.845,-6.603 16.782,-6.603c4.968,0 9.312,1.276 13.03,3.827c3.718,2.551 6.578,6.269 8.578,11.154c2.001,4.886 3.002,10.646 3.002,17.283Zm-24.61,-25.161c-4.769,0 -8.454,1.534 -11.055,4.602c-2.601,3.068 -3.902,7.336 -3.902,12.805c0,4.802 1.201,8.579 3.602,11.33c2.401,2.751 6.052,4.127 10.954,4.127c3.035,0 5.828,-0.617 8.379,-1.851c2.551,-1.234 4.56,-2.918 6.027,-5.052c1.468,-2.134 2.201,-4.369 2.201,-6.703c0,-3.501 -0.683,-6.736 -2.051,-9.704c-1.367,-2.968 -3.276,-5.302 -5.727,-7.003c-2.451,-1.7 -5.26,-2.551 -8.428,-2.551Z" style="fill:#fff;fill-rule:nonzero;"/>
        <rect x="885.134" y="444.566" width="687.529" height="10.385" style="fill:#fff;"/>
        <rect x="2333.48" y="444.566" width="687.529" height="10.385" style="fill:#fff;"/>
    </g>
</svg>
