<?xml version="1.0" encoding="UTF-8" standalone="no"?>
<!DOCTYPE svg PUBLIC "-//W3C//DTD SVG 1.1//EN" "http://www.w3.org/Graphics/SVG/1.1/DTD/svg11.dtd">
<svg width="100%" height="100%" viewBox="0 0 3302 1651" version="1.1" xmlns="http://www.w3.org/2000/svg" xmlns:xlink="http://www.w3.org/1999/xlink" xml:space="preserve" xmlns:serif="http://www.serif.com/" style="fill-rule:evenodd;clip-rule:evenodd;stroke-linejoin:round;stroke-miterlimit:1.41421;">
    <path d="M455.05,1390.72l0,-111.563l-40.425,81.113l-23.1,0l-40.425,-81.113l0,111.563l-43.05,0l0,-186.375l46.725,0l48.3,97.387l48.563,-97.387l46.462,0l0,186.375l-43.05,0Z" style="fill:#fff;fill-rule:nonzero;"/>
    <path d="M584.463,1204.34l38.85,0l67.987,186.375l-44.1,0l-14.437,-41.738l-58.013,0l-14.175,41.738l-44.1,0l67.988,-186.375Zm41.212,114.975l-21.787,-65.888l-22.313,65.888l44.1,0Z" style="fill:#fff;fill-rule:nonzero;"/>
    <path d="M709.675,1390.72l0,-186.375l84,0c8.75,0 16.844,1.837 24.281,5.512c7.438,3.675 13.869,8.488 19.294,14.438c5.425,5.95 9.669,12.687 12.731,20.212c3.063,7.525 4.594,15.138 4.594,22.838c0,5.775 -0.7,11.331 -2.1,16.668c-1.4,5.338 -3.412,10.369 -6.037,15.094c-2.625,4.725 -5.819,8.969 -9.582,12.731c-3.762,3.763 -8.006,6.957 -12.731,9.582l40.95,69.3l-48.562,0l-35.7,-60.113l-28.088,0l0,60.113l-43.05,0Zm43.05,-97.65l39.375,0c5.075,0 9.45,-2.407 13.125,-7.219c3.675,-4.813 5.513,-10.981 5.513,-18.506c0,-7.7 -2.1,-13.825 -6.3,-18.375c-4.2,-4.55 -8.75,-6.825 -13.65,-6.825l-38.063,0l0,50.925Z" style="fill:#fff;fill-rule:nonzero;"/>
    <path d="M874.788,1295.96c0,-11.2 2.1,-22.356 6.3,-33.469c4.2,-11.112 10.325,-21.043 18.375,-29.793c8.05,-8.75 17.85,-15.838 29.4,-21.263c11.55,-5.425 24.675,-8.137 39.375,-8.137c17.5,0 32.681,3.762 45.543,11.287c12.863,7.525 22.444,17.325 28.744,29.4l-33.075,23.1c-2.1,-4.9 -4.769,-8.969 -8.006,-12.206c-3.238,-3.238 -6.781,-5.863 -10.631,-7.875c-3.85,-2.013 -7.788,-3.413 -11.813,-4.2c-4.025,-0.788 -7.962,-1.181 -11.812,-1.181c-8.225,0 -15.4,1.662 -21.525,4.987c-6.125,3.325 -11.2,7.613 -15.225,12.863c-4.025,5.25 -7,11.2 -8.925,17.85c-1.925,6.65 -2.888,13.387 -2.888,20.212c0,7.35 1.138,14.438 3.413,21.263c2.275,6.825 5.556,12.862 9.843,18.112c4.288,5.25 9.45,9.406 15.488,12.469c6.037,3.062 12.819,4.594 20.344,4.594c3.85,0 7.831,-0.482 11.943,-1.444c4.113,-0.963 8.05,-2.45 11.813,-4.463c3.762,-2.012 7.219,-4.637 10.369,-7.875c3.15,-3.237 5.687,-7.218 7.612,-11.943l35.175,20.737c-2.8,6.825 -6.956,12.95 -12.469,18.375c-5.512,5.425 -11.856,9.975 -19.031,13.65c-7.175,3.675 -14.787,6.475 -22.837,8.4c-8.05,1.925 -15.925,2.888 -23.625,2.888c-13.475,0 -25.857,-2.757 -37.144,-8.269c-11.288,-5.513 -21,-12.819 -29.138,-21.919c-8.137,-9.1 -14.437,-19.425 -18.9,-30.975c-4.462,-11.55 -6.693,-23.275 -6.693,-35.175Z" style="fill:#fff;fill-rule:nonzero;"/>
    <path d="M1226.54,1204.34l0,186.375l-43.05,0l0,-76.388l-74.288,0l0,76.388l-43.05,0l0,-186.375l43.05,0l0,72.187l74.288,0l0,-72.187l43.05,0Z" style="fill:#fff;fill-rule:nonzero;"/>
    <path d="M1323.4,1390.72l0,-186.375l126.525,0l0,37.8l-83.475,0l0,40.162l68.775,0l0,34.913l-68.775,0l0,73.5l-43.05,0Z" style="fill:#fff;fill-rule:nonzero;"/>
    <path d="M1550.2,1392.29c-13.825,0 -26.425,-2.713 -37.8,-8.138c-11.375,-5.425 -21.088,-12.556 -29.137,-21.394c-8.051,-8.837 -14.307,-18.943 -18.769,-30.318c-4.463,-11.375 -6.694,-23.1 -6.694,-35.175c0,-12.25 2.319,-24.063 6.956,-35.438c4.638,-11.375 11.113,-21.394 19.425,-30.056c8.313,-8.663 18.157,-15.575 29.532,-20.738c11.375,-5.162 23.8,-7.743 37.275,-7.743c13.824,0 26.424,2.712 37.799,8.137c11.375,5.425 21.088,12.6 29.138,21.525c8.05,8.925 14.263,19.075 18.638,30.45c4.375,11.375 6.562,22.925 6.562,34.65c0,12.25 -2.319,24.063 -6.956,35.438c-4.638,11.375 -11.069,21.393 -19.294,30.056c-8.225,8.662 -18.025,15.619 -29.4,20.869c-11.375,5.25 -23.8,7.875 -37.275,7.875Zm-48.562,-94.5c0,7.175 1.05,14.131 3.15,20.868c2.1,6.738 5.206,12.732 9.318,17.982c4.113,5.25 9.232,9.45 15.357,12.6c6.125,3.15 13.125,4.725 21,4.725c8.225,0 15.4,-1.663 21.525,-4.988c6.125,-3.325 11.2,-7.656 15.225,-12.994c4.025,-5.337 7.043,-11.375 9.056,-18.112c2.012,-6.738 3.019,-13.606 3.019,-20.606c0,-7.175 -1.05,-14.132 -3.15,-20.869c-2.1,-6.738 -5.25,-12.688 -9.45,-17.85c-4.2,-5.163 -9.319,-9.275 -15.357,-12.338c-6.037,-3.062 -12.993,-4.593 -20.868,-4.593c-8.225,0 -15.357,1.618 -21.394,4.856c-6.038,3.237 -11.113,7.481 -15.225,12.731c-4.113,5.25 -7.175,11.244 -9.188,17.981c-2.012,6.738 -3.018,13.607 -3.018,20.607Z" style="fill:#fff;fill-rule:nonzero;"/>
    <path d="M1668.06,1390.72l-0.001,-186.375l84,0c8.75,0 16.844,1.837 24.282,5.512c7.437,3.675 13.869,8.488 19.294,14.438c5.424,5.95 9.668,12.687 12.731,20.212c3.062,7.525 4.593,15.138 4.593,22.838c0,5.775 -0.699,11.331 -2.1,16.668c-1.4,5.338 -3.412,10.369 -6.037,15.094c-2.625,4.725 -5.819,8.969 -9.581,12.731c-3.763,3.763 -8.007,6.957 -12.732,9.582l40.95,69.3l-48.562,0l-35.7,-60.113l-28.088,0l0,60.113l-43.05,0Zm43.05,-97.65l39.375,0c5.075,0 9.45,-2.407 13.125,-7.219c3.675,-4.813 5.513,-10.981 5.513,-18.506c0,-7.7 -2.1,-13.825 -6.3,-18.375c-4.2,-4.55 -8.75,-6.825 -13.65,-6.825l-38.063,0l0,50.925Z" style="fill:#fff;fill-rule:nonzero;"/>
    <path d="M2016.92,1258.94c-0.525,-0.7 -2.362,-2.013 -5.513,-3.938c-3.15,-1.925 -7.087,-3.937 -11.812,-6.037c-4.725,-2.1 -9.888,-3.938 -15.487,-5.513c-5.601,-1.575 -11.201,-2.362 -16.801,-2.362c-15.4,0 -23.1,5.162 -23.1,15.487c0,3.15 0.832,5.775 2.494,7.875c1.663,2.1 4.113,3.981 7.35,5.644c3.238,1.662 7.307,3.194 12.206,4.594c4.9,1.4 10.588,2.975 17.063,4.725c8.925,2.45 16.975,5.118 24.15,8.006c7.175,2.887 13.256,6.475 18.244,10.762c4.987,4.288 8.837,9.494 11.55,15.619c2.712,6.125 4.069,13.475 4.069,22.05c0,10.5 -1.969,19.381 -5.907,26.644c-3.937,7.262 -9.144,13.125 -15.619,17.587c-6.475,4.463 -13.912,7.7 -22.312,9.713c-8.4,2.012 -17.063,3.019 -25.988,3.019c-6.825,0 -13.825,-0.525 -21,-1.575c-7.175,-1.05 -14.175,-2.582 -21,-4.594c-6.825,-2.013 -13.431,-4.419 -19.818,-7.219c-6.388,-2.8 -12.294,-6.037 -17.719,-9.712l18.9,-37.538c0.7,0.875 2.975,2.538 6.825,4.988c3.85,2.45 8.619,4.9 14.306,7.35c5.688,2.45 12.031,4.637 19.031,6.562c7,1.925 14.088,2.888 21.263,2.888c15.225,0 22.837,-4.638 22.837,-13.913c0,-3.5 -1.137,-6.387 -3.412,-8.662c-2.275,-2.275 -5.425,-4.332 -9.45,-6.169c-4.025,-1.838 -8.794,-3.544 -14.306,-5.119c-5.513,-1.575 -11.506,-3.325 -17.981,-5.25c-8.576,-2.625 -16.013,-5.469 -22.313,-8.531c-6.3,-3.063 -11.506,-6.606 -15.619,-10.631c-4.112,-4.025 -7.175,-8.663 -9.187,-13.913c-2.013,-5.25 -3.019,-11.375 -3.019,-18.375c0,-9.8 1.837,-18.462 5.513,-25.987c3.674,-7.525 8.662,-13.869 14.962,-19.032c6.3,-5.162 13.606,-9.056 21.919,-11.681c8.312,-2.625 17.106,-3.937 26.381,-3.937c6.475,0 12.862,0.612 19.162,1.837c6.3,1.225 12.338,2.8 18.113,4.725c5.775,1.925 11.156,4.113 16.144,6.563c4.987,2.45 9.581,4.9 13.781,7.35l-18.9,35.7Z" style="fill:#fff;fill-rule:nonzero;"/>
    <path d="M2055.78,1295.96c0,-11.2 2.1,-22.356 6.3,-33.469c4.2,-11.112 10.325,-21.043 18.375,-29.793c8.05,-8.75 17.85,-15.838 29.4,-21.263c11.55,-5.425 24.675,-8.137 39.375,-8.137c17.5,0 32.681,3.762 45.544,11.287c12.862,7.525 22.443,17.325 28.743,29.4l-33.075,23.1c-2.1,-4.9 -4.768,-8.969 -8.006,-12.206c-3.237,-3.238 -6.781,-5.863 -10.631,-7.875c-3.85,-2.013 -7.788,-3.413 -11.813,-4.2c-4.025,-0.788 -7.962,-1.181 -11.812,-1.181c-8.225,0 -15.4,1.662 -21.525,4.987c-6.125,3.325 -11.2,7.613 -15.225,12.863c-4.025,5.25 -7,11.2 -8.925,17.85c-1.925,6.65 -2.888,13.387 -2.888,20.212c0,7.35 1.138,14.438 3.413,21.263c2.275,6.825 5.556,12.862 9.844,18.112c4.287,5.25 9.45,9.406 15.487,12.469c6.038,3.062 12.819,4.594 20.344,4.594c3.85,0 7.831,-0.482 11.944,-1.444c4.112,-0.963 8.05,-2.45 11.812,-4.463c3.763,-2.012 7.219,-4.637 10.369,-7.875c3.15,-3.237 5.687,-7.218 7.612,-11.943l35.175,20.737c-2.8,6.825 -6.956,12.95 -12.468,18.375c-5.513,5.425 -11.857,9.975 -19.032,13.65c-7.175,3.675 -14.787,6.475 -22.837,8.4c-8.05,1.925 -15.925,2.888 -23.625,2.888c-13.475,0 -25.856,-2.757 -37.144,-8.269c-11.287,-5.513 -21,-12.819 -29.137,-21.919c-8.138,-9.1 -14.438,-19.425 -18.9,-30.975c-4.463,-11.55 -6.694,-23.275 -6.694,-35.175Z" style="fill:#fff;fill-rule:nonzero;"/>
    <rect x="2247.14" y="1204.34" width="43.05" height="186.375" style="fill:#fff;fill-rule:nonzero;"/>
    <path d="M2456.88,1352.92l0,37.8l-130.988,0l0,-186.375l128.625,0l0,37.8l-85.575,0l0,36.225l73.5,0l0,34.912l-73.5,0l0,39.638l87.938,0Z" style="fill:#fff;fill-rule:nonzero;"/>
    <path d="M2526.18,1284.14l0,106.575l-43.05,0l0,-186.375l33.6,0l86.888,109.462l0,-109.462l43.05,0l-0.001,186.375l-34.649,0l-85.838,-106.575Z" style="fill:#fff;fill-rule:nonzero;"/>
    <path d="M2671.6,1295.96c0,-11.2 2.1,-22.356 6.3,-33.469c4.2,-11.112 10.325,-21.043 18.375,-29.793c8.05,-8.75 17.85,-15.838 29.4,-21.263c11.55,-5.425 24.675,-8.137 39.375,-8.137c17.5,0 32.681,3.762 45.544,11.287c12.862,7.525 22.444,17.325 28.744,29.4l-33.075,23.1c-2.101,-4.9 -4.769,-8.969 -8.007,-12.206c-3.237,-3.238 -6.781,-5.863 -10.631,-7.875c-3.85,-2.013 -7.788,-3.413 -11.813,-4.2c-4.024,-0.788 -7.962,-1.181 -11.812,-1.181c-8.225,0 -15.4,1.662 -21.525,4.987c-6.125,3.325 -11.2,7.613 -15.225,12.863c-4.025,5.25 -7,11.2 -8.925,17.85c-1.925,6.65 -2.887,13.387 -2.887,20.212c0,7.35 1.137,14.438 3.412,21.263c2.275,6.825 5.556,12.862 9.844,18.112c4.287,5.25 9.45,9.406 15.487,12.469c6.038,3.062 12.819,4.594 20.344,4.594c3.85,0 7.831,-0.482 11.944,-1.444c4.112,-0.963 8.05,-2.45 11.812,-4.463c3.763,-2.012 7.219,-4.637 10.369,-7.875c3.15,-3.237 5.688,-7.218 7.613,-11.943l35.175,20.737c-2.8,6.825 -6.957,12.95 -12.469,18.375c-5.513,5.425 -11.856,9.975 -19.031,13.65c-7.175,3.675 -14.788,6.475 -22.838,8.4c-8.05,1.925 -15.925,2.888 -23.625,2.888c-13.475,0 -25.856,-2.757 -37.144,-8.269c-11.287,-5.513 -21,-12.819 -29.137,-21.919c-8.138,-9.1 -14.438,-19.425 -18.9,-30.975c-4.463,-11.55 -6.694,-23.275 -6.694,-35.175Z" style="fill:#fff;fill-rule:nonzero;"/>
    <path d="M2993.95,1352.92l0,37.8l-130.988,0l0,-186.375l128.625,0l0,37.8l-85.575,0l0,36.225l73.5,0l0,34.912l-73.5,0l0,39.638l87.938,0Z" style="fill:#fff;fill-rule:nonzero;"/>
    <path d="M1278.01,1582.05l-16.777,0l0,25.976l-12.292,0l0,-25.976l-54.969,0l0,-11.211l53.654,-76.46l13.607,0l0,75.997l16.777,0l0,11.674Zm-29.069,-11.674l0,-37.574c0,-7.37 0.257,-15.694 0.773,-24.971l-0.619,0c-2.474,4.948 -4.793,9.045 -6.958,12.292l-35.331,50.253l42.135,0Z" style="fill:#fff;fill-rule:nonzero;"/>
    <path d="M1403.7,1608.02l-38.346,-100.195l-0.619,0c0.722,7.937 1.083,17.369 1.083,28.296l0,71.899l-12.138,0l0,-113.029l19.792,0l35.795,93.237l0.618,0l36.104,-93.237l19.637,0l0,113.029l-13.142,0l0,-72.827c0,-8.35 0.36,-17.421 1.082,-27.214l-0.619,0l-38.655,100.041l-10.592,0Z" style="fill:#fff;fill-rule:nonzero;"/>
    <path d="M1554.72,1608.02l-2.551,-12.06l-0.619,0c-4.226,5.308 -8.44,8.903 -12.64,10.784c-4.201,1.882 -9.445,2.822 -15.733,2.822c-8.401,0 -14.986,-2.164 -19.753,-6.494c-4.768,-4.329 -7.151,-10.488 -7.151,-18.477c0,-17.112 13.684,-26.08 41.052,-26.905l14.38,-0.463l0,-5.258c0,-6.648 -1.43,-11.558 -4.291,-14.727c-2.86,-3.17 -7.435,-4.755 -13.723,-4.755c-7.061,0 -15.05,2.165 -23.966,6.494l-3.943,-9.818c4.175,-2.268 8.749,-4.046 13.723,-5.335c4.973,-1.288 9.96,-1.933 14.959,-1.933c10.102,0 17.589,2.242 22.459,6.726c4.871,4.485 7.306,11.674 7.306,21.57l0,57.829l-9.509,0Zm-28.992,-9.045c7.989,0 14.264,-2.191 18.826,-6.572c4.561,-4.381 6.842,-10.514 6.842,-18.4l0,-7.654l-12.834,0.542c-10.205,0.36 -17.563,1.945 -22.072,4.754c-4.51,2.809 -6.765,7.177 -6.765,13.104c0,4.639 1.404,8.17 4.213,10.592c2.809,2.422 6.739,3.634 11.79,3.634Z" style="fill:#fff;fill-rule:nonzero;"/>
    <path d="M1585.14,1523.29l13.762,0l18.554,48.32c4.072,11.029 6.597,18.992 7.577,23.889l0.618,0c0.67,-2.629 2.075,-7.126 4.214,-13.491c2.139,-6.365 9.135,-25.938 20.99,-58.718l13.761,0l-36.414,96.484c-3.607,9.535 -7.821,16.3 -12.64,20.295c-4.819,3.994 -10.733,5.991 -17.743,5.991c-3.917,0 -7.782,-0.438 -11.596,-1.314l0,-10.282c2.834,0.618 6.004,0.927 9.509,0.927c8.813,0 15.101,-4.948 18.864,-14.843l4.716,-12.061l-34.172,-85.197Z" style="fill:#fff;fill-rule:nonzero;"/>
    <path d="M1803.76,1608.02l-74.296,0l0,-11.055l29.765,-29.92c9.071,-9.174 15.049,-15.72 17.936,-19.637c2.886,-3.917 5.051,-7.731 6.494,-11.442c1.443,-3.711 2.165,-7.705 2.165,-11.983c0,-6.03 -1.83,-10.811 -5.49,-14.341c-3.659,-3.531 -8.736,-5.296 -15.23,-5.296c-4.69,0 -9.135,0.773 -13.336,2.319c-4.201,1.546 -8.878,4.355 -14.032,8.427l-6.803,-8.736c10.411,-8.659 21.75,-12.988 34.017,-12.988c10.617,0 18.941,2.718 24.971,8.156c6.03,5.437 9.045,12.743 9.045,21.918c0,7.164 -2.01,14.251 -6.03,21.26c-4.02,7.01 -11.545,15.875 -22.575,26.595l-24.739,24.199l0,0.618l58.138,0l0,11.906Z" style="fill:#fff;fill-rule:nonzero;"/>
    <path d="M1902.82,1551.35c0,19.534 -3.079,34.12 -9.238,43.758c-6.159,9.638 -15.579,14.457 -28.258,14.457c-12.163,0 -21.415,-4.935 -27.754,-14.805c-6.34,-9.87 -9.51,-24.34 -9.51,-43.41c0,-19.689 3.067,-34.3 9.2,-43.835c6.134,-9.536 15.488,-14.303 28.064,-14.303c12.267,0 21.583,4.974 27.948,14.921c6.366,9.947 9.548,24.353 9.548,43.217Zm-61.771,0c0,16.441 1.932,28.412 5.798,35.911c3.866,7.499 10.025,11.249 18.477,11.249c8.556,0 14.754,-3.801 18.594,-11.404c3.84,-7.602 5.759,-19.521 5.759,-35.756c0,-16.235 -1.919,-28.128 -5.759,-35.679c-3.84,-7.551 -10.038,-11.326 -18.594,-11.326c-8.452,0 -14.611,3.724 -18.477,11.171c-3.866,7.448 -5.798,19.392 -5.798,35.834Z" style="fill:#fff;fill-rule:nonzero;"/>
    <path d="M1973.9,1608.02l-12.524,0l0,-80.558c0,-6.7 0.206,-13.04 0.618,-19.019c-1.082,1.083 -2.293,2.217 -3.633,3.402c-1.34,1.185 -7.474,6.211 -18.4,15.076l-6.804,-8.814l29.92,-23.116l10.823,0l0,113.029Z" style="fill:#fff;fill-rule:nonzero;"/>
    <path d="M2099.1,1543.24c0,44.222 -17.112,66.333 -51.335,66.333c-5.978,0 -10.72,-0.515 -14.225,-1.546l0,-11.055c4.123,1.34 8.814,2.01 14.071,2.01c12.37,0 21.711,-3.827 28.025,-11.481c6.314,-7.654 9.754,-19.392 10.321,-35.215l-0.928,0c-2.834,4.278 -6.597,7.538 -11.287,9.78c-4.69,2.242 -9.973,3.363 -15.849,3.363c-9.999,0 -17.936,-2.99 -23.812,-8.968c-5.875,-5.979 -8.813,-14.329 -8.813,-25.049c0,-11.752 3.286,-21.029 9.857,-27.832c6.571,-6.804 15.217,-10.205 25.938,-10.205c7.679,0 14.393,1.971 20.139,5.914c5.747,3.943 10.167,9.69 13.259,17.24c3.093,7.551 4.639,16.455 4.639,26.711Zm-38.037,-38.887c-7.37,0 -13.066,2.371 -17.086,7.112c-4.02,4.742 -6.03,11.339 -6.03,19.792c0,7.422 1.855,13.259 5.566,17.511c3.711,4.252 9.355,6.378 16.931,6.378c4.691,0 9.007,-0.953 12.95,-2.86c3.943,-1.907 7.048,-4.51 9.316,-7.809c2.268,-3.298 3.402,-6.752 3.402,-10.359c0,-5.412 -1.057,-10.412 -3.17,-14.999c-2.113,-4.587 -5.064,-8.195 -8.852,-10.823c-3.788,-2.629 -8.131,-3.943 -13.027,-3.943Z" style="fill:#fff;fill-rule:nonzero;"/>
    <rect x="0.415" y="1553.59" width="1062.63" height="16.05" style="fill:#fff;"/>
    <rect x="2238.95" y="1553.59" width="1062.63" height="16.05" style="fill:#fff;"/>
    <g id="light">
        <path d="M1629.22,1051.55l0,61.363c-137.973,0 -249.8,-242.347 -249.8,-541.233l47.004,0c0,264.992 90.802,479.87 202.796,479.87Z" style="fill:#f25f46;fill-rule:nonzero;"/>
        <path d="M1754.21,355.511c258.843,149.443 412.844,367.485 343.858,486.972l-53.141,-30.684c55.993,-96.993 -84.728,-283.081 -314.227,-415.583l23.51,-40.705Z" style="fill:#32bdbc;fill-rule:nonzero;"/>
        <path d="M1991.62,288.456c-95.286,-37.965 -280.292,1.295 -463.778,107.227l-23.502,-40.705c196.109,-113.222 396.453,-154.218 511.91,-115.695c-13.302,13.594 -21.778,30.888 -24.63,49.173" style="fill:#fff;fill-rule:nonzero;"/>
        <path d="M1213.74,811.412l-53.145,30.684c-68.986,-119.488 85.482,-338.008 344.32,-487.451l23.502,40.701c-229.491,132.506 -370.674,319.077 -314.677,416.066" style="fill:#fff;fill-rule:nonzero;"/>
        <path d="M1754.78,355.844l-23.681,40.601c-229.529,-132.519 -461.381,-161.521 -517.369,-64.532l-53.112,-30.659c68.991,-119.491 335.282,-94.869 594.162,54.59Z" style="fill:#32bdbc;fill-rule:nonzero;"/>
        <path d="M1879.02,571.642c0,298.877 -112.235,541.274 -250.212,541.274l0,-61.367c111.997,0 203.208,-214.915 203.208,-479.907l47.004,0Z" style="fill:#f25f46;fill-rule:nonzero;"/>
        <path d="M1565.43,116.436c-80.518,63.532 -139.013,244.246 -139.013,456.118l-47.004,0c0,-226.444 64.656,-421.313 155.75,-502.04c5.121,18.319 15.862,34.306 30.267,45.922" style="fill:#f25f46;fill-rule:nonzero;"/>
        <path d="M1662.75,0c34.489,0 62.45,27.961 62.45,62.45c0,34.489 -27.961,62.45 -62.45,62.45c-34.489,0 -62.45,-27.961 -62.45,-62.45c0,-34.489 27.961,-62.45 62.45,-62.45" style="fill:#f25f46;fill-rule:nonzero;"/>
        <path d="M1153.3,257.61c17.244,-29.863 55.43,-40.097 85.294,-22.852c29.868,17.24 40.097,55.426 22.857,85.294c-17.245,29.863 -55.431,40.097 -85.294,22.852c-29.868,-17.24 -40.097,-55.43 -22.857,-85.294" style="fill:#32bdbc;fill-rule:nonzero;"/>
        <path d="M2140.54,312.416c17.249,29.864 7.015,68.05 -22.848,85.29c-29.868,17.245 -68.062,7.011 -85.294,-22.852c-17.245,-29.864 -7.016,-68.054 22.852,-85.294c29.86,-17.241 68.046,-7.011 85.29,22.856" style="fill:#fff;fill-rule:nonzero;"/>
        <path d="M1754.24,787.789c258.885,-149.459 412.778,-367.438 343.792,-486.93l-53.116,30.667c55.992,96.989 -84.649,283.036 -314.186,415.554l23.51,40.709Z" style="fill:#fff;fill-rule:nonzero;"/>
        <path d="M1879.02,572.633l-47.004,0c0,-265.034 -90.811,-480.865 -202.796,-480.865l0,-61.317c137.973,0 249.8,243.263 249.8,542.182Z" style="fill:#f25f46;fill-rule:nonzero;"/>
        <path d="M1203.19,399.484c14.759,101.498 141.466,241.665 324.952,347.601l-23.502,40.709c-196.105,-113.226 -331.988,-265.804 -356.351,-385.063c18.422,4.726 37.64,3.423 54.901,-3.247" style="fill:#32bdbc;fill-rule:nonzero;"/>
        <path d="M2044.99,811.45l53.149,30.679c-68.987,119.484 -335.423,94.649 -594.274,-54.789l23.502,-40.705c229.499,132.502 461.63,161.799 517.623,64.815Z" style="fill:#32bdbc;fill-rule:nonzero;"/>
        <path d="M1213.67,811.271l-53.15,30.679c68.991,119.488 338.288,94.341 594.412,-54.556l-23.507,-40.709c-226.768,131.94 -461.759,161.579 -517.755,64.586Z" style="fill:#fff;fill-rule:nonzero;"/>
        <circle cx="1631.11" cy="567.721" r="121.406" style="fill:#414142;"/>
        <path d="M1630.58,445.435c-67.862,0 -122.818,54.956 -122.818,122.818c0,67.866 54.956,122.818 122.818,122.818c67.862,0 122.818,-54.952 122.818,-122.818c0,-67.862 -54.956,-122.818 -122.818,-122.818Zm47.708,202.092c-0.537,-0.333 -2.702,-0.837 -3.077,-1.961c-0.833,-2.456 -0.708,-5.163 -0.999,-7.785c3.997,-0.042 7.998,-0.125 12.04,0c0.121,0 0.496,1.794 0.416,2.702c-0.295,3.788 -3.63,6.873 -8.38,7.044Zm41.471,-60.368c-0.921,2.123 -2.17,4.042 -2.873,6.245c-1.37,4.417 -3.164,8.326 -7.161,10.612c-0.92,0.504 -1.332,1.878 -1.998,2.873c-0.954,1.54 -1.957,2.997 -2.832,4.621c-1.994,3.739 -3.83,7.66 -5.953,11.324c-0.666,1.128 -1.832,2.169 -2.96,2.457c-3.285,0.915 -6.532,1.128 -9.572,3.58c-1.998,1.707 -6.128,2.29 -7.743,-0.458c-3.623,0.333 -6.37,0.833 -9.16,0.833c-1.54,0 -3.122,-1.129 -4.617,-1.129c-4.122,-0.041 -6.245,-1.577 -6.665,-6.494c-0.125,-1.707 -2.623,-3.373 -4.622,-5.746c0,-0.087 0.125,-1.295 0.292,-3.164c-1.707,1.249 -2.998,2.165 -4.33,3.164c-0.208,-0.166 -0.458,-0.333 -0.662,-0.499c0.787,-2.702 1.578,-5.371 2.286,-7.827c-2.578,2.123 -5.654,4.617 -8.743,7.161c-1.707,-2.865 -3.248,-4.996 -4.372,-7.328c-3.122,-6.411 -9.492,-6.503 -14.03,-7.078c-4.205,-0.495 -9.534,-2.081 -13.948,1.495c-2.123,1.665 -6.12,0.504 -8.992,1.545c-3.04,1.04 -6.412,2.498 -8.494,4.912c-2.747,3.244 -6.12,3.498 -9.117,2.29c-4.288,-1.703 -7.453,-0.583 -10.575,1.707c-4.663,3.456 -9.784,2.54 -14.946,0.708c-2.082,-0.783 -3.414,-2.082 -2.831,-5.204c0.749,-4.039 0.249,-8.239 -3.539,-11.162c-0.208,-0.204 -0.458,-0.329 -0.583,-0.587c-3.372,-6.408 -6.786,-12.773 -10.034,-19.272c-0.333,-0.712 0.5,-1.961 0.333,-2.919c-0.208,-1.623 -0.374,-3.705 -1.332,-4.613c-5.995,-5.87 -1.082,-12.282 -3.372,-18.277c0.416,-0.083 0.874,-0.208 1.29,-0.291c0.542,0.624 1.041,1.332 1.666,1.998c1.29,-1.29 2.456,-2.748 3.872,-3.872c2.831,-2.206 4.912,-5.87 9.617,-4.454c1.332,0.416 3.039,-1.249 4.621,-1.707c2.165,-0.625 4.33,-1.166 6.578,-1.374c3.789,-0.375 9.992,-7.494 9.576,-11.824c-0.333,-3.747 1.499,-5.496 3.83,-7.286c0.958,1.54 1.79,2.873 2.623,4.205c0.291,-0.083 0.583,-0.167 0.874,-0.208c0.084,-1.707 0.208,-3.414 0.333,-5.412c1,-0.209 2.082,-0.458 3.081,-0.708c0.084,-0.292 0.125,-0.458 0.125,-0.583c0.375,-6.703 6.037,-7.91 9.867,-10.95c2.748,-2.165 4.83,-0.208 7.286,1.874c2.123,1.832 5.079,2.539 6.953,3.414c1.832,-4.455 2.623,-9.201 5.246,-11.824c2.747,-2.665 7.244,-3.289 11.324,-5.038c-1.166,-1.54 -1.957,-2.623 -2.748,-3.663c0.083,-0.292 0.208,-0.583 0.333,-0.833c2.665,0.874 5.288,2.082 7.994,2.664c4.455,1 8.993,1.582 13.443,2.498c1.087,0.209 2.461,0.791 2.914,1.666c0.421,0.791 0.088,2.331 -0.374,3.289c-1.624,3.539 -3.414,6.994 -5.371,10.949c2.123,1.499 3.872,3.331 5.912,4.08c4.251,1.541 7.078,6.537 11.99,6.412c0.292,0 0.712,0.791 0.954,1.291c2.668,4.704 8.372,3.58 9.326,-1c0.999,-4.538 1.082,-9.326 1.748,-13.988c0.666,-4.747 1.416,-9.493 2.502,-14.156c0.458,-1.998 1.749,-3.705 2.665,-5.537c1.091,1.957 2.415,3.83 3.21,5.912c0.916,2.498 1.828,5.204 1.994,7.827c0.212,3.539 1.466,5.704 4.788,6.245c2.669,0.5 3.747,1.915 3.909,4.996c0.121,2.581 1.204,5.163 1.92,7.785c0.616,2.165 1.994,4.372 1.956,6.495c-0.087,4.251 1.824,6.911 5.117,8.285c5.084,2.165 7.24,6.37 8.747,11.449c0.167,0.5 0.167,1.458 0.45,1.582c5.87,2.623 5.629,10.538 10.7,14.073c1.253,0.915 1.79,3.996 1.873,6.032c0.167,4.209 -0.166,8.414 -0.458,12.611c-0.071,1.136 -0.616,2.265 -1.111,3.306Z" style="fill:#fff;fill-rule:nonzero;"/>
        <path d="M1212.96,810.03l1.482,2.544l-52.795,31.275l-2.157,-3.706l53.47,-30.113Z" style="fill:#fff;fill-rule:nonzero;"/>
        <path d="M1626.12,1112.87l6.116,-0.005l1.174,-61.442l-4.234,0.125l-0.37,0l-2.686,-0.125l0,61.447Z" style="fill:#f25f46;fill-rule:nonzero;"/>
        <path d="M2045.78,810.28l-1.578,2.506l52.72,31.396l2.357,-3.86l-53.499,-30.042Z" style="fill:#32bdbc;fill-rule:nonzero;"/>
        <path d="M1524.34,744.878l6.262,3.618l-22.07,41.525l-8.351,-4.813l24.159,-40.33Z" style="fill:#32bdbc;fill-rule:nonzero;"/>
        <path d="M1727.18,749.137l7.477,-4.334l25.08,39.797l-10.762,6.233l-21.795,-41.696Z" style="fill:#fff;fill-rule:nonzero;"/>
        <path d="M1832.01,569.39l0,5.299l47,1.399l-0.004,-8.78l-46.996,2.082Z" style="fill:#f25f46;fill-rule:nonzero;"/>
        <path d="M1379.43,567.678l0,7.977l47.008,1.562l-0.004,-9.368l-47.004,-0.171Z" style="fill:#f25f46;fill-rule:nonzero;"/>
        <path d="M1508.93,352.343l-8.223,4.742l21.204,42.045l10.974,-6.341l-23.955,-40.446Z" style="fill:#fff;fill-rule:nonzero;"/>
        <path d="M1750.66,353.471l7.344,4.238l-22.078,41.538l-10.225,-5.908l24.959,-39.868Z" style="fill:#32bdbc;fill-rule:nonzero;"/>
    </g>
</svg>
