<?xml version="1.0" encoding="utf-8"?>
<!-- Generator: Adobe Illustrator 18.0.0, SVG Export Plug-In . SVG Version: 6.00 Build 0)  -->
<!DOCTYPE svg PUBLIC "-//W3C//DTD SVG 1.1//EN" "http://www.w3.org/Graphics/SVG/1.1/DTD/svg11.dtd">
<svg version="1.1" id="Layer_1" xmlns:sketch="http://www.bohemiancoding.com/sketch/ns"
	 xmlns="http://www.w3.org/2000/svg" xmlns:xlink="http://www.w3.org/1999/xlink" x="0px" y="0px" viewBox="0 0 3302 1651"
	 enable-background="new 0 0 3302 1651" xml:space="preserve">
<title>logo-dark</title>
<desc>Created with Sketch.</desc>
<g id="Page-1" sketch:type="MSPage">
	<g id="logo-dark" transform="translate(-1.000000, -2.000000)" sketch:type="MSLayerGroup">
		<g id="Group" transform="translate(308.120000, 1204.629000)" sketch:type="MSShapeGroup">
			<path id="Shape" fill="#FFFFFF" d="M147.5,188V76.5l-40.4,81.1H84L43.6,76.5V188H0.5V1.7h46.7L95.5,99l48.6-97.4h46.5V188H147.5
				L147.5,188z"/>
			<path id="Shape_1_" fill="#FFFFFF" d="M276.9,1.7h38.9l68,186.4h-44.1l-14.4-41.7h-58L253,188h-44.1L276.9,1.7L276.9,1.7z
				 M318.1,116.6l-21.8-65.9L274,116.6H318.1L318.1,116.6z"/>
			<path id="Shape_2_" fill="#FFFFFF" d="M402.1,188V1.7h84c8.8,0,16.8,1.8,24.3,5.5c7.4,3.7,13.9,8.5,19.3,14.4
				c5.4,6,9.7,12.7,12.7,20.2c3.1,7.5,4.6,15.1,4.6,22.8c0,5.8-0.7,11.3-2.1,16.7c-1.4,5.3-3.4,10.4-6,15.1c-2.6,4.7-5.8,9-9.6,12.7
				c-3.8,3.8-8,7-12.7,9.6l40.9,69.3H509l-35.7-60.1h-28.1V188H402.1L402.1,188z M445.2,90.4h39.4c5.1,0,9.5-2.4,13.1-7.2
				c3.7-4.8,5.5-11,5.5-18.5c0-7.7-2.1-13.8-6.3-18.4c-4.2-4.5-8.8-6.8-13.6-6.8h-38.1V90.4L445.2,90.4z"/>
			<path id="Shape_3_" fill="#FFFFFF" d="M567.2,93.3c0-11.2,2.1-22.4,6.3-33.5c4.2-11.1,10.3-21,18.4-29.8s17.9-15.8,29.4-21.3
				s24.7-8.1,39.4-8.1c17.5,0,32.7,3.8,45.5,11.3c12.9,7.5,22.5,17.3,28.8,29.4l-33.1,23.1c-2.1-4.9-4.8-9-8-12.2
				c-3.2-3.2-6.8-5.9-10.6-7.9c-3.9-2-7.8-3.4-11.8-4.2c-4-0.8-8-1.2-11.8-1.2c-8.2,0-15.4,1.7-21.5,5c-6.1,3.3-11.2,7.6-15.2,12.9
				c-4,5.2-7,11.2-8.9,17.9c-1.9,6.6-2.9,13.4-2.9,20.2c0,7.3,1.1,14.4,3.4,21.3c2.3,6.8,5.6,12.9,9.8,18.1
				c4.3,5.2,9.5,9.4,15.5,12.5c6,3.1,12.8,4.6,20.3,4.6c3.9,0,7.8-0.5,11.9-1.4c4.1-1,8-2.4,11.8-4.5c3.8-2,7.2-4.6,10.4-7.9
				c3.2-3.2,5.7-7.2,7.6-11.9l35.2,20.7c-2.8,6.8-7,12.9-12.5,18.4c-5.5,5.4-11.9,10-19,13.6c-7.2,3.7-14.8,6.5-22.8,8.4
				c-8,1.9-15.9,2.9-23.6,2.9c-13.5,0-25.9-2.8-37.2-8.3c-11.3-5.5-21-12.8-29.1-21.9c-8.1-9.1-14.4-19.4-18.9-31
				C569.5,116.9,567.2,105.2,567.2,93.3L567.2,93.3z"/>
			<path id="Shape_4_" fill="#FFFFFF" d="M919,1.7V188h-43v-76.4h-74.3V188h-43V1.7h43v72.2H876V1.7H919L919,1.7z"/>
			<path id="Shape_5_" fill="#FFFFFF" d="M1015.9,188V1.7h126.5v37.8h-83.5v40.2h68.8v34.9h-68.8V188H1015.9L1015.9,188z"/>
			<path id="Shape_6_" fill="#FFFFFF" d="M1242.7,189.6c-13.8,0-26.4-2.7-37.8-8.1c-11.4-5.4-21.1-12.6-29.1-21.4
				c-8-8.8-14.3-18.9-18.8-30.3c-4.5-11.4-6.7-23.1-6.7-35.2c0-12.2,2.3-24.1,7-35.4s11.1-21.4,19.4-30.1
				c8.3-8.7,18.2-15.6,29.5-20.7c11.4-5.2,23.8-7.7,37.3-7.7c13.8,0,26.4,2.7,37.8,8.1c11.4,5.4,21.1,12.6,29.1,21.5
				c8,8.9,14.3,19.1,18.6,30.5c4.4,11.4,6.6,22.9,6.6,34.7c0,12.2-2.3,24.1-7,35.4s-11.1,21.4-19.3,30.1c-8.2,8.7-18,15.6-29.4,20.9
				C1268.6,187,1256.1,189.6,1242.7,189.6L1242.7,189.6z M1194.1,95.1c0,7.2,1.1,14.1,3.2,20.9c2.1,6.7,5.2,12.7,9.3,18
				c4.1,5.2,9.2,9.4,15.4,12.6c6.1,3.1,13.1,4.7,21,4.7c8.2,0,15.4-1.7,21.5-5c6.1-3.3,11.2-7.7,15.2-13c4-5.3,7-11.4,9-18.1
				c2-6.7,3-13.6,3-20.6c0-7.2-1.1-14.1-3.2-20.9c-2.1-6.7-5.2-12.7-9.4-17.8c-4.2-5.2-9.3-9.3-15.3-12.3c-6-3.1-13-4.6-20.9-4.6
				c-8.2,0-15.4,1.6-21.4,4.9c-6,3.2-11.1,7.5-15.2,12.7c-4.1,5.2-7.2,11.2-9.2,18C1195.1,81.2,1194.1,88.1,1194.1,95.1L1194.1,95.1
				z"/>
			<path id="Shape_7_" fill="#FFFFFF" d="M1360.5,188V1.7h84c8.8,0,16.8,1.8,24.3,5.5c7.4,3.7,13.9,8.5,19.3,14.4
				c5.4,6,9.7,12.7,12.7,20.2c3.1,7.5,4.6,15.1,4.6,22.8c0,5.8-0.7,11.3-2.1,16.7c-1.4,5.3-3.4,10.4-6,15.1c-2.6,4.7-5.8,9-9.6,12.7
				c-3.8,3.8-8,7-12.7,9.6l41,69.3h-48.6l-35.7-60.1h-28.1V188H1360.5L1360.5,188z M1403.6,90.4h39.4c5.1,0,9.5-2.4,13.1-7.2
				c3.7-4.8,5.5-11,5.5-18.5c0-7.7-2.1-13.8-6.3-18.4c-4.2-4.5-8.8-6.8-13.7-6.8h-38.1V90.4L1403.6,90.4z"/>
			<path id="Shape_8_" fill="#FFFFFF" d="M1709.4,56.3c-0.5-0.7-2.4-2-5.5-3.9s-7.1-3.9-11.8-6c-4.7-2.1-9.9-3.9-15.5-5.5
				c-5.6-1.6-11.2-2.4-16.8-2.4c-15.4,0-23.1,5.2-23.1,15.5c0,3.2,0.8,5.8,2.5,7.9c1.7,2.1,4.1,4,7.3,5.6c3.2,1.7,7.3,3.2,12.2,4.6
				c4.9,1.4,10.6,3,17.1,4.7c8.9,2.4,17,5.1,24.1,8c7.2,2.9,13.3,6.5,18.2,10.8c5,4.3,8.8,9.5,11.5,15.6c2.7,6.1,4.1,13.5,4.1,22.1
				c0,10.5-2,19.4-5.9,26.6c-3.9,7.3-9.1,13.1-15.6,17.6c-6.5,4.5-13.9,7.7-22.3,9.7c-8.4,2-17.1,3-26,3c-6.8,0-13.8-0.5-21-1.6
				c-7.2-1.1-14.2-2.6-21-4.6c-6.8-2-13.4-4.4-19.8-7.2s-12.3-6-17.7-9.7l18.9-37.5c0.7,0.9,3,2.5,6.8,5c3.8,2.5,8.6,4.9,14.3,7.4
				c5.7,2.4,12,4.6,19,6.6s14.1,2.9,21.3,2.9c15.2,0,22.8-4.6,22.8-13.9c0-3.5-1.1-6.4-3.4-8.7c-2.3-2.3-5.4-4.3-9.4-6.2
				c-4-1.8-8.8-3.5-14.3-5.1c-5.5-1.6-11.5-3.3-18-5.2c-8.6-2.6-16-5.5-22.3-8.5c-6.3-3.1-11.5-6.6-15.6-10.6
				c-4.1-4-7.2-8.7-9.2-13.9c-2-5.2-3-11.4-3-18.4c0-9.8,1.8-18.5,5.5-26c3.7-7.5,8.7-13.9,15-19c6.3-5.2,13.6-9.1,21.9-11.7
				c8.3-2.6,17.1-3.9,26.4-3.9c6.5,0,12.9,0.6,19.2,1.8s12.3,2.8,18.1,4.7c5.8,1.9,11.2,4.1,16.2,6.6c5,2.5,9.6,4.9,13.8,7.4
				L1709.4,56.3L1709.4,56.3z"/>
			<path id="Shape_9_" fill="#FFFFFF" d="M1748.2,93.3c0-11.2,2.1-22.4,6.3-33.5c4.2-11.1,10.3-21,18.4-29.8
				c8-8.8,17.8-15.8,29.4-21.3c11.5-5.4,24.7-8.1,39.4-8.1c17.5,0,32.7,3.8,45.5,11.3c12.9,7.5,22.5,17.3,28.8,29.4l-33.1,23.1
				c-2.1-4.9-4.8-9-8-12.2c-3.2-3.2-6.8-5.9-10.6-7.9c-3.8-2-7.8-3.4-11.8-4.2c-4-0.8-8-1.2-11.8-1.2c-8.2,0-15.4,1.7-21.5,5
				c-6.1,3.3-11.2,7.6-15.2,12.9c-4,5.2-7,11.2-8.9,17.9c-1.9,6.6-2.9,13.4-2.9,20.2c0,7.3,1.1,14.4,3.4,21.3
				c2.3,6.8,5.6,12.9,9.8,18.1c4.3,5.2,9.5,9.4,15.5,12.5c6,3.1,12.8,4.6,20.3,4.6c3.8,0,7.8-0.5,11.9-1.4c4.1-1,8.1-2.4,11.8-4.5
				c3.8-2,7.2-4.6,10.4-7.9c3.1-3.2,5.7-7.2,7.6-11.9l35.2,20.7c-2.8,6.8-7,12.9-12.5,18.4c-5.5,5.4-11.9,10-19,13.6
				c-7.2,3.7-14.8,6.5-22.8,8.4c-8.1,1.9-15.9,2.9-23.6,2.9c-13.5,0-25.8-2.8-37.1-8.3c-11.3-5.5-21-12.8-29.1-21.9
				c-8.1-9.1-14.4-19.4-18.9-31C1750.5,116.9,1748.2,105.2,1748.2,93.3L1748.2,93.3z"/>
			<rect id="Rectangle-path" x="1939.6" y="1.7" fill="#FFFFFF" width="43.1" height="186.4"/>
			<path id="Shape_10_" fill="#FFFFFF" d="M2149.3,150.2V188h-131V1.7H2147v37.8h-85.6v36.2h73.5v34.9h-73.5v39.6H2149.3
				L2149.3,150.2z"/>
			<path id="Shape_11_" fill="#FFFFFF" d="M2218.6,81.5V188h-43V1.7h33.6l86.9,109.5V1.7h43V188h-34.6L2218.6,81.5L2218.6,81.5z"/>
			<path id="Shape_12_" fill="#FFFFFF" d="M2364.1,93.3c0-11.2,2.1-22.4,6.3-33.5c4.2-11.1,10.3-21,18.4-29.8s17.9-15.8,29.4-21.3
				c11.6-5.4,24.7-8.1,39.4-8.1c17.5,0,32.7,3.8,45.6,11.3c12.9,7.5,22.4,17.3,28.7,29.4l-33.1,23.1c-2.1-4.9-4.8-9-8-12.2
				c-3.2-3.2-6.8-5.9-10.6-7.9c-3.9-2-7.8-3.4-11.8-4.2c-4-0.8-8-1.2-11.8-1.2c-8.2,0-15.4,1.7-21.5,5c-6.1,3.3-11.2,7.6-15.2,12.9
				c-4,5.2-7,11.2-8.9,17.9c-1.9,6.6-2.9,13.4-2.9,20.2c0,7.3,1.1,14.4,3.4,21.3c2.3,6.8,5.6,12.9,9.8,18.1
				c4.3,5.2,9.5,9.4,15.5,12.5c6,3.1,12.8,4.6,20.4,4.6c3.9,0,7.8-0.5,11.9-1.4c4.1-1,8.1-2.4,11.8-4.5c3.8-2,7.2-4.6,10.4-7.9
				c3.1-3.2,5.7-7.2,7.6-11.9l35.2,20.7c-2.8,6.8-6.9,12.9-12.5,18.4c-5.5,5.4-11.8,10-19,13.6c-7.2,3.7-14.8,6.5-22.8,8.4
				c-8.1,1.9-15.9,2.9-23.6,2.9c-13.5,0-25.9-2.8-37.1-8.3c-11.3-5.5-21-12.8-29.1-21.9c-8.1-9.1-14.4-19.4-18.9-31
				S2364.1,105.2,2364.1,93.3L2364.1,93.3z"/>
			<path id="Shape_13_" fill="#FFFFFF" d="M2686.4,150.2V188h-131V1.7h128.6v37.8h-85.6v36.2h73.5v34.9h-73.5v39.6H2686.4
				L2686.4,150.2z"/>
		</g>
		<g id="Group_1_" transform="translate(1130.286000, 1493.910300)" sketch:type="MSShapeGroup">
			<path id="Shape_14_" fill="#FFFFFF" d="M74.7,121H0.4v-11.1L30.2,80c9.1-9.2,15.1-15.7,17.9-19.6c2.9-3.9,5.1-7.7,6.5-11.4
				c1.4-3.7,2.2-7.7,2.2-12c0-6-1.8-10.8-5.5-14.3s-8.7-5.3-15.2-5.3c-4.7,0-9.1,0.8-13.3,2.3c-4.2,1.5-8.9,4.4-14,8.4l-6.8-8.7
				c10.4-8.7,21.8-13,34-13c10.6,0,18.9,2.7,25,8.2s9,12.7,9,21.9c0,7.2-2,14.2-6,21.3c-4,7-11.5,15.9-22.6,26.6l-24.7,24.2v0.6
				h58.1V121L74.7,121z"/>
			<path id="Shape_15_" fill="#FFFFFF" d="M173.1,121H98.8v-11.1L128.6,80c9.1-9.2,15-15.7,17.9-19.6c2.9-3.9,5.1-7.7,6.5-11.4
				c1.4-3.7,2.2-7.7,2.2-12c0-6-1.8-10.8-5.5-14.3s-8.7-5.3-15.2-5.3c-4.7,0-9.1,0.8-13.3,2.3c-4.2,1.5-8.9,4.4-14,8.4l-6.8-8.7
				c10.4-8.7,21.8-13,34-13c10.6,0,18.9,2.7,25,8.2s9,12.7,9,21.9c0,7.2-2,14.2-6,21.3c-4,7-11.5,15.9-22.6,26.6L115,108.4v0.6h58.1
				V121L173.1,121z"/>
			<path id="Shape_16_" fill="#FFFFFF" d="M325.2,121l-14.1-36h-45.3l-13.9,36h-13.3L283.3,7.5h11.1L338.8,121H325.2L325.2,121z
				 M307,73.2l-13.1-35c-1.7-4.4-3.5-9.9-5.3-16.3c-1.1,4.9-2.8,10.4-4.9,16.3l-13.3,35H307L307,73.2z"/>
			<path id="Shape_17_" fill="#FFFFFF" d="M399.8,122.5c-5.5,0-10.6-1-15.1-3.1c-4.6-2-8.4-5.2-11.5-9.4h-0.9
				c0.6,4.9,0.9,9.6,0.9,14.1V159h-12.8V36.2h10.4l1.8,11.6h0.6c3.3-4.6,7.1-8,11.5-10.1c4.4-2.1,9.4-3.1,15.1-3.1
				c11.2,0,19.9,3.8,26,11.5c6.1,7.7,9.2,18.5,9.2,32.3c0,13.9-3.1,24.7-9.3,32.4C419.4,118.7,410.8,122.5,399.8,122.5L399.8,122.5z
				 M397.9,45.6c-8.7,0-14.9,2.4-18.8,7.2c-3.9,4.8-5.9,12.4-5.9,22.9v2.9c0,11.9,2,20.4,5.9,25.6s10.3,7.7,19.1,7.7
				c7.3,0,13-3,17.2-8.9c4.1-5.9,6.2-14.1,6.2-24.5c0-10.6-2.1-18.7-6.2-24.3C411.3,48.4,405.4,45.6,397.9,45.6L397.9,45.6z"/>
			<path id="Shape_18_" fill="#FFFFFF" d="M503.9,34.7c3.8,0,7.1,0.3,10.1,0.9l-1.8,11.9c-3.5-0.8-6.6-1.2-9.3-1.2
				c-6.9,0-12.7,2.8-17.6,8.3c-4.9,5.6-7.3,12.5-7.3,20.8V121h-12.8V36.2h10.6l1.5,15.7h0.6c3.1-5.5,6.9-9.8,11.4-12.8
				C493.8,36.2,498.6,34.7,503.9,34.7L503.9,34.7z"/>
			<path id="Shape_19_" fill="#FFFFFF" d="M550.7,121h-12.8V36.2h12.8V121L550.7,121z M536.7,13.3c0-2.9,0.7-5.1,2.2-6.4
				c1.4-1.4,3.2-2.1,5.4-2.1c2.1,0,3.8,0.7,5.3,2.1c1.5,1.4,2.2,3.5,2.2,6.4s-0.7,5-2.2,6.5c-1.5,1.4-3.3,2.1-5.3,2.1
				c-2.2,0-4-0.7-5.4-2.1C537.5,18.3,536.7,16.2,536.7,13.3L536.7,13.3z"/>
			<rect id="Rectangle-path_1_" x="585.8" y="0.7" fill="#FFFFFF" width="12.8" height="120.3"/>
			<path id="Shape_20_" fill="#FFFFFF" d="M751.2,121h-74.3v-11.1L706.7,80c9.1-9.2,15-15.7,17.9-19.6c2.9-3.9,5-7.7,6.5-11.4
				c1.4-3.7,2.2-7.7,2.2-12c0-6-1.8-10.8-5.5-14.3c-3.7-3.5-8.7-5.3-15.2-5.3c-4.7,0-9.1,0.8-13.3,2.3c-4.2,1.5-8.9,4.4-14,8.4
				l-6.8-8.7c10.4-8.7,21.8-13,34-13c10.6,0,18.9,2.7,25,8.2c6,5.4,9,12.7,9,21.9c0,7.2-2,14.2-6,21.3c-4,7-11.5,15.9-22.6,26.6
				l-24.7,24.2v0.6h58.1V121L751.2,121z"/>
			<path id="Shape_21_" fill="#FFFFFF" d="M850.3,64.3c0,19.5-3.1,34.1-9.2,43.8c-6.2,9.6-15.6,14.5-28.3,14.5
				c-12.2,0-21.4-4.9-27.8-14.8c-6.3-9.9-9.5-24.3-9.5-43.4c0-19.7,3.1-34.3,9.2-43.8c6.1-9.5,15.5-14.3,28.1-14.3
				c12.3,0,21.6,5,28,14.9C847.1,31,850.3,45.4,850.3,64.3L850.3,64.3z M788.5,64.3c0,16.4,1.9,28.4,5.8,35.9
				c3.9,7.5,10,11.2,18.5,11.2c8.6,0,14.8-3.8,18.6-11.4c3.8-7.6,5.8-19.5,5.8-35.8c0-16.2-1.9-28.1-5.8-35.7
				c-3.8-7.6-10-11.3-18.6-11.3c-8.4,0-14.6,3.7-18.5,11.2C790.5,35.9,788.5,47.9,788.5,64.3L788.5,64.3z"/>
			<path id="Shape_22_" fill="#FFFFFF" d="M921.4,121h-12.5V40.4c0-6.7,0.2-13,0.6-19c-1.1,1.1-2.3,2.2-3.6,3.4
				c-1.3,1.2-7.5,6.2-18.4,15.1l-6.8-8.8l29.9-23.1h10.8V121L921.4,121z"/>
			<path id="Shape_23_" fill="#FFFFFF" d="M986.6,121l46.9-101.2h-61.6V7.9h75.2v10.3L1000.8,121H986.6L986.6,121z"/>
		</g>
		<g id="Group_2_" transform="translate(0.001750, 1555.187232)" sketch:type="MSShapeGroup">
			<rect id="Rectangle-path_2_" x="1" y="0.3" fill="#FFFFFF" width="1062.6" height="16.1"/>
		</g>
		<g id="Group_3_" transform="translate(2238.535750, 1555.187232)" sketch:type="MSShapeGroup">
			<rect id="Rectangle-path_3_" x="1" y="0.3" fill="#FFFFFF" width="1062.6" height="16.1"/>
		</g>
		<g id="Group_4_" transform="translate(1379.643090, 573.544300)" sketch:type="MSShapeGroup">
			<path id="Shape_24_" fill="#F25F46" d="M249.9,480v61.4C111.9,541.4,0.1,299,0.1,0.1h47C47.1,265.1,137.9,480,249.9,480
				L249.9,480z"/>
		</g>
		<g id="Group_5_" transform="translate(1730.526140, 354.051140)" sketch:type="MSShapeGroup">
			<path id="Shape_25_" fill="#32BDBC" d="M24,3.5c258.8,149.4,412.8,367.5,343.9,487l-53.1-30.7c56-97-84.7-283.1-314.2-415.6
				L24,3.5L24,3.5z"/>
		</g>
		<g id="Group_6_" transform="translate(1501.542990, 224.987910)" sketch:type="MSShapeGroup">
			<path id="Shape_26_" fill="#00507F" d="M490.4,65.5c-95.3-38-280.3,1.3-463.8,107.2L3.1,132C199.2,18.8,399.6-22.2,515,16.3
				C501.7,29.9,493.2,47.2,490.4,65.5"/>
		</g>
		<g id="Group_7_" transform="translate(1143.496610, 354.051140)" sketch:type="MSShapeGroup">
			<path id="Shape_27_" fill="#00507F" d="M70.6,459.4L17.4,490c-69-119.5,85.5-338,344.3-487.5l23.5,40.7
				C155.7,175.8,14.6,362.4,70.6,459.4"/>
		</g>
		<g id="Group_8_" transform="translate(1160.149930, 224.987910)" sketch:type="MSShapeGroup">
			<path id="Shape_28_" fill="#32BDBC" d="M595,132.9l-23.7,40.6C341.7,40.9,109.9,11.9,53.9,108.9L0.8,78.3
				C69.8-41.2,336.1-16.6,595,132.9L595,132.9z"/>
		</g>
		<g id="Group_9_" transform="translate(1626.442890, 570.544300)" sketch:type="MSShapeGroup">
			<path id="Shape_29_" fill="#F25F46" d="M252.9,3.1c0,298.9-112.2,541.3-250.2,541.3V483c112,0,203.2-214.9,203.2-479.9H252.9
				L252.9,3.1z"/>
		</g>
		<g id="Group_10_" transform="translate(1376.643090, 70.944700)" sketch:type="MSShapeGroup">
			<path id="Shape_30_" fill="#F25F46" d="M189.1,47.5c-80.5,63.5-139,244.2-139,456.1h-47c0-226.4,64.7-421.3,155.8-502
				C164,19.9,174.7,35.9,189.1,47.5"/>
		</g>
		<g id="Group_11_" transform="translate(1597.299580, 0.168090)" sketch:type="MSShapeGroup">
			<path id="Shape_31_" fill="#F25F46" d="M65.8,1.8c34.5,0,62.4,28,62.4,62.4s-28,62.4-62.4,62.4S3.3,98.8,3.3,64.3
				S31.3,1.8,65.8,1.8"/>
		</g>
		<g id="Group_12_" transform="translate(1143.496610, 224.987910)" sketch:type="MSShapeGroup">
			<path id="Shape_32_" fill="#32BDBC" d="M10.1,34.6C27.4,4.8,65.5-5.5,95.4,11.8c29.9,17.2,40.1,55.4,22.9,85.3
				C101,126.9,62.8,137.2,33,119.9C3.1,102.7-7.1,64.5,10.1,34.6"/>
		</g>
		<g id="Group_13_" transform="translate(2021.959240, 279.111200)" sketch:type="MSShapeGroup">
			<path id="Shape_33_" fill="#00507F" d="M118.9,35.3c17.2,29.9,7,68-22.8,85.3c-29.9,17.2-68.1,7-85.3-22.9
				c-17.2-29.9-7-68.1,22.9-85.3C63.5-4.8,101.7,5.4,118.9,35.3"/>
		</g>
		<g id="Group_14_" transform="translate(1730.526140, 299.927850)" sketch:type="MSShapeGroup">
			<path id="Shape_34_" fill="#00507F" d="M24,489.9C282.9,340.4,436.8,122.4,367.8,2.9l-53.1,30.7c56,97-84.6,283-314.2,415.6
				L24,489.9L24,489.9z"/>
		</g>
		<g id="Group_15_" transform="translate(1626.442890, 29.311400)" sketch:type="MSShapeGroup">
			<path id="Shape_35_" fill="#F25F46" d="M252.9,545.3h-47c0-265-90.8-480.9-202.8-480.9V3.1C141.1,3.1,252.9,246.4,252.9,545.3
				L252.9,545.3z"/>
		</g>
		<g id="Group_16_" transform="translate(1147.659940, 399.847770)" sketch:type="MSShapeGroup">
			<path id="Shape_36_" fill="#32BDBC" d="M55.9,1.6c14.8,101.5,141.5,241.7,325,347.6l-23.5,40.7C161.2,276.7,25.3,124.1,0.9,4.9
				C19.4,9.6,38.6,8.3,55.9,1.6"/>
		</g>
		<g id="Group_17_" transform="translate(1501.542990, 745.404160)" sketch:type="MSShapeGroup">
			<path id="Shape_37_" fill="#32BDBC" d="M543.8,68l53.1,30.7c-69,119.5-335.4,94.6-594.3-54.8L26.1,3.2
				C255.6,135.7,487.8,165,543.8,68L543.8,68z"/>
		</g>
		<g id="Group_18_" transform="translate(1160.149930, 745.404160)" sketch:type="MSShapeGroup">
			<path id="Shape_38_" fill="#00507F" d="M53.8,67.9L0.7,98.5C69.7,218,339,192.9,595.1,44L571.6,3.3
				C344.8,135.2,109.8,164.9,53.8,67.9L53.8,67.9z"/>
		</g>
		<g id="Group_19_" transform="translate(1509.051480, 445.465760)" sketch:type="MSShapeGroup">
			<ellipse id="Oval" fill="#FFFFFF" cx="122.4" cy="124.3" rx="121.4" ry="121.4"/>
		</g>
		<g id="Group_20_" transform="translate(1505.706320, 445.644400)" sketch:type="MSShapeGroup">
			<path id="Shape_39_" fill="#00507F" d="M125.2,1.8C57.3,1.8,2.4,56.7,2.4,124.6c0,67.9,55,122.8,122.8,122.8S248,192.5,248,124.6
				C248,56.7,193.1,1.8,125.2,1.8L125.2,1.8z M172.9,203.9c-0.5-0.3-2.7-0.8-3.1-2c-0.8-2.5-0.7-5.2-1-7.8c4,0,8-0.1,12,0
				c0.1,0,0.5,1.8,0.4,2.7C181,200.6,177.6,203.7,172.9,203.9L172.9,203.9z M214.4,143.5c-0.9,2.1-2.2,4-2.9,6.2
				c-1.4,4.4-3.2,8.3-7.2,10.6c-0.9,0.5-1.3,1.9-2,2.9c-1,1.5-2,3-2.8,4.6c-2,3.7-3.8,7.7-6,11.3c-0.7,1.1-1.8,2.2-3,2.5
				c-3.3,0.9-6.5,1.1-9.6,3.6c-2,1.7-6.1,2.3-7.7-0.5c-3.6,0.3-6.4,0.8-9.2,0.8c-1.5,0-3.1-1.1-4.6-1.1c-4.1,0-6.2-1.6-6.7-6.5
				c-0.1-1.7-2.6-3.4-4.6-5.7c0-0.1,0.1-1.3,0.3-3.2c-1.7,1.2-3,2.2-4.3,3.2c-0.2-0.2-0.5-0.3-0.7-0.5c0.8-2.7,1.6-5.4,2.3-7.8
				c-2.6,2.1-5.7,4.6-8.7,7.2c-1.7-2.9-3.2-5-4.4-7.3c-3.1-6.4-9.5-6.5-14-7.1c-4.2-0.5-9.5-2.1-13.9,1.5c-2.1,1.7-6.1,0.5-9,1.5
				c-3,1-6.4,2.5-8.5,4.9c-2.7,3.2-6.1,3.5-9.1,2.3c-4.3-1.7-7.5-0.6-10.6,1.7c-4.7,3.5-9.8,2.5-14.9,0.7c-2.1-0.8-3.4-2.1-2.8-5.2
				c0.7-4,0.2-8.2-3.5-11.2c-0.2-0.2-0.5-0.3-0.6-0.6c-3.4-6.4-6.8-12.8-10-19.3c-0.3-0.7,0.5-2,0.3-2.9c-0.2-1.6-0.4-3.7-1.3-4.6
				c-6-5.9-1.1-12.3-3.4-18.3c0.4-0.1,0.9-0.2,1.3-0.3c0.5,0.6,1,1.3,1.7,2c1.3-1.3,2.5-2.7,3.9-3.9c2.8-2.2,4.9-5.9,9.6-4.5
				c1.3,0.4,3-1.2,4.6-1.7c2.2-0.6,4.3-1.2,6.6-1.4c3.8-0.4,10-7.5,9.6-11.8c-0.3-3.7,1.5-5.5,3.8-7.3c1,1.5,1.8,2.9,2.6,4.2
				c0.3-0.1,0.6-0.2,0.9-0.2c0.1-1.7,0.2-3.4,0.3-5.4c1-0.2,2.1-0.5,3.1-0.7c0.1-0.3,0.1-0.5,0.1-0.6c0.4-6.7,6-7.9,9.9-10.9
				c2.7-2.2,4.8-0.2,7.3,1.9c2.1,1.8,5.1,2.5,7,3.4c1.8-4.5,2.6-9.2,5.2-11.8c2.7-2.7,7.2-3.3,11.3-5c-1.2-1.5-2-2.6-2.7-3.7
				c0.1-0.3,0.2-0.6,0.3-0.8c2.7,0.9,5.3,2.1,8,2.7c4.5,1,9,1.6,13.4,2.5c1.1,0.2,2.5,0.8,2.9,1.7c0.4,0.8,0.1,2.3-0.4,3.3
				c-1.6,3.5-3.4,7-5.4,10.9c2.1,1.5,3.9,3.3,5.9,4.1c4.3,1.5,7.1,6.5,12,6.4c0.3,0,0.7,0.8,1,1.3c2.7,4.7,8.4,3.6,9.3-1
				c1-4.5,1.1-9.3,1.7-14c0.7-4.7,1.4-9.5,2.5-14.2c0.5-2,1.7-3.7,2.7-5.5c1.1,2,2.4,3.8,3.2,5.9c0.9,2.5,1.8,5.2,2,7.8
				c0.2,3.5,1.5,5.7,4.8,6.2c2.7,0.5,3.7,1.9,3.9,5c0.1,2.6,1.2,5.2,1.9,7.8c0.6,2.2,2,4.4,2,6.5c-0.1,4.3,1.8,6.9,5.1,8.3
				c5.1,2.2,7.2,6.4,8.7,11.4c0.2,0.5,0.2,1.5,0.4,1.6c5.9,2.6,5.6,10.5,10.7,14.1c1.3,0.9,1.8,4,1.9,6c0.2,4.2-0.2,8.4-0.5,12.6
				C215.4,141.3,214.9,142.5,214.4,143.5L214.4,143.5z"/>
		</g>
		<g id="Group_21_" transform="translate(1155.986600, 812.017440)" sketch:type="MSShapeGroup">
			<path id="Shape_40_" fill="#00507F" d="M57.3,0l1.5,2.5L6,33.8l-2.2-3.7L57.3,0L57.3,0z"/>
		</g>
		<g id="Group_22_" transform="translate(1626.442890, 1049.327250)" sketch:type="MSShapeGroup">
			<path id="Shape_41_" fill="#F25F46" d="M0,65.5l6.1,0L7.3,4.1L3.1,4.2H2.7L0,4.1V65.5L0,65.5z"/>
		</g>
		<g id="Group_23_" transform="translate(2042.775890, 812.017440)" sketch:type="MSShapeGroup">
			<path id="Shape_42_" fill="#32BDBC" d="M3.3,0.3L1.7,2.8l52.7,31.4l2.4-3.9L3.3,0.3L3.3,0.3z"/>
		</g>
		<g id="Group_24_" transform="translate(1497.379660, 745.404160)" sketch:type="MSShapeGroup">
			<path id="Shape_43_" fill="#32BDBC" d="M27.3,1.5l6.3,3.6L11.5,46.6l-8.4-4.8L27.3,1.5L27.3,1.5z"/>
		</g>
		<g id="Group_25_" transform="translate(1726.362810, 745.404160)" sketch:type="MSShapeGroup">
			<path id="Shape_44_" fill="#00507F" d="M1.1,5.7l7.5-4.3l25.1,39.8l-10.8,6.2L1.1,5.7L1.1,5.7z"/>
		</g>
		<g id="Group_26_" transform="translate(1830.446060, 566.380970)" sketch:type="MSShapeGroup">
			<path id="Shape_45_" fill="#F25F46" d="M1.9,5v5.3l47,1.4l0-8.8L1.9,5L1.9,5z"/>
		</g>
		<g id="Group_27_" transform="translate(1376.643090, 566.380970)" sketch:type="MSShapeGroup">
			<path id="Shape_46_" fill="#F25F46" d="M3.1,3.3v8l47,1.6l0-9.4L3.1,3.3L3.1,3.3z"/>
		</g>
		<g id="Group_28_" transform="translate(1497.379660, 354.051140)" sketch:type="MSShapeGroup">
			<path id="Shape_47_" fill="#00507F" d="M11.9,0.3L3.6,5l21.2,42l11-6.3L11.9,0.3L11.9,0.3z"/>
		</g>
		<g id="Group_29_" transform="translate(1722.199480, 354.051140)" sketch:type="MSShapeGroup">
			<path id="Shape_48_" fill="#32BDBC" d="M28.8,1.4l7.3,4.2L14,47.2L3.8,41.3L28.8,1.4L28.8,1.4z"/>
		</g>
	</g>
</g>
</svg>
