<?xml version="1.0" encoding="utf-8"?>
<!-- Generator: Adobe Illustrator 19.0.1, SVG Export Plug-In . SVG Version: 6.00 Build 0)  -->
<svg version="1.1" id="Layer_1" xmlns="http://www.w3.org/2000/svg" xmlns:xlink="http://www.w3.org/1999/xlink" x="0px" y="0px"
	 viewBox="0 0 701.9 353.6" style="enable-background:new 0 0 701.9 353.6;" xml:space="preserve">
<polygon style="fill:#E9674D;" points="73.1,43.5 0,85.6 0,42.2 73.1,0 146.1,42.2 146.1,85.6 "/>
<polygon style="fill:#00517F;" points="37.7,104.8 37.7,63.9 0,85.6 0,126.5 35.4,147 73.1,125.2 "/>
<polygon style="fill:#00517F;" points="108.4,189.1 108.4,228.8 146.1,228.8 146.1,167.4 110.7,147 73.1,168.7 "/>
<polygon style="fill:#34BEBD;" points="108.4,63.9 108.4,104.8 73.1,125.2 35.4,147 0,167.4 0,228.8 37.7,228.8 37.7,189.1 
	73.1,168.7 110.7,147 146.1,126.5 146.1,85.6 "/>
<polygon style="fill:#414142;" points="274,130.7 274,72.3 251,130.7 235,130.7 212,73 212,130.7 193.4,130.7 193.4,42.6 219,42.6 
	243.2,102.1 266.3,42.6 293.2,42.6 293.2,130.7 "/>
<path style="fill:#414142;" d="M360.5,112.8h-34.1l-6.3,17.9h-20.6l33.2-88.2h22.8l32.8,88.2h-21.4L360.5,112.8z M332.9,94.9h21.4
	l-10.6-30.5L332.9,94.9z"/>
<polygon style="fill:#34BEBD;" points="37.7,188.7 37.7,229.6 73.1,250 110.7,271.7 146.1,292.2 146.1,353.6 108.4,353.6 
	108.4,313.9 73.1,293.5 35.4,271.7 0,251.3 0,210.3 "/>
<polygon style="fill:#00517F;" points="108.4,188.7 108.4,229.6 73.1,250 35.4,271.7 0,292.2 0,353.6 37.7,353.6 37.7,313.9 
	73.1,293.5 110.7,271.7 146.1,251.3 146.1,210.3 "/>
<path style="fill:#414142;" d="M421,97.9h-7v32.8h-19.7V42.6h34.9c17.4,0,28.6,11.9,28.6,27.6c0,11.9-6.6,21-17.4,24.9l17.9,35.7
	h-21.6L421,97.9z M425.6,81c8.1,0,12.4-4.5,12.4-10.7c0-6.6-4.4-10.7-12.4-10.7h-11.6V81H425.6z"/>
<path style="fill:#414142;" d="M462.8,86.8c0-27.5,20.9-46.1,45.5-46.1c26.5,0,38.2,17,41,29.7l-18.5,5.8c-1.4-6.1-7-16.4-22.5-16.4
	c-11.8,0-25.1,8.5-25.1,27c0,16.5,12.2,26.1,25.4,26.1c15.3,0,21.4-10.2,23.1-16.5l18.8,5.3c-2.9,12.2-14.5,30.8-41.9,30.8
	C483.2,132.6,462.8,114.3,462.8,86.8"/>
<polygon style="fill:#414142;" points="614.8,130.7 614.8,95.7 579.6,95.7 579.6,130.7 560,130.7 560,42.6 579.6,42.6 579.6,77.1 
	614.8,77.1 614.8,42.6 634.6,42.6 634.6,130.7 "/>
<polygon style="fill:#414142;" points="193.4,241 193.4,152.8 250.2,152.8 250.2,171.5 213,171.5 213,190.1 245.7,190.1 
	245.7,208.1 213.2,208.1 213.2,241 "/>
<path style="fill:#414142;" d="M299,151c24.7,0,45.8,18,45.8,46c0,27.9-21,45.9-45.8,45.9c-24.9,0-45.9-18-45.9-45.9
	C253.2,169,274.2,151,299,151 M299,223.5c12.2,0,25.4-8.2,25.4-26.6c0-18.4-13.2-26.7-25.4-26.7c-12.3,0-25.5,8.3-25.5,26.7
	C273.6,215.3,286.7,223.5,299,223.5"/>
<path style="fill:#414142;" d="M382,208.2h-7V241h-19.7v-88.2h34.9c17.4,0,28.6,11.9,28.6,27.6c0,11.9-6.6,21-17.4,24.9l17.9,35.7
	h-21.6L382,208.2z M386.6,191.3c8.1,0,12.4-4.5,12.4-10.7c0-6.6-4.4-10.7-12.4-10.7H375v21.4H386.6z"/>
<path style="fill:#414142;" d="M236.4,289.7c-0.6-4.1-4-11.1-14.7-11.1c-7.3,0-12.1,4.6-12.1,9.4c0,4.2,2.6,7.3,8.7,8.5l11.8,2.2
	c16.8,3.1,25.5,13.9,25.5,26.5c0,13.8-11.6,27.9-32.6,27.9c-24.4,0-34.8-15.8-36.1-28.2l18-4.4c0.7,8.1,6.2,15.2,18.3,15.2
	c7.7,0,12.4-3.7,12.4-9.2c0-4.5-3.6-7.7-9.5-8.8l-12.1-2.2c-14.9-2.9-24-12.8-24-25.9c0-16.7,14.7-28.4,31.6-28.4
	c22,0,30.3,13.2,32.2,23.5L236.4,289.7z"/>
<path style="fill:#414142;" d="M260.2,307.4c0-27.5,20.9-46.1,45.5-46.1c26.5,0,38.2,17,41,29.7l-18.5,5.8
	c-1.4-6.1-7-16.4-22.5-16.4c-11.8,0-25.1,8.5-25.1,27c0,16.5,12.2,26.1,25.4,26.1c15.3,0,21.4-10.2,23.1-16.5l18.8,5.3
	c-2.9,12.2-14.5,30.8-41.9,30.8C280.6,353.1,260.2,334.9,260.2,307.4"/>
<rect x="357.2" y="263.1" style="fill:#414142;" width="19.9" height="88.2"/>
<polygon style="fill:#414142;" points="392.4,351.3 392.4,263.1 448.2,263.1 448.2,281.6 412,281.6 412,298.4 444.9,298.4 
	444.9,315.7 412,315.7 412,332.6 448.3,332.6 448.3,351.3 "/>
<polygon style="fill:#414142;" points="517.6,351.3 481.3,293.3 481.3,351.3 461.8,351.3 461.8,263.1 485.7,263.1 518.7,316.7 
	518.7,263.1 538.4,263.1 538.4,351.3 "/>
<path style="fill:#414142;" d="M548.8,307.4c0-27.5,20.9-46.1,45.5-46.1c26.5,0,38.2,17,41,29.7l-18.5,5.8
	c-1.4-6.1-7-16.4-22.5-16.4c-11.8,0-25.1,8.5-25.1,27c0,16.5,12.2,26.1,25.4,26.1c15.3,0,21.4-10.2,23.1-16.5l18.8,5.3
	c-2.9,12.2-14.5,30.8-41.9,30.8C569.2,353.1,548.8,334.9,548.8,307.4"/>
<polygon style="fill:#414142;" points="645.9,351.3 645.9,263.1 701.8,263.1 701.8,281.6 665.6,281.6 665.6,298.4 698.4,298.4 
	698.4,315.7 665.6,315.7 665.6,332.6 701.9,332.6 701.9,351.3 "/>
</svg>
