<?xml version="1.0" standalone="no"?>
<!DOCTYPE svg PUBLIC "-//W3C//DTD SVG 1.1//EN" "http://www.w3.org/Graphics/SVG/1.1/DTD/svg11.dtd">
<svg width="100%" height="100%" viewBox="0 0 610 354" version="1.1" xmlns="http://www.w3.org/2000/svg" xmlns:xlink="http://www.w3.org/1999/xlink" xml:space="preserve" style="fill-rule:evenodd;clip-rule:evenodd;stroke-linejoin:round;stroke-miterlimit:1.41421;">
    <path d="M73.1,43.5L0,85.6L0,42.2L73.1,0L146.1,42.2L146.1,85.6L73.1,43.5Z" style="fill:rgb(233,103,77);fill-rule:nonzero;"/>
    <path d="M37.7,104.8L37.7,63.9L0,85.6L0,126.5L35.4,147L73.1,125.2L37.7,104.8Z" style="fill:rgb(0,81,127);fill-rule:nonzero;"/>
    <path d="M108.4,189.1L108.4,228.8L146.1,228.8L146.1,167.4L110.7,147L73.1,168.7L108.4,189.1Z" style="fill:rgb(0,81,127);fill-rule:nonzero;"/>
    <path d="M108.4,63.9L108.4,104.8L73.1,125.2L35.4,147L0,167.4L0,228.8L37.7,228.8L37.7,189.1L73.1,168.7L110.7,147L146.1,126.5L146.1,85.6L108.4,63.9Z" style="fill:rgb(52,190,189);fill-rule:nonzero;"/>
    <g transform="matrix(0.820111,0,0,0.820111,33.6212,7.32147)">
        <path d="M274,130.7L274,72.3L251,130.7L235,130.7L212,73L212,130.7L193.4,130.7L193.4,42.6L219,42.6L243.2,102.1L266.3,42.6L293.2,42.6L293.2,130.7L274,130.7Z" style="fill:rgb(65,65,66);fill-rule:nonzero;"/>
    </g>
    <g transform="matrix(0.820111,0,0,0.820111,33.6212,7.32147)">
        <path d="M360.5,112.8L326.4,112.8L320.1,130.7L299.5,130.7L332.7,42.5L355.5,42.5L388.3,130.7L366.9,130.7L360.5,112.8ZM332.9,94.9L354.3,94.9L343.7,64.4L332.9,94.9Z" style="fill:rgb(65,65,66);fill-rule:nonzero;"/>
    </g>
    <path d="M37.7,188.7L37.7,229.6L73.1,250L110.7,271.7L146.1,292.2L146.1,353.6L108.4,353.6L108.4,313.9L73.1,293.5L35.4,271.7L0,251.3L0,210.3L37.7,188.7Z" style="fill:rgb(52,190,189);fill-rule:nonzero;"/>
    <path d="M108.4,188.7L108.4,229.6L73.1,250L35.4,271.7L0,292.2L0,353.6L37.7,353.6L37.7,313.9L73.1,293.5L110.7,271.7L146.1,251.3L146.1,210.3L108.4,188.7Z" style="fill:rgb(0,81,127);fill-rule:nonzero;"/>
    <g transform="matrix(0.820111,0,0,0.820111,33.6212,7.32147)">
        <path d="M421,97.9L414,97.9L414,130.7L394.3,130.7L394.3,42.6L429.2,42.6C446.6,42.6 457.8,54.5 457.8,70.2C457.8,82.1 451.2,91.2 440.4,95.1L458.3,130.8L436.7,130.8L421,97.9ZM425.6,81C433.7,81 438,76.5 438,70.3C438,63.7 433.6,59.6 425.6,59.6L414,59.6L414,81L425.6,81Z" style="fill:rgb(65,65,66);fill-rule:nonzero;"/>
    </g>
    <g transform="matrix(0.820111,0,0,0.820111,33.6212,7.32147)">
        <path d="M462.8,86.8C462.8,59.3 483.7,40.7 508.3,40.7C534.8,40.7 546.5,57.7 549.3,70.4L530.8,76.2C529.4,70.1 523.8,59.8 508.3,59.8C496.5,59.8 483.2,68.3 483.2,86.8C483.2,103.3 495.4,112.9 508.6,112.9C523.9,112.9 530,102.7 531.7,96.4L550.5,101.7C547.6,113.9 536,132.5 508.6,132.5C483.2,132.6 462.8,114.3 462.8,86.8" style="fill:rgb(65,65,66);fill-rule:nonzero;"/>
    </g>
    <g transform="matrix(0.820111,0,0,0.820111,33.6212,7.32147)">
        <path d="M614.8,130.7L614.8,95.7L579.6,95.7L579.6,130.7L560,130.7L560,42.6L579.6,42.6L579.6,77.1L614.8,77.1L614.8,42.6L634.6,42.6L634.6,130.7L614.8,130.7Z" style="fill:rgb(65,65,66);fill-rule:nonzero;"/>
    </g>
    <g transform="matrix(0.820111,0,0,0.820111,33.6212,7.32147)">
        <path d="M193.4,241L193.4,152.8L250.2,152.8L250.2,171.5L213,171.5L213,190.1L245.7,190.1L245.7,208.1L213.2,208.1L213.2,241L193.4,241Z" style="fill:rgb(65,65,66);fill-rule:nonzero;"/>
    </g>
    <g transform="matrix(0.820111,0,0,0.820111,33.6212,7.32147)">
        <path d="M299,151C323.7,151 344.8,169 344.8,197C344.8,224.9 323.8,242.9 299,242.9C274.1,242.9 253.1,224.9 253.1,197C253.2,169 274.2,151 299,151M299,223.5C311.2,223.5 324.4,215.3 324.4,196.9C324.4,178.5 311.2,170.2 299,170.2C286.7,170.2 273.5,178.5 273.5,196.9C273.6,215.3 286.7,223.5 299,223.5" style="fill:rgb(65,65,66);fill-rule:nonzero;"/>
    </g>
    <g transform="matrix(0.820111,0,0,0.820111,33.6212,7.32147)">
        <path d="M382,208.2L375,208.2L375,241L355.3,241L355.3,152.8L390.2,152.8C407.6,152.8 418.8,164.7 418.8,180.4C418.8,192.3 412.2,201.4 401.4,205.3L419.3,241L397.7,241L382,208.2ZM386.6,191.3C394.7,191.3 399,186.8 399,180.6C399,174 394.6,169.9 386.6,169.9L375,169.9L375,191.3L386.6,191.3Z" style="fill:rgb(65,65,66);fill-rule:nonzero;"/>
    </g>
    <g transform="matrix(0.820111,0,0,0.820111,33.6212,7.32147)">
        <path d="M236.4,289.7C235.8,285.6 232.4,278.6 221.7,278.6C214.4,278.6 209.6,283.2 209.6,288C209.6,292.2 212.2,295.3 218.3,296.5L230.1,298.7C246.9,301.8 255.6,312.6 255.6,325.2C255.6,339 244,353.1 223,353.1C198.6,353.1 188.2,337.3 186.9,324.9L204.9,320.5C205.6,328.6 211.1,335.7 223.2,335.7C230.9,335.7 235.6,332 235.6,326.5C235.6,322 232,318.8 226.1,317.7L214,315.5C199.1,312.6 190,302.7 190,289.6C190,272.9 204.7,261.2 221.6,261.2C243.6,261.2 251.9,274.4 253.8,284.7L236.4,289.7Z" style="fill:rgb(65,65,66);fill-rule:nonzero;"/>
    </g>
    <g transform="matrix(0.820111,0,0,0.820111,33.6212,7.32147)">
        <path d="M260.2,307.4C260.2,279.9 281.1,261.3 305.7,261.3C332.2,261.3 343.9,278.3 346.7,291L328.2,296.8C326.8,290.7 321.2,280.4 305.7,280.4C293.9,280.4 280.6,288.9 280.6,307.4C280.6,323.9 292.8,333.5 306,333.5C321.3,333.5 327.4,323.3 329.1,317L347.9,322.3C345,334.5 333.4,353.1 306,353.1C280.6,353.1 260.2,334.9 260.2,307.4" style="fill:rgb(65,65,66);fill-rule:nonzero;"/>
    </g>
    <g transform="matrix(0.820111,0,0,0.820111,33.6212,7.32147)">
        <rect x="357.2" y="263.1" width="19.9" height="88.2" style="fill:rgb(65,65,66);"/>
    </g>
    <g transform="matrix(0.820111,0,0,0.820111,33.6212,7.32147)">
        <path d="M392.4,351.3L392.4,263.1L448.2,263.1L448.2,281.6L412,281.6L412,298.4L444.9,298.4L444.9,315.7L412,315.7L412,332.6L448.3,332.6L448.3,351.3L392.4,351.3Z" style="fill:rgb(65,65,66);fill-rule:nonzero;"/>
    </g>
    <g transform="matrix(0.820111,0,0,0.820111,33.6212,7.32147)">
        <path d="M517.6,351.3L481.3,293.3L481.3,351.3L461.8,351.3L461.8,263.1L485.7,263.1L518.7,316.7L518.7,263.1L538.4,263.1L538.4,351.3L517.6,351.3Z" style="fill:rgb(65,65,66);fill-rule:nonzero;"/>
    </g>
    <g transform="matrix(0.820111,0,0,0.820111,33.6212,7.32147)">
        <path d="M548.8,307.4C548.8,279.9 569.7,261.3 594.3,261.3C620.8,261.3 632.5,278.3 635.3,291L616.8,296.8C615.4,290.7 609.8,280.4 594.3,280.4C582.5,280.4 569.2,288.9 569.2,307.4C569.2,323.9 581.4,333.5 594.6,333.5C609.9,333.5 616,323.3 617.7,317L636.5,322.3C633.6,334.5 622,353.1 594.6,353.1C569.2,353.1 548.8,334.9 548.8,307.4" style="fill:rgb(65,65,66);fill-rule:nonzero;"/>
    </g>
    <g transform="matrix(0.820111,0,0,0.820111,33.6212,7.32147)">
        <path d="M645.9,351.3L645.9,263.1L701.8,263.1L701.8,281.6L665.6,281.6L665.6,298.4L698.4,298.4L698.4,315.7L665.6,315.7L665.6,332.6L701.9,332.6L701.9,351.3L645.9,351.3Z" style="fill:rgb(65,65,66);fill-rule:nonzero;"/>
    </g>
    <g transform="matrix(1,0,0,1,-5.15981,11.0996)">
        <g>
            <g transform="matrix(1,0,0,1,192.016,341.939)">
                <path d="M15.606,-38.34L20.898,-38.34L36.018,0L29.646,0L25.596,-10.422L10.8,-10.422L6.804,0L0.378,0L15.606,-38.34ZM24.408,-14.904L18.252,-31.374L11.88,-14.904L24.408,-14.904Z" style="fill:rgb(65,65,66);fill-rule:nonzero;"/>
            </g>
            <g transform="matrix(1,0,0,1,229.492,341.939)">
                <path d="M20.304,-5.184C22.32,-5.184 23.994,-5.58 25.326,-6.372C26.658,-7.164 27.729,-8.199 28.539,-9.477C29.349,-10.755 29.925,-12.213 30.267,-13.851C30.609,-15.489 30.78,-17.172 30.78,-18.9L30.78,-38.34L36.882,-38.34L36.882,-18.9C36.882,-16.272 36.576,-13.797 35.964,-11.475C35.352,-9.153 34.38,-7.119 33.048,-5.373C31.716,-3.627 29.997,-2.25 27.891,-1.242C25.785,-0.234 23.256,0.27 20.304,0.27C17.244,0.27 14.661,-0.261 12.555,-1.323C10.449,-2.385 8.748,-3.807 7.452,-5.589C6.156,-7.371 5.22,-9.414 4.644,-11.718C4.068,-14.022 3.78,-16.416 3.78,-18.9L3.78,-38.34L9.828,-38.34L9.828,-18.9C9.828,-17.136 9.999,-15.435 10.341,-13.797C10.683,-12.159 11.259,-10.701 12.069,-9.423C12.879,-8.145 13.959,-7.119 15.309,-6.345C16.659,-5.571 18.324,-5.184 20.304,-5.184Z" style="fill:rgb(65,65,66);fill-rule:nonzero;"/>
                <path d="M67.608,-29.322C67.248,-29.718 66.726,-30.141 66.042,-30.591C65.358,-31.041 64.557,-31.464 63.639,-31.86C62.721,-32.256 61.713,-32.58 60.615,-32.832C59.517,-33.084 58.392,-33.21 57.24,-33.21C54.684,-33.21 52.803,-32.742 51.597,-31.806C50.391,-30.87 49.788,-29.574 49.788,-27.918C49.788,-26.982 49.977,-26.217 50.355,-25.623C50.733,-25.029 51.318,-24.507 52.11,-24.057C52.902,-23.607 53.892,-23.211 55.08,-22.869C56.268,-22.527 57.654,-22.158 59.238,-21.762C61.182,-21.294 62.937,-20.772 64.503,-20.196C66.069,-19.62 67.392,-18.918 68.472,-18.09C69.552,-17.262 70.389,-16.245 70.983,-15.039C71.577,-13.833 71.874,-12.366 71.874,-10.638C71.874,-8.694 71.505,-7.02 70.767,-5.616C70.029,-4.212 69.021,-3.069 67.743,-2.187C66.465,-1.305 64.98,-0.657 63.288,-0.243C61.596,0.171 59.778,0.378 57.834,0.378C54.918,0.378 52.101,-0.063 49.383,-0.945C46.665,-1.827 44.208,-3.114 42.012,-4.806L44.766,-9.99C45.234,-9.522 45.909,-9 46.791,-8.424C47.673,-7.848 48.699,-7.317 49.869,-6.831C51.039,-6.345 52.308,-5.931 53.676,-5.589C55.044,-5.247 56.466,-5.076 57.942,-5.076C60.318,-5.076 62.154,-5.49 63.45,-6.318C64.746,-7.146 65.394,-8.37 65.394,-9.99C65.394,-10.962 65.151,-11.772 64.665,-12.42C64.179,-13.068 63.486,-13.635 62.586,-14.121C61.686,-14.607 60.588,-15.048 59.292,-15.444C57.996,-15.84 56.52,-16.254 54.864,-16.686C52.956,-17.19 51.291,-17.721 49.869,-18.279C48.447,-18.837 47.268,-19.512 46.332,-20.304C45.396,-21.096 44.685,-22.023 44.199,-23.085C43.713,-24.147 43.47,-25.434 43.47,-26.946C43.47,-28.818 43.83,-30.483 44.55,-31.941C45.27,-33.399 46.251,-34.623 47.493,-35.613C48.735,-36.603 50.202,-37.35 51.894,-37.854C53.586,-38.358 55.422,-38.61 57.402,-38.61C59.994,-38.61 62.388,-38.196 64.584,-37.368C66.78,-36.54 68.706,-35.514 70.362,-34.29L67.608,-29.322Z" style="fill:rgb(65,65,66);fill-rule:nonzero;"/>
                <path d="M106.056,-32.994L93.312,-32.994L93.312,0L87.21,0L87.21,-32.994L74.412,-32.994L74.412,-38.34L106.056,-38.34L106.056,-32.994Z" style="fill:rgb(65,65,66);fill-rule:nonzero;"/>
                <path d="M111.186,0L111.186,-38.34L127.872,-38.34C129.6,-38.34 131.193,-37.98 132.651,-37.26C134.109,-36.54 135.36,-35.595 136.404,-34.425C137.448,-33.255 138.267,-31.923 138.861,-30.429C139.455,-28.935 139.752,-27.414 139.752,-25.866C139.752,-24.57 139.572,-23.328 139.212,-22.14C138.852,-20.952 138.348,-19.854 137.7,-18.846C137.052,-17.838 136.26,-16.965 135.324,-16.227C134.388,-15.489 133.362,-14.94 132.246,-14.58L141.264,0L134.406,0L126.09,-13.338L117.234,-13.338L117.234,0L111.186,0ZM117.234,-18.684L127.818,-18.684C128.682,-18.684 129.465,-18.873 130.167,-19.251C130.869,-19.629 131.472,-20.151 131.976,-20.817C132.48,-21.483 132.876,-22.248 133.164,-23.112C133.452,-23.976 133.596,-24.894 133.596,-25.866C133.596,-26.838 133.425,-27.756 133.083,-28.62C132.741,-29.484 132.291,-30.24 131.733,-30.888C131.175,-31.536 130.527,-32.049 129.789,-32.427C129.051,-32.805 128.286,-32.994 127.494,-32.994L117.234,-32.994L117.234,-18.684Z" style="fill:rgb(65,65,66);fill-rule:nonzero;"/>
                <path d="M158.166,-38.34L163.458,-38.34L178.578,0L172.206,0L168.156,-10.422L153.36,-10.422L149.364,0L142.938,0L158.166,-38.34ZM166.968,-14.904L160.812,-31.374L154.44,-14.904L166.968,-14.904Z" style="fill:rgb(65,65,66);fill-rule:nonzero;"/>
                <path d="M183.33,0L183.33,-38.34L189.378,-38.34L189.378,-5.346L209.952,-5.346L209.952,0L183.33,0Z" style="fill:rgb(65,65,66);fill-rule:nonzero;"/>
                <rect x="214.866" y="-38.34" width="6.048" height="38.34" style="fill:rgb(65,65,66);fill-rule:nonzero;"/>
                <path d="M240.84,-38.34L246.132,-38.34L261.252,0L254.88,0L250.83,-10.422L236.034,-10.422L232.038,0L225.612,0L240.84,-38.34ZM249.642,-14.904L243.486,-31.374L237.114,-14.904L249.642,-14.904Z" style="fill:rgb(65,65,66);fill-rule:nonzero;"/>
            </g>
        </g>
    </g>
</svg>
