<?xml version="1.0" standalone="no"?>
<!DOCTYPE svg PUBLIC "-//W3C//DTD SVG 1.1//EN" "http://www.w3.org/Graphics/SVG/1.1/DTD/svg11.dtd">
<svg width="100%" height="100%" viewBox="0 0 610 354" version="1.1" xmlns="http://www.w3.org/2000/svg" xmlns:xlink="http://www.w3.org/1999/xlink" xml:space="preserve" style="fill-rule:evenodd;clip-rule:evenodd;stroke-linejoin:round;stroke-miterlimit:1.41421;">
    <path d="M73.1,43.5L0,85.6L0,42.2L73.1,0L146.1,42.2L146.1,85.6L73.1,43.5Z" style="fill:rgb(233,103,77);fill-rule:nonzero;"/>
    <path d="M37.7,104.8L37.7,63.9L0,85.6L0,126.5L35.4,147L73.1,125.2L37.7,104.8Z" style="fill:rgb(0,81,127);fill-rule:nonzero;"/>
    <path d="M108.4,189.1L108.4,228.8L146.1,228.8L146.1,167.4L110.7,147L73.1,168.7L108.4,189.1Z" style="fill:rgb(0,81,127);fill-rule:nonzero;"/>
    <path d="M108.4,63.9L108.4,104.8L73.1,125.2L35.4,147L0,167.4L0,228.8L37.7,228.8L37.7,189.1L73.1,168.7L110.7,147L146.1,126.5L146.1,85.6L108.4,63.9Z" style="fill:rgb(52,190,189);fill-rule:nonzero;"/>
    <g transform="matrix(0.820111,0,0,0.820111,33.6212,7.32147)">
        <path d="M274,130.7L274,72.3L251,130.7L235,130.7L212,73L212,130.7L193.4,130.7L193.4,42.6L219,42.6L243.2,102.1L266.3,42.6L293.2,42.6L293.2,130.7L274,130.7Z" style="fill:rgb(65,65,66);fill-rule:nonzero;"/>
    </g>
    <g transform="matrix(0.820111,0,0,0.820111,33.6212,7.32147)">
        <path d="M360.5,112.8L326.4,112.8L320.1,130.7L299.5,130.7L332.7,42.5L355.5,42.5L388.3,130.7L366.9,130.7L360.5,112.8ZM332.9,94.9L354.3,94.9L343.7,64.4L332.9,94.9Z" style="fill:rgb(65,65,66);fill-rule:nonzero;"/>
    </g>
    <path d="M37.7,188.7L37.7,229.6L73.1,250L110.7,271.7L146.1,292.2L146.1,353.6L108.4,353.6L108.4,313.9L73.1,293.5L35.4,271.7L0,251.3L0,210.3L37.7,188.7Z" style="fill:rgb(52,190,189);fill-rule:nonzero;"/>
    <path d="M108.4,188.7L108.4,229.6L73.1,250L35.4,271.7L0,292.2L0,353.6L37.7,353.6L37.7,313.9L73.1,293.5L110.7,271.7L146.1,251.3L146.1,210.3L108.4,188.7Z" style="fill:rgb(0,81,127);fill-rule:nonzero;"/>
    <g transform="matrix(0.820111,0,0,0.820111,33.6212,7.32147)">
        <path d="M421,97.9L414,97.9L414,130.7L394.3,130.7L394.3,42.6L429.2,42.6C446.6,42.6 457.8,54.5 457.8,70.2C457.8,82.1 451.2,91.2 440.4,95.1L458.3,130.8L436.7,130.8L421,97.9ZM425.6,81C433.7,81 438,76.5 438,70.3C438,63.7 433.6,59.6 425.6,59.6L414,59.6L414,81L425.6,81Z" style="fill:rgb(65,65,66);fill-rule:nonzero;"/>
    </g>
    <g transform="matrix(0.820111,0,0,0.820111,33.6212,7.32147)">
        <path d="M462.8,86.8C462.8,59.3 483.7,40.7 508.3,40.7C534.8,40.7 546.5,57.7 549.3,70.4L530.8,76.2C529.4,70.1 523.8,59.8 508.3,59.8C496.5,59.8 483.2,68.3 483.2,86.8C483.2,103.3 495.4,112.9 508.6,112.9C523.9,112.9 530,102.7 531.7,96.4L550.5,101.7C547.6,113.9 536,132.5 508.6,132.5C483.2,132.6 462.8,114.3 462.8,86.8" style="fill:rgb(65,65,66);fill-rule:nonzero;"/>
    </g>
    <g transform="matrix(0.820111,0,0,0.820111,33.6212,7.32147)">
        <path d="M614.8,130.7L614.8,95.7L579.6,95.7L579.6,130.7L560,130.7L560,42.6L579.6,42.6L579.6,77.1L614.8,77.1L614.8,42.6L634.6,42.6L634.6,130.7L614.8,130.7Z" style="fill:rgb(65,65,66);fill-rule:nonzero;"/>
    </g>
    <g transform="matrix(0.820111,0,0,0.820111,33.6212,7.32147)">
        <path d="M193.4,241L193.4,152.8L250.2,152.8L250.2,171.5L213,171.5L213,190.1L245.7,190.1L245.7,208.1L213.2,208.1L213.2,241L193.4,241Z" style="fill:rgb(65,65,66);fill-rule:nonzero;"/>
    </g>
    <g transform="matrix(0.820111,0,0,0.820111,33.6212,7.32147)">
        <path d="M299,151C323.7,151 344.8,169 344.8,197C344.8,224.9 323.8,242.9 299,242.9C274.1,242.9 253.1,224.9 253.1,197C253.2,169 274.2,151 299,151M299,223.5C311.2,223.5 324.4,215.3 324.4,196.9C324.4,178.5 311.2,170.2 299,170.2C286.7,170.2 273.5,178.5 273.5,196.9C273.6,215.3 286.7,223.5 299,223.5" style="fill:rgb(65,65,66);fill-rule:nonzero;"/>
    </g>
    <g transform="matrix(0.820111,0,0,0.820111,33.6212,7.32147)">
        <path d="M382,208.2L375,208.2L375,241L355.3,241L355.3,152.8L390.2,152.8C407.6,152.8 418.8,164.7 418.8,180.4C418.8,192.3 412.2,201.4 401.4,205.3L419.3,241L397.7,241L382,208.2ZM386.6,191.3C394.7,191.3 399,186.8 399,180.6C399,174 394.6,169.9 386.6,169.9L375,169.9L375,191.3L386.6,191.3Z" style="fill:rgb(65,65,66);fill-rule:nonzero;"/>
    </g>
    <g transform="matrix(0.820111,0,0,0.820111,33.6212,7.32147)">
        <path d="M236.4,289.7C235.8,285.6 232.4,278.6 221.7,278.6C214.4,278.6 209.6,283.2 209.6,288C209.6,292.2 212.2,295.3 218.3,296.5L230.1,298.7C246.9,301.8 255.6,312.6 255.6,325.2C255.6,339 244,353.1 223,353.1C198.6,353.1 188.2,337.3 186.9,324.9L204.9,320.5C205.6,328.6 211.1,335.7 223.2,335.7C230.9,335.7 235.6,332 235.6,326.5C235.6,322 232,318.8 226.1,317.7L214,315.5C199.1,312.6 190,302.7 190,289.6C190,272.9 204.7,261.2 221.6,261.2C243.6,261.2 251.9,274.4 253.8,284.7L236.4,289.7Z" style="fill:rgb(65,65,66);fill-rule:nonzero;"/>
    </g>
    <g transform="matrix(0.820111,0,0,0.820111,33.6212,7.32147)">
        <path d="M260.2,307.4C260.2,279.9 281.1,261.3 305.7,261.3C332.2,261.3 343.9,278.3 346.7,291L328.2,296.8C326.8,290.7 321.2,280.4 305.7,280.4C293.9,280.4 280.6,288.9 280.6,307.4C280.6,323.9 292.8,333.5 306,333.5C321.3,333.5 327.4,323.3 329.1,317L347.9,322.3C345,334.5 333.4,353.1 306,353.1C280.6,353.1 260.2,334.9 260.2,307.4" style="fill:rgb(65,65,66);fill-rule:nonzero;"/>
    </g>
    <g transform="matrix(0.820111,0,0,0.820111,33.6212,7.32147)">
        <rect x="357.2" y="263.1" width="19.9" height="88.2" style="fill:rgb(65,65,66);"/>
    </g>
    <g transform="matrix(0.820111,0,0,0.820111,33.6212,7.32147)">
        <path d="M392.4,351.3L392.4,263.1L448.2,263.1L448.2,281.6L412,281.6L412,298.4L444.9,298.4L444.9,315.7L412,315.7L412,332.6L448.3,332.6L448.3,351.3L392.4,351.3Z" style="fill:rgb(65,65,66);fill-rule:nonzero;"/>
    </g>
    <g transform="matrix(0.820111,0,0,0.820111,33.6212,7.32147)">
        <path d="M517.6,351.3L481.3,293.3L481.3,351.3L461.8,351.3L461.8,263.1L485.7,263.1L518.7,316.7L518.7,263.1L538.4,263.1L538.4,351.3L517.6,351.3Z" style="fill:rgb(65,65,66);fill-rule:nonzero;"/>
    </g>
    <g transform="matrix(0.820111,0,0,0.820111,33.6212,7.32147)">
        <path d="M548.8,307.4C548.8,279.9 569.7,261.3 594.3,261.3C620.8,261.3 632.5,278.3 635.3,291L616.8,296.8C615.4,290.7 609.8,280.4 594.3,280.4C582.5,280.4 569.2,288.9 569.2,307.4C569.2,323.9 581.4,333.5 594.6,333.5C609.9,333.5 616,323.3 617.7,317L636.5,322.3C633.6,334.5 622,353.1 594.6,353.1C569.2,353.1 548.8,334.9 548.8,307.4" style="fill:rgb(65,65,66);fill-rule:nonzero;"/>
    </g>
    <g transform="matrix(0.820111,0,0,0.820111,33.6212,7.32147)">
        <path d="M645.9,351.3L645.9,263.1L701.8,263.1L701.8,281.6L665.6,281.6L665.6,298.4L698.4,298.4L698.4,315.7L665.6,315.7L665.6,332.6L701.9,332.6L701.9,351.3L645.9,351.3Z" style="fill:rgb(65,65,66);fill-rule:nonzero;"/>
    </g>
    <g transform="matrix(1,0,0,1,-5.15981,11.0996)">
        <text x="192.016px" y="341.939px" style="font-family:'Raleway-SemiBold';font-size:54px;fill:rgb(65,65,66);">A<tspan x="229.492px 272.8px 308.224px 344.188px 381.988px 421.138px 455.374px 472.762px " y="341.939px 341.939px 341.939px 341.939px 341.939px 341.939px 341.939px 341.939px ">USTRALIA</tspan></text>
    </g>
</svg>
